<?xml version="1.0" standalone="no"?>
<!DOCTYPE svg PUBLIC "-//W3C//DTD SVG 1.1//EN" "http://www.w3.org/Graphics/SVG/1.1/DTD/svg11.dtd" >
<svg xmlns="http://www.w3.org/2000/svg" xmlns:xlink="http://www.w3.org/1999/xlink" version="1.1">
<metadata></metadata>
<defs>
<font id="mathilderegular" horiz-adv-x="1210" >
<font-face units-per-em="2048" ascent="1638" descent="-410" />
<missing-glyph horiz-adv-x="610" />
<glyph horiz-adv-x="0" />
<glyph horiz-adv-x="682" />
<glyph unicode=" "  horiz-adv-x="610" />
<glyph unicode="&#x09;" horiz-adv-x="610" />
<glyph unicode="&#xa0;" horiz-adv-x="610" />
<glyph unicode="!" horiz-adv-x="362" d="M154 51q-8 15 8 35q12 6 22 2.5t15 -12.5q6 -13 -6 -25l12 -6q12 -1 12 -13t-12 -14q-9 0 -21 2q-26 10 -30 31zM166 350q-5 83 20 223q7 43 17.5 91.5t24.5 109t20 88.5q3 14 15 17t21.5 -4.5t6.5 -20.5q-6 -29 -20 -89t-24.5 -108.5t-17.5 -89.5q-25 -132 -20 -215 q0 -39 8 -63q6 -14 -2.5 -23.5t-20.5 -8t-16 14.5q-12 24 -12 78z" />
<glyph unicode="&#x22;" horiz-adv-x="321" d="M86 604v154q0 30 2 53q0 13 15 17q20 5 25 -18q1 -5 1 -11v-43q-2 -14 -4.5 -45.5t-5.5 -57.5q0 -3 -2 -21.5t-4 -27.5q-5 -10 -15 -10t-12 10zM193 653q0 29 2 60t2 45q2 18 2 53q0 19 20.5 19t22.5 -19q0 -37 -2 -53q-11 -85 -11 -105q0 -3 -2 -21.5t-4 -27.5 q0 -7 -5 -9.5t-11 0t-8 9.5q-6 48 -6 49z" />
<glyph unicode="#" horiz-adv-x="571" d="M28.5 533q3.5 12 16.5 14q77 8 166 2q5 85 -6 213q-1 13 9.5 19.5t21.5 2t12 -19.5q10 -68 10 -215q9 -1 40.5 -4t51.5 -4q3 83 -4 155q-1 15 9.5 22t21.5 2.5t12 -18.5q8 -65 4 -165q21 -3 62.5 -9.5t62.5 -9.5q11 -3 14 -12.5t-3 -17.5t-17 -7q-68 11 -123 17 q-5 -82 -8 -99q22 -2 65.5 -5t65.5 -5q11 0 15.5 -9t-0.5 -17.5t-17 -6.5q-43 2 -133 2q-19 -145 -58 -325q-5 -15 -17 -18.5t-21.5 4.5t-8.5 20q22 88 37 168t19 113t4 38h-92q-5 -51 -14 -103.5t-20.5 -112.5t-15.5 -81q-2 -8 -7.5 -12.5t-12 -4.5t-12.5 3t-9.5 9t-1.5 14 q39 193 50 286q-6 -1 -48.5 -4.5t-66.5 -7.5q-13 -2 -19.5 8t-3 21.5t16.5 13.5q3 1 127 12q1 12 2.5 35t2.5 41.5t1 34.5q-109 0 -158 -10q-13 -1 -19.5 10t-3 23zM246 399h92q1 20 4 54t4 47q-49 6 -92 6q-1 -15 -4 -51t-4 -56z" />
<glyph unicode="$" horiz-adv-x="598" d="M43 168q8 30 25 47q6 5 15.5 1t8.5 -13q0 -1 -6 -43q-6 -18 0 -35q3 -34 43 -55q40 -19 76 -25q15 160 24 412q-36 14 -36 53q-3 40 47 86q1 40 4 131t4 139q2 13 13.5 18t22.5 -1t11 -21q-2 -38 -5 -114.5t-5 -114.5q8 6 53 31q0 37 1 94t1 78q2 13 13.5 17.5t22.5 -1.5 t11 -21q-1 -14 -6 -153h7.5t8.5 0.5t8.5 0t8 -1t6.5 -2.5t4 -5q13 -16 0 -29q-5 -4 -12 -5t-17 -1.5t-14 -1.5q0 -23 -2 -72t-2 -74q55 -3 96 -36q30 -24 49.5 -58.5t20.5 -70.5q9 -71 -25 -144q-51 -101 -149 -151v-185q0 -23 -23.5 -23t-23.5 23q0 98 4 170 q-30 -12 -80 -12q-2 -25 -3.5 -57.5t-2.5 -40.5q-2 -15 -13.5 -19.5t-21.5 2t-8 19.5q0 34 6 96q-51 3 -99 31q-36 22 -53 57q-17 42 -8 80zM248 45q38 0 78 16q0 17 2 161t4 222q-9 0 -28 2.5t-28 2.5q-21 -330 -28 -404zM279 494q54 -7 55 -7v127q-36 -24 -51 -41 q0 -14 -2 -40.5t-2 -38.5zM371 80q75 50 104 117q23 48 25 79q5 34 -8 76q-15 43 -43 62q-31 22 -74 28q0 -63 -2 -185t-2 -177z" />
<glyph unicode="%" horiz-adv-x="604" d="M42 470q-7 31 7 60q24 50 94 84q75 35 136 43q84 12 127 -10q45 -26 45 -69q-1 -14 0.5 -18.5t-3 -19.5t-5.5 -21t-7.5 -21.5t-9 -21.5t-10 -21.5t-10 -21t-10 -20t-9.5 -18.5q-36 -65 -154 -235q-93 -138 -104 -152q-8 -12 -21 -9t-17.5 13.5t1.5 20.5q62 92 105 153 q118 181 147 232q68 116 64 160q0 20 -21 38q-24 22 -104 17q-43 -6 -86 -25q32 -4 49.5 -23.5t17.5 -47.5q0 -27 -15.5 -53.5t-39.5 -41.5q-28 -23 -63.5 -29t-69.5 11q-27 15 -34 46zM88 469q30 -35 96 6q49 42 37 78q-8 16 -41 20q-8 0 -13 6t-5 13q-44 -25 -68 -62 q-19 -42 -6 -61zM332 106q12 51 69 84q-1 6 3 12.5t10 8.5q47 11 78 4q37 -9 52 -39.5t9 -69.5q-9 -37 -42 -66t-75 -38q-30 -5 -57.5 4.5t-40.5 32.5q-19 34 -6 67zM371 94q-5 -27 10 -39q17 -14 45 -6q45 3 72 45q12 16 11.5 40t-17.5 34q-20 15 -56 10q0 -9 -10 -16 q-46 -26 -55 -68z" />
<glyph unicode="&#x26;" horiz-adv-x="800" d="M74 100q16 47 45 103q61 94 139 166q6 6 12 8q-18 55 -18 110q0 83 57 158q81 97 166 125q50 14 74 -6q32 -18 24 -70q-2 -27 -20 -84q-9 -20 -29.5 -12.5t-11.5 29.5l5 11q5 11 10.5 27.5t7.5 30.5q5 28 -7 37q-10 10 -41 0q-75 -21 -149 -110q-49 -62 -49 -136 q0 -61 33 -147q49 -111 120 -203q36 -53 80 -100q80 84 107 172q22 72 -2 113q-13 13 -25 22q-67 -14 -96 6q-20 13 -2 31q8 8 39 8q43 0 71 -12q75 21 136 65q9 9 17.5 -2t-3.5 -20q-62 -46 -119 -64q2 -6 8 -12q35 -56 13 -147q-29 -106 -117 -197q46 -52 96 -102 q9 -9 4.5 -21t-15 -15t-20.5 5q-5 4 -35 37t-57 67q-84 -70 -157 -92q-89 -35 -172 -18q-65 17 -101 61q-53 71 -18 178zM104.5 39q-3.5 -20 0.5 -44t20 -44q23 -32 80 -43q69 -18 145 14q75 24 142 84q-17 19 -45.5 59t-38.5 52q-90 136 -123 217q-74 -70 -125 -156 q-33 -53 -43 -92q-9 -27 -12.5 -47z" />
<glyph unicode="'" horiz-adv-x="210" d="M82 758q0 8 2 26.5t2 26.5q2 19 21 19.5t22 -19.5v-133q-2 -9 -4.5 -36.5t-5.5 -43.5q0 -10 -12.5 -10t-14.5 10q-2 18 -4 47.5t-2 32.5q0 1 -1 13t-2 31t-1 36z" />
<glyph unicode="(" horiz-adv-x="462" d="M37 266q11 156 88 326q36 84 90 162.5t113 113.5q12 8 23 1.5t11.5 -18t-10.5 -20.5q-99 -61 -186 -253q-76 -164 -90 -314q-11 -144 37 -237q49 -98 178 -144q79 -26 158 -22q14 0 14.5 -12.5t-12.5 -14.5q-72 -10 -172 14q-145 51 -203 164q-50 102 -39 254z" />
<glyph unicode=")" horiz-adv-x="430" d="M20 -158.5q-4 12.5 7 17.5q92 17 163 98q87 90 129 240q41 159 19 309q-29 182 -145 262q-62 43 -142 43q-13 1 -17.5 12t1.5 22t20 11q99 -9 162 -55q132 -87 164 -289q22 -169 -25 -328q-51 -161 -139 -252q-81 -85 -180 -102q-13 -1 -17 11.5z" />
<glyph unicode="*" horiz-adv-x="395" d="M60 723q-7 20 14 29q8 3 43.5 12.5t42.5 11.5q-30 11 -54 35q-15 14 -1.5 29.5t30.5 3.5q7 -6 22.5 -16.5t22.5 -16.5q0 13 -1 34t-1 29q-2 15 9 22t22.5 2.5t11.5 -19.5v-15q0 1 1 2t1 2q8 12 20.5 11.5t17.5 -9.5t-1 -22q-3 -7 -11 -22t-16 -33q16 2 62 12q15 2 18 -15 t-12 -20q-7 -1 -19 -4l-16 -4q41 -20 53 -25q14 -8 7.5 -24.5t-23.5 -10.5q-74 37 -80 41q0 -2 6 -79q0 -17 -16.5 -18.5t-19.5 13.5q0 17 -3 35q-2 -5 -5 -14t-5 -14q-9 -15 -24.5 -8.5t-8.5 24.5q5 12 19 55q-69 -23 -78 -28q-21 -6 -28 14z" />
<glyph unicode="+" horiz-adv-x="567" d="M80 313q3 17 24 21q22 4 154 10q-5 100 0 174q0 11 8 16t16.5 0.5t8.5 -16.5q8 -143 10 -174h168q17 0 18 -18.5t-18 -18.5q-69 -4 -166 -6l4 -151q0 -10 -5.5 -15.5t-12.5 -5.5q-7 1 -12 5.5t-6.5 8t-4.5 11.5q-8 27 -8 145l-158 -8q-20 6 -20 22z" />
<glyph unicode="," horiz-adv-x="307" d="M95.5 -220.5q-2.5 6.5 2.5 13.5q48 62 64 96q21 55 4 99q-27 32 -49 37q-14 4 -16.5 16t6 21.5t22.5 5.5q20 -4 40.5 -24t29.5 -42q31 -59 -6 -129q-39 -61 -76 -98q-5 -6 -12 -4t-9.5 8.5z" />
<glyph unicode="-" horiz-adv-x="577" d="M80 313q3 17 24 21q42 10 179 10h186q17 0 18 -18.5t-18 -18.5q-75 -4 -186 -6l-183 -10q-20 6 -20 22z" />
<glyph unicode="." horiz-adv-x="266" d="M98 49q0 17 15 21q10 10 24 10q15 0 25 -17q9 -17 -6 -38q-10 -19 -31 -19q-34 0 -27 43z" />
<glyph unicode="/" horiz-adv-x="608" d="M12 -78q14 54 68.5 142t204.5 307q165 243 323 458q9 12 21 10.5t15.5 -11.5t-3.5 -23q-28 -40 -139.5 -199t-179.5 -260q-15 -22 -46 -67.5t-49.5 -73.5t-46 -69t-45.5 -69.5t-36 -59.5t-29 -54t-15 -39q7 -5 8 -15t-6 -16q-9 -9 -22 -11t-21 7q-14 19 -2 43z" />
<glyph unicode="0" horiz-adv-x="512" d="M55 322q0 78 27 151q10 34 43 92q33 42 49 51q26 14 47 11q19 -3 19 -20.5t-19 -20.5q-8 -4 -24 -8q-25 -9 -41 -35q-25 -36 -39 -82q-22 -57 -29 -139q0 -85 16 -142q22 -80 64 -117q26 -26 78 -26q62 4 110 63q51 77 64 179q11 107 -8 188q-13 42 -41 86q-17 31 -62 63 q-14 9 -28 14.5t-22.5 7t-19.5 2.5t-12 1q-13 3 -13 17t13 18q14 2 44.5 -5.5t56.5 -25.5q45 -26 73 -74q30 -41 43 -96q25 -86 11 -203q-19 -118 -68 -190q-59 -73 -139 -82q-52 0 -92 25q-62 46 -88 147q-18 88 -13 150z" />
<glyph unicode="1" horiz-adv-x="344" d="M150 670q0 13 11 19t21.5 1t10.5 -20q8 -118 12 -281q1 -44 1.5 -117t2 -123.5t6.5 -85.5q0 -5 1 -8.5t1.5 -5.5t2 -4t2 -2.5l2.5 -2.5l3 -1q6 -4 31 0q7 0 22.5 5t22.5 5q-18 -22 -33 -35q-27 -18 -61 -8q-25 11 -35 51q-6 26 -8 77.5t-3 128.5t-3 124q-2 28 -10 283z " />
<glyph unicode="2" horiz-adv-x="622" d="M74.5 65.5q0.5 53.5 38.5 75.5q39 16 104 2q40 -3 109 -24q69 118 92 233q14 94 -6 172q-16 46 -41 73t-49 32q-31 10 -56 -8q-45 -23 -73 -78q-13 -30 -13 -49q-1 -15 -12 -20t-22 2t-11 22q3 31 19 63q35 72 88 98q45 26 92 17q43 -13 74.5 -51.5t46.5 -87.5 q26 -89 6 -191q-16 -112 -92 -240q24 -7 72.5 -22t70.5 -21q35 -11 117 -24q74 -4 116 10q-42 -29 -116 -29q-32 0 -125 13q-64 13 -158 37q-58 -76 -98 -105q-30 -18 -68 -18t-69 28q-37 37 -36.5 90.5zM111 71.5q-4 -19.5 4 -38t22 -31.5q21 -14 43 -14t43 14q37 23 78 80 q-11 2 -29.5 6.5t-33.5 7.5t-29 4q-53 12 -74 0q-20 -9 -24 -28.5z" />
<glyph unicode="3" horiz-adv-x="634" d="M-61 209q36 -53 112 -92q70 -37 135 -49q121 -28 209 -5q67 19 109 78q37 49 37 123q0 72 -47 119q-45 42 -119 29q-33 -9 -66 -23q-10 -6 -19.5 1t-10 17.5t9.5 18.5q101 81 198 201q-74 -19 -125 -19q-44 -5 -104 8q-69 14 -98 43q-14 17 -0.5 32.5t30.5 2.5 q30 -27 80 -37q27 -6 88 -6q100 3 183 43q15 6 25 -7.5t1 -27.5q-5 -10 -55 -73q-45 -54 -123 -129q80 9 135 -43q60 -54 60 -148q3 -89 -43 -153q-55 -67 -133 -88q-78 -18 -156 0q-126 19 -209 79q-80 54 -104 105z" />
<glyph unicode="4" horiz-adv-x="634" d="M76 276q-20 20 0 50q22 36 65 39q5 8 10.5 17t12 20t10.5 18q18 28 41 80q9 22 21 86q3 15 15 18t21.5 -5t6.5 -21q-2 -7 -10.5 -38.5t-16.5 -54.5q-34 -65 -47 -86l-25 -37q16 -3 47 -15t43 -15q87 -35 131 -43q0 33 -2 125q0 121 -6 170q-13 70 -16 80q-3 13 6.5 20.5 t21.5 4.5t15 -17q14 -62 16 -86q3 -26 8 -168v-139q71 -14 121 -9q46 0 119 15q-56 -27 -117 -39q-66 -7 -123 -4q0 -80 5 -119q0 -60 8 -78q4 -6 16 -2q6 4 12 0t6.5 -10.5t-4.5 -12.5q-17 -13 -30 -8q-15 0 -31 19q-6 9 -9.5 23t-5.5 37t-3 28q-2 37 -2 129q-21 3 -43 9 t-36 10.5t-36.5 12.5t-32.5 11q-78 29 -104 31q-20 -24 -35 -39q-25 -25 -43 -7z" />
<glyph unicode="5" horiz-adv-x="665" d="M43 129q6 9 17.5 3.5t7.5 -15.5q-7 -20 2 -35q21 -25 127 -37q126 -5 192 12q55 14 101.5 47t50.5 76q3 39 -25 78q-32 43 -98 57q-59 14 -111 -20q-31 -26 -41 -41q-9 -14 -25.5 -8t-13.5 24q2 38 15 148q3 31 11 78.5t11 68.5q3 13 15 16.5t21.5 -4t6.5 -22.5 q-3 -21 -11 -66.5t-11 -76.5q-1 -14 -4.5 -42t-4.5 -42q64 50 150 30q76 -12 127 -73q40 -49 33 -111q-6 -59 -59.5 -99.5t-127.5 -60.5q-81 -19 -206 -8q-121 15 -148 57q-17 32 -2 66zM47.5 531q-4.5 10 1.5 22q13 19 37 31q17 9 43 18t44 14t48 13t37 10q209 47 346 74 q305 55 559 82q-290 -49 -553 -111q-224 -54 -340 -88q-120 -29 -164 -55q-8 -3 -13 -6t-6 -5l-1 -2q-8 -11 -21 -9t-17.5 12z" />
<glyph unicode="6" horiz-adv-x="608" d="M98 319q17 95 74 203q45 82 92 131q23 27 49 41q12 6 22 -2.5t9.5 -20t-12.5 -18.5q-10 -6 -35 -26q-40 -45 -86 -127q-51 -94 -70 -193q-18 -79 2 -141q19 -49 60 -66q9 -4 63 -20q5 37 29 76q13 27 51 65q64 60 123 74q52 10 84 -25q26 -43 18 -80q-9 -52 -65 -98 q-46 -37 -100 -49q-53 -11 -84 -6q9 -10 34 -23q34 -12 52 -14q-30 -10 -56 -10q-58 7 -80 49q-33 4 -88 22q-58 28 -80 89q-24 70 -6 169zM307 76q54 -4 88 4q56 14 90 39q45 41 45 78q0 34 -18 49q-6 6 -33 6q-45 -13 -102 -62q-4 -5 -14 -17t-18 -22t-13 -20 q-25 -29 -25 -55z" />
<glyph unicode="7" horiz-adv-x="565" d="M94 682q0 9 7 14.5t16 5.5q8 0 20 -12q3 -4 8.5 -13t8.5 -13q32 -19 94 -19q68 -6 129 0q21 2 33 3t25 4t18 4t22.5 6t28.5 8q15 2 24 -11t0 -26q-48 -67 -55 -80q-9 -13 -25.5 -38.5t-27.5 -41.5q-13 -22 -46 -78t-52 -88q-75 -147 -99 -219q-14 -44 -14 -51q5 1 37 20 q10 9 19 0t1 -18q-24 -28 -51 -37q-32 -3 -41 25q-3 28 12 73q18 75 97 228q45 80 98 170q44 71 82 118q-23 0 -82 -6q-43 -6 -133 -6q-42 0 -86 12q4 -39 4 -124q0 -14 -11 -19.5t-21.5 0t-10.5 19.5q-1 16 -4 70.5t-6 78.5q-19 16 -19 41z" />
<glyph unicode="8" horiz-adv-x="614" d="M80 530q8 52 70 99q69 47 145 53q96 10 154 -43q47 -40 55 -90q101 43 205 55q-102 -27 -203 -82q0 -20 -6 -35q-13 -45 -51 -63q-9 -7 -18 2t-1 18q27 31 33 54q-82 -52 -129 -99q-7 -8 -24 -26t-25 -27q52 -24 108 -61q57 -40 77.5 -86t10.5 -86q-6 -30 -29 -53.5 t-53 -34.5q-46 -19 -80 -19q-101 0 -141 82q-37 72 -4 158q17 51 53 94q-90 59 -127 109q-26 50 -20 81zM117 524q-4 -22 18 -55q32 -51 113 -98l59 59q81 64 156 100q-3 42 -43 74q-41 39 -119 35q-61 -5 -127 -43q-49 -36 -57 -72zM217 106q26 -53 102 -57q40 0 62 12 q52 23 63 62q8 31 -11 67t-62 64q-25 21 -107 65q-3 -4 -10.5 -16.5t-11 -18.5t-9.5 -16t-9.5 -19.5t-6.5 -19.5q-24 -68 0 -123z" />
<glyph unicode="9" horiz-adv-x="522" d="M45 414q-21 29 0 73q30 53 90 103q47 41 107 67q84 39 135 27q57 -11 65 -51q3 -22 -6 -43q-3 -8 -7.5 -15.5t-7.5 -11t-3 -4.5q-12 -7 -20.5 1.5t-2.5 17.5q0 1 1 4.5t2.5 9t2.5 10.5q0 2 1 6.5t1 8t-2 6.5q-3 13 -30 18q-40 4 -111 -20q-44 -19 -104 -62 q-59 -43 -76 -86q-7 -19 -4 -29q7 -10 24 -14q57 -18 117 -12q49 3 86 18q36 16 49 27q4 7 13.5 23.5t11.5 19.5q21 30 53 55q11 10 24 1.5t9 -25.5q-10 -32 -33 -62q-11 -11 -35 -31q-22 -53 -26 -143q-7 -71 2 -133l12 -131q2 -14 -8 -21.5t-21.5 -3.5t-13.5 19 q-12 89 -14 135q-7 76 -4 137q0 53 16 109q-47 -20 -117 -31q-76 -11 -133 6q-28 9 -43 27z" />
<glyph unicode=":" horiz-adv-x="272" d="M68 20q0 23 19.5 44.5t41.5 23.5q18 0 28.5 -12t10.5 -31q9 -4 9.5 -14t-5.5 -17q-45 -39 -68 -39q-15 0 -25.5 11t-10.5 34zM80 395q6 22 23.5 32t37.5 5q9 18 33.5 12.5t28.5 -32.5q3 -37 -23 -80q-3 -35 -24 -56q-13 -16 -33 -16q-15 0 -21 10.5t-1.5 22t16.5 14.5 q-23 5 -34.5 30t-2.5 58zM113 25q4 0 16 12v2q-9 -3 -16 -14zM122 364q1 -18 9 -18q3 1 6 4q4 9 2 23.5t-10 15.5q-10 0 -7 -25z" />
<glyph unicode=";" horiz-adv-x="294" d="M70 -207q47 53 65 96q22 56 2 99q-7 10 -22 22t-27 15q-12 4 -14 16t5.5 21.5t20.5 5.5q21 -4 42 -24t30 -42q27 -58 -6 -129q-36 -56 -78 -98q-6 -9 -16.5 -0.5t-1.5 18.5zM80 338q1 38 14 57.5t37 34.5q3 3 9.5 7t9.5 7q9 9 20 4.5t14 -15t-4 -21.5q27 0 37 -31 q9 -38 -22 -74.5t-66 -36.5q-23 0 -37.5 17.5t-11.5 50.5zM123 337.5q-2 -19.5 2 -24.5q10 -5 31.5 15.5t17.5 40.5h-27q-10 0 -16 2q-6 -14 -8 -33.5z" />
<glyph unicode="&#x3c;" horiz-adv-x="583" d="M88.5 321q-1.5 15 11.5 23q262 100 351 166q12 8 23 2t11.5 -17t-10.5 -20q-76 -57 -295 -147q162 -44 307 -131q11 -9 11.5 -21t-9.5 -19.5t-22 -0.5q-48 29 -102.5 54t-99 41.5t-81.5 28t-58 17.5l-22 6q-14 3 -15.5 18z" />
<glyph unicode="=" horiz-adv-x="571" d="M80 190q3 17 24 21q42 10 179 10q12 0 48 0.5t71.5 0.5t66.5 -1q17 0 18 -18.5t-18 -18.5q-75 -4 -186 -6l-183 -10q-20 6 -20 22zM80 393q3 17 24 21q42 10 179 10h186q17 0 18 -18.5t-18 -18.5q-75 -4 -186 -6l-183 -10q-20 6 -20 22z" />
<glyph unicode="&#x3e;" horiz-adv-x="567" d="M77.5 495.5q1.5 12.5 12 17.5t23.5 -1q48 -28 102.5 -53t98.5 -40.5t81 -27t59 -17.5l21 -5q14 -3 15.5 -19.5t-15.5 -21.5q-259 -101 -346 -166q-12 -8 -23 -2.5t-12.5 17t6.5 20.5q90 61 299 147q-160 43 -311 131q-12 8 -10.5 20.5z" />
<glyph unicode="?" horiz-adv-x="561" d="M39 664q0 40 12 81q22 57 76.5 95t118.5 51q67 9 128 -9.5t101 -64.5q53 -67 53 -158q-6 -46 -41 -79q-12 -11 -30 -22t-31.5 -17.5t-41 -19l-38.5 -17.5q-88 -40 -117 -80q-28 -35 -18 -92q6 -18 6 -37q4 -12 -6 -16.5t-18 6.5q-1 7 -6.5 21t-6.5 16q-17 68 23 127 q29 42 131 92q97 41 127 67q24 24 24 56q2 31 -8.5 66t-32.5 58q-32 40 -84 54.5t-106 5.5q-53 -9 -97.5 -40t-62.5 -77q-13 -37 -8 -65q0 -15 -11 -21.5t-22.5 -1t-13.5 20.5zM205 51q7 27 28 35q17 8 37 -4q8 -4 9.5 -14t-3.5 -17q-4 -6 -12 -8.5t-12 0.5q-3 0 -3 -2t3 -2 q6 -6 20 -6q4 0 9 1t11 2.5t9 2.5q6 5 12 2t6.5 -10t-4.5 -13q-19 -22 -61 -22q-23 3 -36 18.5t-13 36.5z" />
<glyph unicode="@" horiz-adv-x="1013" d="M74 25q-7 88 29 176t100 164q132 152 303 194q73 19 141 11.5t121 -30.5t92 -59q47 -45 64.5 -106t5.5 -127q-12 -91 -76 -166q-34 -41 -80.5 -61t-91.5 -9q-34 3 -66 31q-26 29 -26 74q-35 -24 -55 -41q-76 -36 -84 -39q-47 -19 -76 -19q-38 -6 -56 21q-21 31 -10 78 q15 39 60 80q61 61 118 94q21 12 62 24q33 7 53 -8q14 -14 14 -37t-18 -37q-6 -5 -13 -2.5t-7 11.5q-3 0 -3 3.5t3 6.5q4 12 -0.5 16t-10.5 2q-32 0 -80 -37q-52 -35 -88 -67q-49 -53 -53 -86q0 -15 8.5 -21.5t32.5 -3.5t51 15q23 6 74 36q69 51 90 74q10 29 27 49 q5 13 15.5 28.5t19.5 21.5q10 7 24 4q7 0 12 -9t2 -20q-2 -11 -32 -57q-12 -19 -29 -31q0 -2 -5 -22.5t-3 -30.5q1 -29 25 -48.5t57 -19.5q59 0 110 59q56 65 72 154q13 121 -66 197q-50 45 -129.5 63.5t-185.5 -2.5q-164 -44 -280 -182q-58 -67 -92 -147.5t-27 -155.5 q17 -172 211 -219q153 -29 342 16q51 12 119.5 36t101.5 44q-23 -22 -83.5 -51t-131.5 -52q-183 -61 -357 -30q-114 22 -175 88t-70 162z" />
<glyph unicode="A" d="M14 14q8 38 25 60q7 9 17 3.5t7 -16.5q-1 -5 -3.5 -20.5t-2.5 -22.5q73 51 142 117q105 100 202 226t158 247q48 92 62 174q-2 18 -5.5 51.5t-5.5 51.5q0 19 17 22.5t26 -14.5q10 -19 13 -39q6 -34 0 -61q20 -143 53 -263q45 -143 55 -172q62 -164 150 -284 q110 -150 243 -203q83 -38 175 -38q79 0 163 28q-111 -54 -212 -54q-72 0 -138 27q-145 49 -270 215q-94 122 -160 291q-48 147 -55 178q-13 39 -35 148q-11 -35 -33 -80q-93 -183 -258 -369q74 -2 186 -2h189q-65 -35 -184 -47q-52 -4 -99 -4q-73 0 -133 10 q-26 -33 -74 -74q-76 -68 -116 -98q-50 -37 -62 -37q-15 -2 -26.5 12t-10.5 37z" />
<glyph unicode="B" horiz-adv-x="890" d="M-901 -537q72 23 311 93q360 109 617 196q275 95 452 172q193 85 277 156q51 46 51 78q0 25 -37 49q-82 56 -260 74q-46 3 -90 3q-89 0 -172 -12q3 -78 16 -153q4 -33 12 -58q4 -13 -5 -21.5t-21 -6.5t-17 16q-8 23 -12 62q-11 66 -18 155q-19 -4 -28.5 4t-7.5 19t11 16 q6 1 23 10q-2 35 -6 101q-7 70 -19 116q-3 14 6.5 21.5t21.5 4.5t15 -17q3 -8 5 -18t4 -22.5t3 -19.5q10 -82 13 -141q97 56 129 78q138 89 213 178q64 73 64 121q0 5 -1 10q-5 33 -59 61q-70 32 -213 41q-50 4 -103 4q-110 0 -231 -16q-126 -17 -217 -47q-82 -25 -121 -57 q-37 -34 -45 -58q-12 12 -12 31q0 36 30 59q41 36 132 70q104 35 225 51q129 18 248 19q50 0 98 -4q139 -8 229 -50q78 -36 86 -98l2 -18q0 -66 -77 -150q-74 -85 -224 -184q-37 -24 -94 -57q54 4 107 4t104 -4q74 -5 152.5 -25t130.5 -53q52 -36 55 -80q1 -5 1 -10 q0 -50 -67 -113q-90 -75 -286 -164q-197 -85 -459 -170q-337 -112 -625 -178q-124 -32 -317 -68z" />
<glyph unicode="C" horiz-adv-x="903" d="M98 264q0 150 70 326q79 180 190 272q44 40 91 39q22 0 45 -8q59 -18 102 -98q12 98 20 147q2 14 12.5 19t20.5 -2t10 -23q-5 -34 -10 -73t-11 -87t-9 -74q9 -34 9 -70q0 -21 -3 -42q-3 -23 -14 -43q-7 -14 -24 -10.5t-17 18.5q0 6 6 141q-12 52 -40.5 96.5t-66.5 57.5 q-13 4 -26 4q-32 0 -66 -25q-102 -84 -172 -258q-68 -153 -68 -307q0 -307 211 -418q114 -63 284 -63q79 0 171 14q176 26 344 88q-152 -85 -326 -123q-96 -23 -195 -23q-35 0 -70 3q-135 11 -234 68q-234 128 -234 454z" />
<glyph unicode="D" horiz-adv-x="903" d="M-436 809q-6 29 20 45q27 21 92 31q44 9 154 18q61 3 126 3q114 0 238 -10q194 -16 351 -56q187 -48 289 -123q80 -62 98 -137q5 -21 5 -44q0 -59 -36 -122q-43 -70 -137 -160q-81 -75 -326 -250q-269 -178 -340 -225q-154 -100 -344 -215q-14 -8 -35 -21t-30 -18.5 t-23.5 -14.5t-20.5 -12.5t-15.5 -10t-14 -10t-10.5 -8.5t-10 -9l-9 -9q13 21 42.5 45.5t111.5 85.5q30 22 334 234q29 20 150.5 102t185.5 127q207 143 319 248q84 76 125 147q30 54 30 99q0 15 -3 28q-16 58 -80 107q-87 66 -269 114q-156 40 -346 58q-132 12 -250 12 q-52 0 -102 -2q-131 -4 -209 -29q-25 -8 -29 -15.5t1 -27.5q-8 0 -18.5 7t-14.5 18zM205 592q-1 14 10 20t22.5 1t12.5 -19q15 -188 26.5 -316.5t15.5 -163.5l5 -34q2 -14 -8 -21.5t-21.5 -4t-13.5 17.5l-2 14q-1 13 -5 49t-9.5 90t-14 151t-18.5 216z" />
<glyph unicode="E" horiz-adv-x="1224" d="M-98.5 752q-13.5 15 0.5 30q29 25 80 35q97 30 253 56t281 38q333 43 572 43h49q20 0 20 -21.5t-20 -21.5q-284 0 -615 -43q-113 -11 -337 -50t-253 -68q-17 -13 -30.5 2zM93 348.5q0 22.5 20 22.5h1q22 0 183 30v50q1 37 1 74q2 61 3 91l2 29q2 15 13.5 20t21.5 -2 t8 -22q-6 -94 -6 -229q28 6 85 16t87 16q108 21 399 86q14 3 22.5 -6.5t6 -21.5t-17.5 -15q-75 -17 -212.5 -46t-187.5 -40q-30 -6 -90.5 -18t-91.5 -18q11 -212 18 -271q2 -17 3.5 -30.5t2.5 -19t2 -9.5t0.5 -6t-1.5 -4q119 0 311 36q209 43 377 93q71 17 127 36 q13 3 21 -6.5t6 -21.5t-15 -15q-25 -9 -72 -21.5t-55 -14.5q-207 -59 -383 -93q-174 -36 -299 -36q-51 0 -94 6q-106 15 -123 75q-6 14 2.5 23.5t20.5 8t16 -14.5q10 -25 35 -35q18 -8 82 -18q0 5 -6 58.5t-11.5 127t-7.5 145.5q-6 -1 -90 -16.5t-94 -15.5q-20 0 -20 22.5z " />
<glyph unicode="F" horiz-adv-x="1040" d="M-288.5 638.5q-2.5 10.5 7.5 20.5q43 40 250 84q110 24 254 45v3q0 20 19.5 22.5t23.5 -16.5q15 2 42 5.5t49.5 6.5t43.5 6q458 62 770 82q14 0 20 -11t1.5 -22t-18.5 -12q-278 -14 -766 -80q-90 -12 -138 -20q13 -165 17 -232q425 0 682 -16q9 0 14.5 -7t5.5 -16 q-1 -9 -7.5 -14.5t-14.5 -5.5h-2q-258 14 -676 14q19 -254 39 -348q9 -41 20 -71t17 -33q13 -5 -1 -15q-12 -8 -22 -4q-36 15 -61 113q-37 142 -45 358h-47.5t-40 -0.5t-29.5 -1t-20 -0.5h-7q-9 0 -15.5 7t-6.5 16t6.5 15.5t15.5 6.5h7q7 0 19 0.5t28 1t38.5 0.5h46.5 q-3 68 -8 225q-123 -18 -243 -43q-194 -43 -232 -75q-9 -9 -21.5 -4t-15 15.5z" />
<glyph unicode="G" horiz-adv-x="831" d="M-27 -377q66 -74 207 -112q60 -19 115 -25q54 -7 101 -7q75 0 130 19q62 24 84 60q14 23 14 62.5t-14 96.5q-6 26 -25 84t-26 90q-20 76 -20 162v23q-21 -12 -47 -25q-60 -28 -120.5 -44t-118.5 -18h-9q-53 0 -95 21q-46 23 -67 70q-16 35 -16 87q0 45 12 103 q26 116 96 230q104 174 244 278q61 44 112 62q43 14 80 14q30 0 56 -10q62 -23 96 -92q31 -60 31 -123q1 -12 -10.5 -14.5t-16.5 8.5q-13 50 -43 108q-28 54 -74 70q-18 7 -39 7q-29 0 -63 -13q-47 -16 -101 -56q-135 -99 -235 -262q-69 -111 -94 -215q-15 -54 -15 -97 q0 -41 13 -71q17 -41 59 -57q29 -11 64 -11q16 0 33 2q54 8 104 24.5t98 39.5q22 11 72 41q13 104 49 191q32 75 70 110q27 24 54 24q4 0 9 -1q23 -6 39 -31q14 -24 14 -53v-11q0 -56 -43 -118q-50 -72 -143 -133q-3 -32 -3 -64q0 -72 17 -143q8 -33 26.5 -91.5t24.5 -82.5 q14 -59 14 -104q0 -57 -22 -93q-34 -53 -110 -78q-59 -19 -133 -19q-55 0 -119 11q-88 14 -176 57q-98 50 -140 119zM604 174q58 45 94 98q35 47 35 90v7q-4 20 -8 28q-5 10 -10 10.5t-17 -10.5q-32 -29 -57 -94q-28 -74 -37 -129z" />
<glyph unicode="H" horiz-adv-x="1007" d="M-31 365q0 9 6 15.5t15 6.5q22 0 22 -18q0 -23 76 -31q13 -2 29 -2t34.5 1t26.5 1q6 228 6 229q2 72 2 213q0 13 11 19t21.5 1t10.5 -20v-213q-1 -29 -2.5 -77.5t-2.5 -86t-1 -63.5q97 7 221 29q107 13 289 49q-5 357 -6 381q-7 124 -18 135q-9 9 -5.5 20.5t14 15 t22.5 -4.5q24 -24 30 -158q1 -20 6 -381q96 18 240.5 48t218.5 44q-272 -80 -459 -129q2 -40 4 -111t2 -79q12 -159 31 -187q8 -12 1.5 -23t-18 -11.5t-20.5 10.5q-22 32 -31 125.5t-12 267.5q-127 -33 -282 -59q-128 -26 -228 -31q-2 -27 -2 -92q0 -103 12 -150 q6 -47 25 -47q2 0 7.5 3.5t6.5 6.5q12 4 19.5 -5.5t-0.5 -18.5q-16 -20 -39 -17q-24 0 -36.5 18.5t-22.5 49.5q-15 59 -15 160v90q-61 0 -92 2q-65 9 -86 24q-31 16 -31 50z" />
<glyph unicode="I" horiz-adv-x="946" d="M-135 659q-3 21 17.5 37.5t49.5 28.5q116 57 357 106q162 41 430 91q32 5 137 23.5t154 26.5q-129 -28 -285 -69q-350 -88 -428 -110q-271 -79 -346 -111q-36 -14 -43 -25q0 -16 -23 -16q-6 -2 -12.5 3.5t-7.5 14.5zM18 -115q-4 11 2 20t13 11q11 5 24 -8q8 -1 17 -1 q31 0 82 15q126 30 344 98q-8 118 -15 275q-11 291 -28 516q-1 15 10 21.5t22 1t11 -20.5q17 -219 28 -516q3 -64 8.5 -155.5t6.5 -104.5q13 4 48.5 15.5t79 24.5t97.5 27q167 40 252 46q-86 -15 -250 -68l-246 -94q-213 -82 -358 -115q-4 -1 -17 -3t-19 -3t-19 -3t-20.5 -2 t-18.5 -0.5t-18 1t-15 4t-13 7.5t-8 11z" />
<glyph unicode="J" horiz-adv-x="509" d="M-442 -313q-2 16 -2 32q0 44 18 88q24 55 72 97q47 40 100 59q-49 -29 -88 -72q-41 -48 -57 -94q-11 -38 -11 -70q0 -18 4 -34q8 -45 44 -94q63 -74 186 -109q101 -27 199 -27h20q127 4 209 56q71 46 94 119q14 40 14 99q0 22 -2 46q-4 36 -41 240q-38 188 -43 346 q-1 27 -1 53q0 70 6 131q-86 -194 -111 -277q-32 -103 -37 -163q-3 -27 4 -52q4 -22 -16.5 -27t-26.5 15q-5 13 -5 33q0 15 3 33q8 73 43 172q31 93 84 217q39 92 78 176q14 77 37 151q19 62 47 111q29 52 55 52q6 0 12 -3q15 -7 15 -28q-3 -21 -17 -54q-12 -26 -42.5 -91.5 t-57.5 -123.5q-24 -116 -24 -246q0 -38 2 -77q5 -143 45 -340q5 -30 16 -84t17 -92t8 -68q3 -27 3 -53q0 -60 -16 -113q-28 -89 -116 -145q-95 -59 -234 -62h-19q-112 0 -216 33q-140 41 -205 125q-41 54 -47 115z" />
<glyph unicode="K" horiz-adv-x="935" d="M-25 285q-1 7 -1 14q0 50 38 96q40 56 105 74v117q0 133 2 196q0 15 10.5 21t21.5 0t11 -21q4 -63 4 -196v-107q52 0 100 -28q39 -19 68 -45q81 56 151 118q165 141 283 289q80 104 92 166q3 15 15 19.5t21.5 -3t6.5 -22.5q-15 -77 -98 -187q-103 -134 -293 -294 q-74 -62 -150 -111q81 -78 150 -213q105 -169 233 -260q68 -49 158.5 -88.5t177.5 -52.5q97 -18 192 -18t189 18q133 20 279 79q-139 -69 -273 -98q-122 -28 -244 -28q-73 0 -147 10q-196 28 -356 137q-159 110 -248 276q-94 157 -151 209q-26 -20 -62 -39q-8 -5 -29 -18 t-37 -22t-32 -15v-121v-63q8 4 18 14q6 6 9 2q2 -1 1 -4q-6 -19 -16 -35q-11 -16 -31 -8q-3 2 -6 5t-4.5 8t-2.5 9t-2.5 11t-2.5 10q0 26 -2 51q0 56 -4 103q-58 -23 -80 -23q-29 0 -46.5 19t-17.5 49zM14 289q3 -21 14 -27.5t33 -1.5q31 7 58 19q-2 80 -2 145 q-46 -19 -72 -55q-31 -40 -31 -80zM166 297q8 5 35 21t41 26q9 6 26.5 16.5t26.5 16.5q-40 30 -49 35q-42 20 -80 20v-135z" />
<glyph unicode="L" horiz-adv-x="849" d="M2 -37q-5 23 -5 42q0 37 17 63q32 42 92 49q28 6 63 5.5t77 -5.5q34 0 76 -17q37 179 55 461q1 15 18 354q2 13 13.5 18t21.5 -1t8 -21q-3 -193 -14 -352q-21 -308 -62 -467q71 -23 142 -61q24 -13 93 -51.5t119.5 -64t100.5 -44.5q140 -58 280 -58l60 3q74 3 172 30 q-74 -34 -172 -53q-54 -8 -107 -8q-126 0 -249 45q-51 18 -103 43.5t-120.5 63t-96.5 51.5q-75 35 -129 55q-18 -70 -51 -141q-33 -75 -90 -86q-14 -3 -27 -3q-44 0 -92 33q-65 43 -90 117zM45 -25q15 -46 72 -92q48 -31 77 -31q6 0 11 1q40 8 65 63q20 42 43 139 q-57 14 -73 15q-50 5 -90 5q-20 0 -37 -1q-48 -14 -62 -35q-10 -16 -10 -36q0 -13 4 -28z" />
<glyph unicode="M" horiz-adv-x="1142" d="M61 727q12 127 62 168q31 24 55 -2q14 -15 14 -43q0 -21 -8 -49q-21 56 -30 65q-25 -25 -37 -90q-11 -54 -11 -105q0 -91 35 -173q0 226 -10 252q-5 2 -8 8t0 12q2 12 20 12q9 -2 15 -10t9.5 -21t5 -24t3 -26t2.5 -19q1 -32 1 -83t-0.5 -106.5t-0.5 -66.5q45 -61 123 -98 q85 -42 209 -52q34 -3 73 -4q54 0 119 7q-30 138 -30 264q7 246 151 368q63 57 119 71q21 5 42 5q33 0 63 -14q67 -20 122 -82q45 -47 75 -116t32 -147v-9q0 -74 -41 -138q-97 -156 -391 -227q-54 -12 -86 -14q33 -106 80 -195q23 -34 43 -25q21 7 28 -14q3 -16 -10 -24 q-16 -13 -45 -7q-30 10 -53 45q-47 81 -86 213q-79 -7 -140 -7q-39 0 -71 3q-130 7 -221 54q-33 14 -59 30.5t-37.5 26.5t-12.5 10q0 -25 -8 -127q-5 -78 -23 -180q-1 -15 -12 -19t-21.5 3.5t-9.5 21.5q14 42 25 178q9 81 12 168q-45 57 -67 158q-12 52 -12 112q0 30 3 62z M719 543q0 -136 31 -260q14 3 43 7t43 7q115 28 216 79.5t152 127.5q35 56 35 121v7q-2 69 -28 130.5t-68 103.5q-44 47 -109 68q-23 11 -50 11q-16 0 -32 -4q-46 -10 -102 -60q-128 -119 -131 -338z" />
<glyph unicode="N" horiz-adv-x="899" d="M104 702q-4 21 10 30.5t33 -1.5q74 -53 209 -227q70 -90 322 -428q-6 93 -6 180q0 123 12 231q22 219 104 355q96 160 277 248q109 52 238 71q71 10 140 10q57 -1 111 -7q122 -14 228 -58q-135 39 -271 39q-100 0 -202 -21q-125 -26 -222 -77q-173 -85 -262 -228 q-76 -130 -98 -338q-12 -107 -12 -224q0 -65 4 -132q0 -23 4 -69.5t4 -49.5q3 -17 -12.5 -23.5t-26.5 5.5q-45 60 -112.5 151.5t-103 139t-78 103.5t-72.5 93q-95 127 -166 191q10 -99 12 -174q10 -142 26 -566q0 -14 -11.5 -20t-23 -1.5t-12.5 17.5q-2 43 -5.5 168.5 t-7.5 222t-9 174.5q-2 50 -5.5 92t-6.5 63t-6 39t-3 21z" />
<glyph unicode="O" horiz-adv-x="1126" d="M39 252q-8 47 -8 94q0 121 55 240q34 77 90 145t125 111q39 25 83 42q44 16 94 20q9 1 16 1q40 0 71 -18q90 36 177 36q55 0 108 -14q98 -27 166.5 -104.5t91.5 -194.5q8 -50 8 -98q0 -128 -59 -233q-52 -95 -151.5 -173t-209.5 -118q-96 -38 -198 -48q-31 -3 -62 -2 q-71 0 -139 15q-106 27 -172.5 105.5t-85.5 193.5zM88 260q36 -206 221 -258q63 -17 131 -16q113 0 242 45q104 40 196.5 111.5t137.5 158.5q37 63 50 143q6 38 6 77q0 41 -7 81q-20 100 -81 168t-146 92q-45 13 -94 13q-69 0 -146 -25q14 -21 14 -49q0 -21 -8 -45 q-13 68 -33 86q-50 -16 -92 -41q-155 -82 -231 -215q-68 -122 -68 -242q0 -109 70 -170q-73 52 -84 170q-1 11 -1 22q0 115 58 236q39 72 100.5 132.5t133.5 101.5q11 7 53 26h-12q-76 0 -172 -57q-125 -86 -197 -240q-47 -106 -47 -221q0 -41 6 -84z" />
<glyph unicode="P" horiz-adv-x="737" d="M-360 651q-2 6 -2 12q0 32 45 64q94 65 329 121q272 63 507 63h40q158 0 242 -43q70 -31 73 -92q1 -6 0 -12q0 -56 -57 -125q-113 -138 -422 -320q4 -65 17 -202q10 -101 18 -105q7 -12 1 -23t-16.5 -11.5t-19.5 10.5q-13 4 -26 112q-13 115 -17 195q-51 -31 -159 -90 q-9 -4 -17 2.5t-8 15t10 13.5q28 19 88 53t84 49q-4 68 -4 174q5 107 23 129q8 11 19 10t18 -12t0 -23q-11 -14 -13 -104q-2 -17 -2 -39.5t1 -54.5t1 -53q288 179 389 301q49 58 49 97v7q0 35 -49 59q-77 39 -223 39q-30 1 -61 1q-226 0 -480 -58q-191 -41 -286 -96 q-51 -30 -52 -53q0 -20 -4 -24q-10 -8 -22 -4.5t-14 17.5z" />
<glyph unicode="Q" horiz-adv-x="1026" d="M37 383q3 177 104 336q85 144 228 192q32 11 58 13t41.5 -3.5t26 -13t15.5 -13.5l6 -7q27 4 53 4q96 0 183 -53q106 -64 166 -168q67 -112 67 -234q-3 -118 -82 -225q-60 -77 -160 -131q31 -86 90.5 -184t118.5 -146q-96 47 -151.5 119t-98.5 188q-101 -49 -208 -69 q-70 -16 -129 -16t-107 16q-118 38 -182 159q-40 84 -40 200q0 18 1 36zM74 381q-1 -17 -1 -34q0 -104 38 -181q51 -111 155 -141q47 -16 109 -16q51 0 112 11q100 20 203 72q-22 79 -33 154q-39 -39 -55 -47q10 15 21 37q23 58 24 59q12 14 27.5 10.5t19.5 -20.5 q1 -3 2 -10t4 -22.5t7 -35.5q9 -52 24 -100q95 57 141 119q70 92 70 200t-61 209q-57 94 -154 156q-79 48 -170 48q-14 0 -29 -1q0 -31 -21 -33q-16 -2 -21 13q-2 5 -1 10q-80 -16 -163 -82q-83 -74 -123 -183q-31 -85 -31 -165q0 -92 43 -166q-48 71 -57 166q-1 20 -1 39 q0 73 21 133q38 119 127 202q76 72 162 92q-15 7 -34 7q-39 0 -97 -31q-82 -41 -158 -154q-90 -135 -100 -315z" />
<glyph unicode="R" horiz-adv-x="1193" d="M-74 633q-24 30 -24 62q0 33 26 69q52 60 213 115q195 62 457 73q63 4 119 4q108 0 192 -14q108 -18 154 -51q35 -23 41 -57q1 -7 1 -14q0 -27 -18 -56q-36 -59 -151 -135q-17 -11 -39 -24t-49.5 -28.5t-42.5 -23.5q-154 -79 -252 -121q72 0 154 -20q116 -44 208 -136 q55 -57 150 -190q49 -73 69.5 -102.5t66 -81t91.5 -84.5q81 -65 209 -92q75 -17 154 -17q40 0 80 4q64 7 120 19q-67 -21 -116 -31q-68 -10 -132 -10q-57 0 -112 8q-129 21 -223 88q-49 34 -96.5 83.5t-75.5 85.5t-74 101q-94 136 -147 185q-81 81 -191 120q-59 21 -132 21 q-44 0 -93 -8q0 -79 -6 -158q-1 -38 -2.5 -89.5t-2.5 -84.5t-1 -35q3 0 10.5 2.5t13.5 3.5q-2 -14 -20 -32q-13 -13 -28.5 -8t-18.5 26q0 2 1 49.5t2 100t1 67.5q1 25 4 76.5t4 75.5q-44 -11 -110.5 -38t-69.5 -28q-19 -6 -27.5 13t10.5 28q95 52 201 74q3 73 15 88 q10 12 28 4q2 -1 4 -2.5t3 -4t1.5 -5t0 -7t-0.5 -8t-1 -9.5t-1.5 -11t-1.5 -13t-2 -14q45 17 111 49q178 80 335 181q101 68 136 120q11 19 11 35q0 23 -22 39q-44 32 -137 45q-64 11 -159 11q-64 0 -142 -5q-266 -23 -446 -80q-146 -46 -191 -98q-18 -18 -18 -41 q0 -18 12 -39q8 -12 21 -27t30 -33t21 -22q-66 16 -105 62z" />
<glyph unicode="S" horiz-adv-x="1359" d="M37 57q4 31 23.5 58t45.5 39l-9 -26q-9 -25 -13 -41.5t-4 -31.5q0 -44 37 -78q59 -47 190 -73q95 -16 176 -16q20 0 39 1q173 3 316 45q166 51 282 146q126 105 129 215q0 74 -55 129q-67 67 -184 88q-94 25 -236 25q-86 0 -190 -9q-90 -10 -192 -31t-107 -22 q-35 -4 -43 19q0 17 16 30q17 19 363 250q116 76 162 102t85 33q7 1 14 0q36 0 54 -18q15 -16 9.5 -20.5t-20 -6t-14.5 -2.5q-14 6 -37 0q-31 -4 -75 -28.5t-154 -96.5q-13 -9 -133 -89t-166 -113q118 27 232 36q112 12 207 11q136 0 237 -23q131 -32 203 -104 q67 -67 67 -150v-14q-3 -132 -141 -246q-114 -98 -297 -156q-144 -46 -332 -53q-124 0 -221 19q-146 32 -213 90q-52 48 -52 98q0 7 1 14z" />
<glyph unicode="T" horiz-adv-x="571" d="M-698 848q-6 19 -6 39q0 33 15 69q24 58 81 101q113 86 278 86h11q140 -8 282 -96q165 -98 260 -265q251 28 578 84q114 18 323.5 48.5t253.5 37.5q302 44 578 74q-76 -16 -574 -102q-244 -42 -575 -95q-69 -9 -242 -35.5t-280 -41.5q-1 -2 -2 -7t-3 -25t-1 -44 q69 -171 79 -385q3 -45 3 -92q0 -79 -9 -166q-2 -18 -2 -37q0 -13 -11.5 -17.5t-23.5 3.5q-15 13 -26 55q-30 100 -41 338l-15 315q-9 25 -28 53q-228 -28 -412 -34q-38 -1 -73 -1q-139 0 -222 13q-169 34 -196 127zM-657 860q20 -66 161 -96q97 -16 210 -16q38 0 77 2 q181 3 395 26q-88 147 -241 240q-136 83 -269 86h-18q-58 0 -118 -16q-68 -20 -122 -60q-51 -40 -68 -86q-11 -29 -11 -53q0 -14 4 -27zM283 555q1 -28 4 -88t4 -90q9 -195 31 -295q5 60 5 132q0 36 -1 75q-6 139 -43 266z" />
<glyph unicode="U" horiz-adv-x="1062" d="M63 236q-1 25 -1 51q0 240 57 653q3 13 14.5 17.5t22 -2t10.5 -21.5q-57 -383 -57 -616q0 -42 2 -78q0 -71 10.5 -120.5t44.5 -88.5q52 -62 136 -62q27 0 56 6q88 17 183.5 78t173.5 137q-3 48 -3 101q0 93 9 203q23 193 53 292q20 82 49 111q15 13 33 13t31 -13 q29 -29 49 -152q7 -53 7 -105q0 -132 -46 -253q-46 -119 -133 -209q10 -120 31 -170q27 -65 92 -74q19 -3 42 -3q42 0 99 10q27 6 77.5 22t61.5 19q-54 -33 -133 -66q-70 -21 -123 -21q-14 0 -26 1q-89 9 -129 94q-24 43 -37 145q-191 -171 -354 -203q-36 -7 -68 -7 q-104 0 -166 77q-37 46 -50.5 101t-17.5 133zM762 242q67 84 94 164q44 114 44 235q0 49 -7 98q-22 108 -37 123q-23 -18 -37 -88q-27 -92 -49 -287q-9 -122 -9 -199q0 -25 1 -46z" />
<glyph unicode="V" horiz-adv-x="794" d="M61 658.5q-2 12.5 6 21.5t21 4q36 -7 74 -70q55 -87 164 -319q28 -63 62.5 -149t53.5 -128.5t33 -58.5q3 6 31 102q50 191 139 424q74 181 156 322q80 132 164 219q93 103 215 166q90 41 174 49q25 3 53 3q59 0 129 -13q87 -21 166 -62q-104 34 -170 43q-41 5 -81 5 q-48 0 -93 -7q-90 -16 -160 -55q-114 -60 -201 -164q-78 -84 -153 -209q-78 -128 -154 -315q-60 -147 -141 -418q-7 -23 -14.5 -49t-10.5 -36.5t-7.5 -21t-10.5 -16.5q-9 -16 -30 -14.5t-40 27.5q-15 22 -34.5 65.5t-53 124.5t-63.5 147q-6 12 -43.5 92.5t-64.5 132 t-52 89.5q-33 49 -49 51q-13 5 -15 17.5z" />
<glyph unicode="W" horiz-adv-x="1062" d="M22.5 710.5q1.5 12.5 11.5 17t23 -2.5q57 -40 129 -172q116 -210 220 -541q48 83 57 105q31 57 72 143l75 170q9 19 25.5 16.5t21.5 -20.5q0 -17 33 -129q9 -28 28 -81.5t25 -72.5q21 -54 45 -104q3 14 7 58.5t6 62.5q11 89 37 246q28 129 80 235q74 165 194 270 q68 62 137 97q147 77 318 92q42 2 83 2l83 -2q-70 0 -164 -17q-174 -23 -303 -100q-73 -45 -127 -96q-112 -107 -178 -264q-46 -97 -76 -228q-29 -128 -37 -241q-4 -28 -8 -60.5t-6 -51t-5 -30.5q-7 -32 -26.5 -36t-32.5 14q-34 39 -68 139q-37 96 -75 229 q-8 -19 -26.5 -57.5t-27.5 -58.5q-9 -18 -32 -66.5t-42 -87.5t-36 -68q-36 -54 -43 -61q-12 -12 -22.5 -14t-16 2.5t-6.5 11.5q-1 6 -17 53q-95 316 -208 523q-62 113 -117 155q-12 8 -10.5 20.5z" />
<glyph unicode="X" horiz-adv-x="761" d="M61 731q0 30 13 39q25 14 39 -25q3 -12 18 -57t25 -80q36 -106 91.5 -238.5t98.5 -203.5q135 230 305 463q130 176 215 274q14 15 30 1.5t3 -30.5q-27 -31 -57 -68t-51 -64t-55 -71t-52 -67q-203 -295 -313 -479q85 -121 157 -178q76 -64 135 -95t124 -35q11 -1 22 -1 l108 16q65 20 160 66q-118 -68 -201 -90q-39 -10 -80 -10q-44 0 -92 13q-90 24 -200 105q-69 54 -158 164q-134 -231 -205 -361q-6 -12 -18.5 -11t-18.5 11t0 23q153 278 211 377q-50 76 -107.5 215.5t-94.5 257.5q-24 74 -33 115q-19 0 -19 24z" />
<glyph unicode="Y" horiz-adv-x="911" d="M-213 -264q5 34 33 65q12 16 53 43q-34 -30 -47 -49q-23 -35 -23 -61q0 -32 19 -60q41 -61 160 -118q130 -60 262 -84q112 -22 196 -22q40 0 74 5q77 12 113 45q35 32 43 113q1 14 1 30q0 82 -24 242q-24 177 -29 250q-85 -66 -159 -94q-45 -15 -83 -15t-69 15 q-61 24 -108 102q-68 115 -72 351q0 103 16 280q1 14 12 19t21.5 -1t9.5 -20q-12 -175 -12 -257v-21q0 -221 64 -328q36 -66 86 -88q26 -12 58 -12q30 0 64 10q68 22 168 106q-5 79 -5 143q0 27 1 52q3 119 11 211q12 98 24 141q24 95 66 137q24 24 49 19q24 -3 45 -27 q7 -7 20 -33q41 -70 56 -174q6 -49 6 -88q0 -32 -4 -57q-10 -65 -52 -137q-60 -106 -165 -197q6 -92 32 -281q22 -157 22 -246q0 -20 -1 -36q-11 -98 -57 -144q-46 -41 -142 -57q-33 -4 -70 -4q-95 0 -217 25q-137 28 -266 94q-124 67 -164 139q-16 31 -16 64v10zM662 227 q82 79 131 164q37 63 45 121q4 27 4 56q0 37 -6 77q-16 95 -52 158q-5 13 -16 24q-12 17 -25 4q-29 -29 -51 -114q-14 -52 -22 -133q-8 -96 -8 -209q-2 -39 -2 -76t2 -72z" />
<glyph unicode="Z" horiz-adv-x="1130" d="M37 -16q52 90 85.5 141t98.5 133q108 133 223 242q190 180 385 301q-23 5 -81 14.5t-89 15.5q-191 33 -217 35q-49 4 -90 4q-75 0 -123 -14q-58 -21 -79 -55q-13 -19 -30.5 -7t-6.5 31q35 52 102 74q58 19 135 19q46 0 99 -7q87 -6 246.5 -35t213.5 -32q37 16 56 18 q42 10 55 -14q4 -8 4 -16q0 -21 -33 -31q-20 -8 -69 -8q-62 -31 -191 -123q-127 -93 -250 -207q-119 -119 -217 -240q-50 -57 -117 -153q31 11 77 11q37 0 83 -7q33 -8 70.5 -20t97 -32.5t92.5 -31.5q137 -43 262 -68q222 -44 506 -43q140 0 295 10q140 9 271 27 q137 18 270 41q-98 -28 -266 -59q-226 -35 -269 -39q-195 -23 -367 -23h-40q-228 7 -410 43q-108 21 -266 66q-33 10 -96 30t-91.5 28.5t-67 17.5t-65.5 10h-5q-44 0 -78 -17q-36 -18 -74 -61q-14 -15 -32.5 -2t-6.5 33z" />
<glyph unicode="[" horiz-adv-x="460" d="M49 745q0 21 14 25q5 0 30.5 5t73.5 20t91 34q100 44 174 101q7 6 14.5 3t8 -10t-5.5 -12q-69 -59 -177 -116q-103 -47 -178 -64q23 -163 25 -373q5 -148 -6 -370q46 -10 194 -54q79 -20 211 -63q8 -2 10 -9.5t-3 -13t-13 -2.5q-61 17 -211 56q-25 6 -80 18.5t-80 18.5 q-9 1 -27.5 4t-27.5 4q-16 6 -16 22q0 3 1.5 40t3 85.5t2.5 120t-1 143.5q-3 182 -21 338q-1 4 -6 49z" />
<glyph unicode="\" horiz-adv-x="579" d="M-29 807q-6 12 1 22t20 10t20 -14q91 -170 285 -460l301 -433q18 -28 -8 -41q-19 0 -29 17q-2 2 -48 67t-120.5 173.5t-132.5 195.5q-212 318 -289 463z" />
<glyph unicode="]" horiz-adv-x="497" d="M-12.5 899q0.5 7 7 10t13.5 0q99 -67 182 -98q94 -39 222 -49q27 -4 30 -4q7 -2 12.5 -9.5t2.5 -17.5q0 -6 -6 -24q-35 -134 -39 -336q-6 -71 -6.5 -179.5t8.5 -179.5q0 -6 2 -10.5t2 -5.5q3 -17 -17 -27q-2 -4 -26 -12q-115 -50 -185 -96q-90 -56 -170 -119 q-7 -5 -14 -1t-8 10t4 11q91 81 170 129q109 75 199 109q-12 53 -13 187.5t4 187.5q10 215 50 344q-130 9 -238 61q-63 27 -180 107q-7 5 -6.5 12z" />
<glyph unicode="^" horiz-adv-x="436" d="M39 362q-7 11 0 25q45 74 81.5 163.5t49.5 141.5l14 53q1 17 18 18.5t21 -13.5q6 -13 19 -46t18.5 -45.5t17 -40t17 -40t15.5 -35t16 -34.5l15 -30t16 -30t15.5 -25.5t16.5 -24.5t2.5 -22t-16.5 -12t-19 10q-71 101 -147 297q-57 -184 -133 -310q-8 -11 -19 -11t-18 11z " />
<glyph unicode="_" horiz-adv-x="880" d="M88 -137q5 19 41 24q75 11 307 11h346q16 0 17 -14q0 -14 -13 -15q-58 -3 -174.5 -6t-175.5 -6q-269 -9 -305 -15q-3 -14 -25 -10q-13 3 -18 12.5t0 18.5z" />
<glyph unicode="`" horiz-adv-x="301" d="M55 733q12 17 31 7q1 0 2 -1q140 -98 154 -110q7 -9 1.5 -17.5t-16.5 -3.5q-10 2 -77 40t-89 59q-16 10 -6 26z" />
<glyph unicode="a" horiz-adv-x="528" d="M39 117q30 59 115 123q32 28 72 48q38 19 68 19h3q21 -4 32 -19t9 -34q-6 -29 -19 -33q-12 -12 -22.5 -1t-1.5 22q0 2 1 8t1 8q0 4 -6.5 4t-16 -2t-10.5 -2q-24 -10 -84 -53q-81 -66 -100 -105q-9 -30 0 -43q4 -6 39 -6q38 11 96 37q66 38 100 78q5 15 25 45q15 23 37 41 q9 6 19.5 5t15.5 -9q14 -11 2 -27q-17 -36 -49 -61q-12 -25 -13 -51t6 -33q21 -37 103 -37q14 -1 29 -1q67 0 161 11q-129 -35 -190 -37q-14 -1 -27 -1q-76 0 -106 40q-21 28 -21 60q-47 -37 -78 -54q-51 -30 -100 -43q-16 -3 -30 -3q-34 0 -50 20q-17 15 -17 44q0 18 7 42z " />
<glyph unicode="b" horiz-adv-x="491" d="M-12 45q-9 14 4 24.5t22 -6.5q3 -3 15 -6.5t14 -5.5q17 -4 41 -3q36 0 88 7q95 14 168 58q63 35 80 65q7 13 4 21q-10 17 -41 37q-47 25 -97 25q-10 0 -20 -1q-43 -3 -73 -27q-17 -17 -21 -49q-2 -6 -5.5 -33.5t-6.5 -37.5q-9 -19 -19 -21q-27 -7 -37 27q-4 18 -4 71 q-4 72 -4 143q0 136 15 269q1 13 13 16.5t22.5 -3t7.5 -19.5q-12 -107 -11 -279v-77q14 19 23 24q33 36 100 43h13q72 0 129 -31q5 -4 18.5 -14.5t22.5 -19.5t14 -19q9 -14 9 -29q0 -17 -11 -34q-32 -51 -103 -86q-92 -50 -184 -62q-50 -6 -86 -6t-57 6q-33 11 -43 33z" />
<glyph unicode="c" horiz-adv-x="368" d="M31 100q-1 5 -1 10q0 31 21 80q44 86 121 125q26 21 56 21q10 0 20 -2q22 -6 43 -27q5 -9 -2.5 -17.5t-16.5 -4.5q-1 0 -4 1t-8 2.5t-8 2.5q-18 3 -59 -12q-64 -35 -101 -107q-16 -29 -16 -68q0 -18 16 -34q15 -13 62 -25q45 -6 155 -6q49 0 219 9q-37 -6 -107.5 -18 t-107.5 -18q-74 -6 -120 -6q-28 0 -46 2q-56 7 -86 31q-27 27 -30 61z" />
<glyph unicode="d" horiz-adv-x="595" d="M12 63q0 37 34.5 80.5t76.5 77.5q74 50 119 64q21 7 39 7q21 0 40.5 -9t11 -29.5t-29.5 -11.5q-17 14 -45 0q-44 -9 -108 -56q-99 -80 -99 -123q0 -14 41 -14q28 0 80 10.5t100 28.5q12 6 38.5 18.5t39.5 18.5q-9 41 -9 83q0 25 3 50q13 101 68 191q26 57 69 79 q17 8 32 8q22 0 40 -18q19 -19 25 -54q4 -20 4 -39q0 -15 -2 -30q-8 -94 -80 -186q-36 -50 -101 -92q11 -43 31 -56q22 -18 82 -18q11 -1 29 -1q53 0 166 7q-117 -36 -195 -41q-11 -1 -22 -1q-54 0 -84 18q-33 26 -48 63q-40 -24 -73 -33q-53 -21 -109 -34t-84 -13 q-36 -2 -59.5 11.5t-20.5 43.5zM389 254q-1 -18 -1 -34q0 -38 5 -66q46 37 82 79q65 81 68 166q3 24 -2 51t-17 37q-14 10 -24 5q-23 -13 -51 -66q-44 -77 -60 -172z" />
<glyph unicode="e" horiz-adv-x="387" d="M27 70q0 28 18 84q24 55 66 100q24 28 59 48.5t66 23.5h6q49 0 59 -47q6 -26 -5 -60t-30 -59q-54 -71 -123 -103q-18 -9 -39 -18q31 -6 105 -5q22 0 46.5 0.5t54.5 2t46 2.5q25 2 74 5t74 5q-123 -26 -146 -29q-114 -19 -149 -20q-30 -2 -55 -2q-75 0 -105 22 q-22 16 -22 50zM74 57q7 4 26.5 13.5t28.5 15.5q57 26 100 94q14 20 23.5 46.5t5.5 43.5q0 5 -5 8.5t-13 0.5q-17 -2 -44.5 -17t-52.5 -41q-38 -47 -55 -86q-15 -43 -15 -68q0 -5 1 -10z" />
<glyph unicode="f" horiz-adv-x="374" d="M14 -152q4 100 31 275q-9 21 -6 49q9 30 24 39q12 64 29 121q22 90 49 137q23 35 49 12q11 -9 7 -24t-19 -15q-26 -48 -43 -123q-5 -15 -14.5 -51.5t-14.5 -52.5q65 -15 111 -61q42 -37 80 -115q21 -1 43 -1q52 0 109 5q-76 -21 -140 -29q45 -88 60 -153q18 -60 18 -123 q0 -60 -16 -123q-22 -85 -86 -143q-49 -47 -100 -47q-14 0 -29 4q-43 11 -74 57q-37 48 -51 117q-18 76 -18 197q0 23 1 48zM57 -154q-1 -21 -1 -40q0 -113 20 -193q9 -50 41 -102q20 -30 51 -39q14 -5 28 -5q33 0 64 29q49 44 78 129q15 54 15 108q0 61 -19 122 q-15 76 -62 159q-10 -1 -20 -1q-47 0 -86 12q-43 11 -84 43q-19 -115 -25 -222zM88 123q39 -43 90 -60q38 -12 80 -18q-26 45 -65 84q-47 44 -93 51q-3 -27 -12 -57z" />
<glyph unicode="g" horiz-adv-x="411" d="M-109 -367q-1 13 12.5 16t16.5 -9q12 -39 27 -62q59 -79 172 -86q47 0 96 19q40 24 70 65q39 49 49 123q6 33 6 104q-5 76 -8 107q-10 82 -10 164q-45 -41 -99 -60q-37 -10 -71 -10q-15 0 -29 2q-53 4 -74 31q-19 19 -16 51q5 42 47 105q65 96 149 133q52 18 74 18h4 q33 -10 33 -41q-2 -23 -25 -45q-9 -8 -18 0.5t-2 17.5q6 18 6 25q-26 0 -53 -18q-78 -40 -131 -115q-40 -45 -43 -86q-8 -15 2 -25q12 -14 49 -14q5 -1 11 -1q26 0 75 15q36 12 69 39.5t48 57.5q6 21 6 49q4 19 23.5 19t23.5 -17q2 -10 2 -20q0 -22 -12 -44q-2 -29 -2 -86 q0 -74 6 -141q2 -19 5.5 -42t5 -37t1.5 -30q0 -75 -10 -112q-10 -85 -55 -142q-38 -53 -93 -77q-52 -22 -96 -22q-8 0 -16 1q-58 1 -113 31t-84 76q-24 50 -29 73z" />
<glyph unicode="h" horiz-adv-x="542" d="M49 223q0 49 3.5 145t4.5 119q3 57 8.5 133t8.5 125q1 14 12 18.5t21.5 -2.5t10.5 -22q-16 -233 -18 -258q-4 -48 -7.5 -145t-4.5 -115q0 -129 12 -147q6 1 47 32q59 56 105 134l27 67q9 20 29 16t20 -26q0 -101 16 -172q3 -33 27 -57q21 -33 84 -37q10 -1 25 -1 q39 0 112 9q11 0 23 1t26 2.5t23 1.5q-61 -16 -68 -17q-98 -25 -141 -27q-72 0 -115 43q-27 30 -39 74q-4 12 -7 26t-6 33t-5 29q-29 -57 -105 -129q-6 -5 -15.5 -14t-14.5 -13.5t-12 -9t-13 -6.5q-11 -3 -20 -3q-34 0 -48 40q-7 22 -7 91q0 27 1 62z" />
<glyph unicode="i" horiz-adv-x="229" d="M68 229q0 21 20 26q19 4 24 -12q1 -3 1 -7q-2 -39 -2 -71q0 -69 8 -102q10 -20 22 -26q6 -6 34 -6q16 0 40 2q30 6 64 6q-13 -9 -62 -27q-49 -14 -78 -14q-12 0 -20 2q-12 3 -20.5 11t-12.5 16t-10 24q-8 37 -8 178zM127.5 442.5q-0.5 6.5 0 10t0.5 7.5l1 3q1 9 11 13.5 t20 2.5q21 -7 18 -28l-6 -13q-2 -6 3 -13.5t-1 -12.5q-9 -15 -24 -6q-12 9 -21 24q-1 6 -1.5 12.5z" />
<glyph unicode="j" horiz-adv-x="276" d="M-324 -412q-3 9 1.5 15.5t12 6.5t11.5 -9q3 -6 12 -14t11 -11q35 -35 94 -53q77 -25 151 -25q94 8 144 31q37 16 59 41q7 7 12 16.5t6.5 15t3.5 16.5t3 13q4 20 4 48q0 42 -8 102q-8 57 -32.5 162.5t-31.5 144.5q-6 38 -6 78q-1 10 -1 24q0 24 3 62q2 13 14 16t22 -4.5 t7 -21.5q-2 -25 -2 -74q0 -41 8 -74q7 -51 29.5 -158.5t29.5 -150.5q8 -55 8 -98q0 -35 -5 -62q-11 -54 -37 -80q-29 -37 -70 -49q-61 -31 -160 -31q-91 0 -159 25q-74 25 -105 64q-24 24 -29 34zM160 438q-15 20 6 33q18 12 29 0q3 -3 4 -8q0 -4 10 -14q10 -12 1 -24 t-20 -7q-27 10 -30 20z" />
<glyph unicode="k" horiz-adv-x="473" d="M43 154q0 138 14 303q13 119 31 159q6 12 18.5 13.5t20.5 -6.5t2 -21q-8 -16 -16.5 -69.5t-8.5 -75.5q-16 -162 -16 -298v-42q155 117 268 205q12 8 24 3t13 -15.5t-10 -20.5q-196 -146 -260 -191q17 -10 76 -28q74 -24 157 -31q42 -4 83 -4q78 0 147 16 q-89 -51 -236 -51q-75 3 -170 27q-22 5 -44 12.5t-33 12.5l-11 5q1 -10 12 -32q3 -14 -12 -25q-19 -8 -35 14q-14 29 -14 140z" />
<glyph unicode="l" horiz-adv-x="184" d="M49 328q0 174 21 311q4 20 25.5 16t21.5 -26q-11 -46 -17 -142.5t-6 -164.5q-2 -63 -2 -112q0 -98 8 -140q5 -19 9.5 -24t25.5 -9q22 -4 39.5 -3.5t30.5 3.5q5 0 102 8q-103 -43 -147 -45q-14 -2 -26 -2q-26 0 -46 10q-19 16 -31 55q-12 64 -12 155q0 51 4 110z" />
<glyph unicode="m" horiz-adv-x="688" d="M39 61q0 142 4 273q0 14 11.5 19.5t22.5 -0.5t11 -21q-1 -32 -3.5 -124.5t-2.5 -139.5q10 17 35 79q24 75 26 107q9 37 11 41q5 16 18 20.5t31 -6.5q6 -5 24 -26q25 -34 60 -102.5t51 -110.5q69 55 129 166q0 1 10 21.5t27 49.5q9 15 26 11t17 -23q-2 -13 -2 -29 q0 -34 8 -80q24 -97 76 -135q32 -20 71 -20q13 0 27 2q32 7 66 16q-3 -2 -62 -35q-31 -10 -58 -10q-35 0 -65 16q-56 24 -80 99q-14 34 -24 102q-5 -8 -23 -34t-26 -40q-67 -99 -109 -122q-33 -11 -39 8q-80 176 -117 225q-6 -41 -30 -127q-22 -56 -35 -80 q-12 -25 -25 -40.5t-30 -14.5q-31 4 -31 65z" />
<glyph unicode="n" horiz-adv-x="516" d="M70 264q-3 15 6.5 23t21.5 5t15 -16q7 -42 12 -122v-50q41 59 78 101q30 42 86 86q39 31 55 37q20 9 31 -2.5t0 -30.5q-11 -24 -19 -55q-11 -44 -11 -78q0 -42 17 -70q32 -49 132 -49q7 -2 27 -2q17 -1 43 1q58 2 65 2q-67 -24 -131 -32q-71 0 -109 13q-45 14 -67 56 q-20 38 -19 88v9q0 42 16 92q-49 -39 -90 -90q-40 -54 -82 -117l-28 -38q-9 -14 -24 -9.5t-15 21.5v117q0 58 -10 110z" />
<glyph unicode="o" horiz-adv-x="337" d="M25 125q8 74 73 139q21 21 39 33q12 7 22 2t13 -16q19 11 45 0q38 -15 66 -50q32 -41 32 -77q1 -7 1 -14q0 -45 -44 -87q-56 -50 -125 -50q-11 0 -22 1q-52 3 -76 37q-25 22 -25 63q0 9 1 19zM70 119q-3 -28 12 -51q13 -22 47 -29q26 -2 59 9.5t58 33.5q27 27 27 60 q0 6 -1 12q-3 26 -24 51q-13 26 -43 37q-6 4 -15 4q0 -3 -4 -7.5t-10.5 -7.5t-15.5 2q-12 11 -13 19q-7 -7 -15 -16t-17.5 -20t-14.5 -17q-25 -41 -30 -80z" />
<glyph unicode="p" horiz-adv-x="512" d="M43 117q0 110 2 141q2 9 6 15t7 8l3 2q14 6 25 -6t2 -25v-133q0 -23 2.5 -71.5t3.5 -78.5q6 1 20.5 4t20.5 4q10 82 27 154q19 94 47 141q27 47 57 62q22 9 44 9t42 -9q36 -13 66.5 -42.5t48.5 -64.5q16 -33 16 -64q0 -11 -2 -22q-11 -57 -75 -92q-36 -25 -84 -47 q-47 -17 -156 -49q0 -3 -4 -46.5t-8 -66.5q-3 -42 -5.5 -69.5t-4 -35t-2 -17t-1.5 -23.5q-1 -6 -4 -26t-6 -29q-10 -32 -31 -39q-1 1 -7 -0.5t-13.5 5t-9.5 21.5q0 3 -2.5 25.5t-4.5 30.5q-1 25 -4 73.5t-4 71.5q0 10 -4 120.5t-8 168.5zM94 -59q2 -12 3 -31t1.5 -43.5 t1.5 -36.5q0 -13 6 -106q9 61 13 122q9 66 12 101q-36 -6 -37 -6zM172 -12q96 30 135 49q38 14 76 39q47 37 55 74q5 24 -12 55q-32 66 -88 90q-30 11 -55 0q-16 -5 -43 -37q-8 -13 -15.5 -32t-11.5 -31.5t-11 -38t-9 -31.5q-10 -52 -21 -137z" />
<glyph unicode="q" horiz-adv-x="503" d="M39 61q-7 16 -7 35q0 24 11 51q15 54 74 113q33 41 69 68q32 29 72 37q19 7 37 7l45 -10q31 -12 61 -47q6 -6 4.5 -13t-7 -9t-11.5 2q-15 7 -31.5 19.5t-27.5 17.5q-24 7 -58 -4q-23 -6 -59 -33q-23 -17 -64 -62q-51 -59 -65 -102q-9 -28 -6 -55q6 -21 41 -33q7 -1 16 -1 q22 0 51 9q65 13 125 49q1 5 25 86q12 32 31 43q14 14 34 7q15 -8 25 -27q3 -10 3 -19q0 -33 -32 -67q-19 -25 -43 -37q-10 -52 -20 -133q71 -23 119 -68q54 -38 79 -82q43 -61 43 -105v-9q-3 -75 -79 -101q-28 -8 -52 -8q-40 0 -71 21q-33 23 -52 63q-33 61 -36 152 q0 79 2 116q-2 0 -19.5 3.5t-25.5 3.5q-12 2 -35 2q-20 -5 -21 -9q-5 -14 -18 -5q-10 6 -6 18q3 12 20 18q21 10 60 6q33 0 49 -6q3 44 12 92q-33 -15 -108 -41q-9 -1 -25 -3t-29 -3t-26 0q-58 7 -74 53zM326 -184q0 -79 26 -135q20 -36 41 -50q22 -17 47.5 -17t53.5 17 q34 26 34 62v7q0 36 -30 81q-22 36 -68 78q-45 36 -102 61q-2 -35 -2 -104zM369 147q18 26 14 39q-11 -23 -14 -39z" />
<glyph unicode="r" horiz-adv-x="356" d="M43 223q-2 15 8 22t21.5 2t13.5 -20q4 -53 14 -127q11 -33 13 -49q6 15 28 90q20 71 56 119q50 69 116 80q18 3 35 3q29 0 58 -9q10 -4 7 -15.5t-14 -11.5q-15 1 -29 1q-27 0 -48 -5q-48 -10 -89 -67q-31 -38 -53 -107q-14 -59 -20 -84q-12 -28 -31 -39q-24 -12 -41 2 q-15 12 -31 86q-11 90 -14 129z" />
<glyph unicode="s" horiz-adv-x="399" d="M37 172q-4 8 -4 18q0 20 18 43q23 26 68 58q79 49 151 84q35 14 56 14q8 0 14 -3q9 -3 13 -12t-1 -16q-2 -4 -5 -5.5t-7.5 -2t-18.5 -4.5t-32 -12q-71 -30 -142 -82q-66 -42 -71 -62q16 -16 129 -16q99 -4 117 -8q28 -10 28 -35q0 -19 -24 -43q-37 -37 -97 -68 q-18 -16 -67 -32q-14 -3 -23.5 3.5t-9.5 16.5q0 11 8.5 21.5t18.5 15.5q8 3 15 0t7 -12q6 3 16.5 9t16.5 9q76 55 90 74q-18 4 -98 4q-86 0 -117 8q-36 6 -49 35z" />
<glyph unicode="t" horiz-adv-x="387" d="M2 319q0 9 7 17t16 8q8 1 12.5 -3t7 -10.5t4.5 -8.5q8 -15 45 -25q25 -6 72 -6q0 2 -1 95v69q1 47 1 82q2 58 6 92q1 14 12 19t21.5 -1t9.5 -18q0 -4 -1 -16t-2.5 -34.5t-2.5 -56.5q-1 -22 0 -56q-1 -16 -1 -36q0 -60 3 -135q91 7 246 37q-107 -61 -246 -80 q3 -74 6 -122.5t5 -66.5t1 -26q-4 -30 -18 -35q-9 -2 -17.5 2.5t-9.5 13.5q-8 11 2 21q-8 141 -12 209q-16 -1 -30 -1q-28 0 -50 5q-48 11 -63 31q-14 9 -23 36z" />
<glyph unicode="u" horiz-adv-x="561" d="M33 143q0 59 10 172q1 15 12 19.5t21.5 -2t9.5 -19.5q-1 -23 -5.5 -81.5t-4.5 -84.5q7 -69 24 -84q18 -18 41 -18q57 0 138 68q20 17 53 55q0 38 14 78q4 14 18 15.5t23 -9.5q5 -10 5 -23q0 -23 -17 -55q-2 -10 -1 -19q0 -28 13 -55q25 -49 113 -61q24 -2 50 -2 q59 0 132 12q-88 -37 -184 -37q-76 0 -127 39q-31 39 -37 66q-14 -17 -31 -31q-92 -79 -160 -84q-44 0 -73 29q-14 14 -22.5 35t-10 33.5t-4.5 43.5z" />
<glyph unicode="v" horiz-adv-x="405" d="M31 254q19 14 37 -2q17 -20 67 -111q27 -68 37 -78q61 108 107 166q87 109 170 154q11 5 17 -5.5t-3 -19.5q-63 -41 -148 -153q-36 -47 -104 -162q-1 -2 -5.5 -10.5t-5.5 -11t-5 -8t-7.5 -7t-8.5 -3t-11 -1.5q-28 6 -39 47q-18 30 -37 70q-30 68 -55 102q-18 18 -6 33z " />
<glyph unicode="w" horiz-adv-x="677" d="M43 45q-12 20 -11.5 47.5t11.5 61.5q13 42 49 104q6 13 18 13t19 -9.5t0 -21.5q-4 -9 -14.5 -30t-17 -36t-11.5 -33q-12 -28 -11 -48q0 -14 5 -25q4 -11 31 -17q42 0 98 23q102 45 153 112q10 29 33 29q7 -2 12.5 -7.5t7.5 -15.5t-9 -24q-13 -31 -5 -55q9 -36 43 -39 q14 -4 29 -4q24 0 51 10q38 16 58 48q20 31 20 71q0 52 -37 120q-34 58 -80 89q-11 9 -11.5 20.5t9 19t21.5 1.5q54 -34 100 -109q34 -63 37 -113q1 -11 1 -22q0 -49 -28 -99q-34 -44 -84 -62q-36 -13 -68 -13q-12 0 -24 2q-37 4 -58.5 29t-23.5 61q-41 -39 -133 -84 q-64 -27 -117 -27q-43 0 -63 33z" />
<glyph unicode="x" horiz-adv-x="339" d="M11 -29.5q-3 8.5 1 17.5q8 16 99 112q-31 39 -48 105q-10 57 -10 108q0 22 2 43q1 13 12 17.5t22 -1.5t11 -20q0 -12 -1 -24q0 -63 14 -113q4 -30 28 -80q24 26 44.5 48t34.5 35.5t24.5 24t17 15.5t10 8t5.5 4l2 2q19 10 30 -12q8 -17 -12 -27q-8 -7 -69 -70.5t-62 -64.5 q38 -38 88 -49q26 -8 61 -8q19 0 41 2q40 0 74 6q-36 -24 -72 -29q-37 -11 -73 -11l-39 3q-65 13 -109 51q-78 -78 -86 -98q-12 -16 -31 -6q-6 3 -9 11.5z" />
<glyph unicode="y" horiz-adv-x="442" d="M39 143q0 24 5.5 67t6.5 60q3 13 15 16.5t22.5 -3t9.5 -19.5q-10 -58 -16 -123q0 -66 16 -84q12 -12 21 -12q21 0 53 12q49 20 100 68q0 30 11 80q11 56 32 84q27 33 37 37q29 14 43 -7q11 -22 11 -40q0 -37 -23 -89q-28 -48 -64 -84q0 -42 9 -88q79 31 209 31 q-114 -15 -205 -49q10 -53 30 -117q9 -33 39 -116q34 -104 43 -166q1 -15 1 -29q0 -67 -31 -104q-34 -43 -101 -46q-15 -1 -29 -1q-74 0 -128 38q-77 52 -93 150q-2 18 -2 36q0 66 31 136q28 75 94 141q44 44 99 78q-1 9 -5 34.5t-4 39.5q-36 -23 -90 -49q-35 -17 -63 -17 h-6q-32 0 -49 23q-29 31 -29 112zM104 -385q19 -81 76 -123q54 -31 113 -31h10q56 7 78 35q21 28 21 69q0 15 -3 32q-7 57 -41 153q-5 19 -19 58.5t-20 62.5q-20 55 -28 104q-46 -34 -82 -73q-62 -73 -80 -133q-27 -59 -27 -121q0 -16 2 -33zM322 178q36 42 36 92 q-26 -38 -36 -92z" />
<glyph unicode="z" horiz-adv-x="518" d="M24.5 37.5q1.5 11.5 14.5 17.5q12 4 47 21q59 34 113 98q51 64 77 86q-9 -1 -33.5 -4.5t-37.5 -3.5q-10 -1 -19 -1q-99 0 -147 68q-8 12 -2.5 23t16.5 12t21 -10q39 -53 129 -53q65 0 153 35q14 6 23 -8t-8 -23q-9 -6 -18 -12.5t-18.5 -15t-16 -14.5t-16.5 -17 t-14.5 -15.5t-15.5 -17.5t-14 -17t-15 -19t-14 -17q-7 -8 -22 -25.5t-26.5 -29.5t-24.5 -21q89 -15 104 -17q133 -18 213 -18q59 0 141 10q-67 -22 -141 -31q-69 -5 -141 -5q-36 0 -74 1q-36 3 -80 10.5t-61 6.5q-11 -2 -26.5 -6t-27 -7.5t-12.5 -3.5q-12 -4 -20 4 t-6.5 19.5z" />
<glyph unicode="{" horiz-adv-x="491" d="M51 92q16 56 60 125q44 67 88 102q-63 4 -99 37q-18 12 -6 31q19 28 84 62q-14 9 -24 36q-35 74 -7 162q28 121 138 195q56 41 151 51q13 2 19.5 -8t2 -21.5t-19.5 -13.5q-76 -9 -129 -45q-89 -60 -119 -170q-17 -74 3 -131q20 -36 40 -47q13 -6 11.5 -20t-15.5 -19 q-44 -11 -82 -37q29 -15 73.5 -22.5t45.5 -8.5q11 -4 12.5 -16t-6.5 -21q-3 -3 -7.5 -5.5t-15 -8t-20.5 -10.5q-45 -35 -82 -96q-36 -52 -55 -113q-35 -116 19 -170q35 -40 106 -51q63 -9 129 0q52 2 129 24q12 2 15.5 -11.5t-9.5 -16.5q-70 -23 -131 -31q-77 -10 -139 -2 q-80 10 -131 61q-74 77 -29 209z" />
<glyph unicode="|" horiz-adv-x="358" d="M154 -418q2 51 3 250t0.5 396.5t-1 408t-0.5 223.5q0 23 23.5 23t23.5 -23q0 -1131 -4 -1278q-1 -15 -12 -20.5t-22 0.5t-11 20z" />
<glyph unicode="}" horiz-adv-x="485" d="M1.5 -176.5q-2.5 13.5 10.5 16.5q139 26 228 82q62 37 104 90q42 66 31 125q-15 65 -74 105q-32 23 -84 41q-16 6 -15 23t19 20q84 16 129 51q-36 31 -117 31q-17 0 -21.5 16t9.5 25q55 32 99.5 83t66.5 107q27 70 14 119q-6 26 -27 47t-48 31q-79 27 -160 -13 q-12 -6 -21.5 2t-9 19t11.5 18q99 50 193 12q88 -32 104 -106q17 -65 -14 -145q-52 -113 -135 -174q69 -19 94 -50q21 -21 10 -37q-35 -37 -108 -61q107 -61 123 -158q14 -77 -39 -153q-39 -54 -117 -101q-103 -57 -240 -77q-14 -2 -16.5 11.5z" />
<glyph unicode="~" horiz-adv-x="491" d="M43 322q32 44 74 55q43 14 92 -8q10 -5 33.5 -22t46.5 -26t51 -6q53 10 80 41q12 11 25 1t4 -23q-28 -39 -71.5 -54.5t-92.5 -3.5q-30 8 -61 28.5t-38 23.5q-34 19 -57 6q-5 0 -9 -1.5t-8.5 -4.5t-7.5 -4.5t-8 -6.5l-6.5 -6.5t-7 -8t-6.5 -7.5q-10 -17 -28 -5 q-17 14 -5 32z" />
<glyph unicode="&#xa1;" horiz-adv-x="362" d="M74 -373q55 255 61 287q26 136 21 215q0 37 -9 64q-6 14 2.5 23t20.5 7.5t16 -14.5q13 -26 13 -78q4 -79 -21 -223q-6 -36 -61 -289q-3 -14 -15 -17t-21.5 4.5t-6.5 20.5zM148 450q0 12 12 13q8 0 20 -2q12 -5 21 -13.5t10 -17.5q8 -15 -8 -35q-12 -5 -22 -2t-15 13 q-6 12 6 24l-12 6q-12 2 -12 14z" />
<glyph unicode="&#xa2;" horiz-adv-x="548" d="M74 313q0 101 80 181q64 61 131 77q2 16 5 44.5t5 43.5q1 14 12 18.5t21.5 -2.5t9.5 -22q-3 -10 -6 -80q43 -3 57 -38q16 -29 4 -91q-3 -13 -15 -16t-21.5 5t-6.5 22q12 37 0 61q-6 12 -24 12q-3 -28 -17 -114q-13 -115 -33 -234q51 -3 101 6q51 14 108 43q15 7 24 -7 t-5 -23q-55 -39 -117 -52q-71 -17 -117 -10l-24 -123q-3 -15 -20 -12t-15 18q3 21 8 60.5t8 60.5q-46 11 -96 45q-54 45 -57 127zM119 313q0 -57 41 -92q34 -27 73 -35q4 38 15.5 114t17.5 120q8 69 13 102q-53 -19 -93 -59q-67 -73 -67 -150z" />
<glyph unicode="&#xa3;" horiz-adv-x="468" d="M37 27q26 57 37 92q24 81 32 145h-45q-15 1 -20.5 12t1 21.5t21.5 9.5h54q7 56 10.5 116.5t7.5 94.5t15 66q25 81 104 104q37 10 78 0q38 -11 43 -41q3 -21 -6 -39q-5 -12 -17.5 -13t-21 8.5t-2.5 23.5l1 3q1 2 1 5t-2 6q-3 6 -43 6q-68 -9 -92 -80q-10 -33 -15 -111 t-16 -149q60 3 133 15q19 3 22 -15t-16 -22q-87 -15 -145 -19q-12 -82 -37 -162q0 -2 -15 -41q40 7 99 -8q2 -1 36 -13t56 -17q46 -17 82 0q23 11 35 26q4 5 10 4.5t9.5 -6t0.5 -12.5q-13 -30 -33 -43q-46 -30 -114 -12q-19 4 -49.5 15.5t-45.5 14.5q-48 15 -86 6 q-23 -8 -28 -16q-14 -15 -31 -4.5t-8 29.5z" />
<glyph unicode="&#xa4;" horiz-adv-x="479" d="M47.5 358q-2.5 11 7.5 23q13 10 39 43q-31 53 -31 106q0 94 54 160q-7 11 -47 55q-13 17 0.5 32t27.5 1l2 -2q31 -24 43 -51q51 45 115 45q13 0 18.5 -12.5t-0.5 -24.5q27 -3 62 -26q10 11 26.5 37t24.5 36q14 15 31 2t4 -30q-9 -11 -28.5 -40.5t-26.5 -39.5 q33 -54 30 -119q0 -43 -22 -96q33 -56 59 -92q9 -9 3.5 -21t-17 -14t-21.5 8q-37 53 -51 80q-53 -56 -133 -56q-58 0 -92 31q-20 -29 -43 -47q-10 -9 -21 -4t-13.5 16zM111 530q0 -16 3 -31.5t12 -38.5t32.5 -37.5t58.5 -14.5q61 0 98.5 38.5t40.5 108.5q2 60 -33.5 102.5 t-89.5 36.5q-9 0 -16.5 6t-7.5 15q-44 -20 -71 -73.5t-27 -111.5z" />
<glyph unicode="&#xa5;" horiz-adv-x="499" d="M43 264q3 17 25 21t155 10v111l-160 -9q-20 6 -20 23q3 16 25 20q36 6 100 9q-55 50 -125 198q-6 14 2 24.5t19 10t18 -11.5q101 -215 166 -215q36 0 76 55t96 160q12 19 31 7.5t10 -30.5q-84 -150 -129 -196h100q18 0 18 -18.5t-18 -18.5q-69 -4 -162 -6q0 -72 -2 -113 h164q18 0 18 -18.5t-18 -18.5q-69 -4 -164 -6q-3 -140 -8 -234q0 -9 -5.5 -15.5t-14.5 -6.5t-16 7t-7 15q2 35 6 232l-160 -8q-20 6 -20 22z" />
<glyph unicode="&#xa6;" horiz-adv-x="362" d="M154 -418q2 143 2 430v129q0 13 12 18t23.5 -1t11.5 -21v-125q0 -287 -4 -430q-1 -15 -12 -20.5t-22 0.5t-11 20zM156 362v498q0 23 23.5 23t23.5 -23v-498q0 -14 -11.5 -20t-23.5 -0.5t-12 20.5z" />
<glyph unicode="&#xa7;" horiz-adv-x="595" d="M51 424q-7 57 78 117q74 50 193 80q86 17 172 8q14 -3 17.5 -15t-3.5 -22t-21 -8q-78 12 -153 -6q-106 -20 -180 -74q-67 -43 -62 -74q1 -5 3 -10t6 -10t7 -9t9.5 -9t9 -7.5t10.5 -8t10 -6.5t11 -6l8 -6q50 -22 92 -39q110 -50 166 -90q67 -51 88 -94q25 -49 4 -96 q-24 -49 -96 -88q-16 -13 -39 -23q40 -13 70 -37q84 -49 77 -110q0 -39 -43 -82q-59 -59 -147 -90q-132 -46 -256 -19q-13 3 -16 14.5t4.5 20.5t21.5 6q112 -26 234 15q81 30 131 80q30 30 35 59q2 40 -60 74q-47 29 -110 49q-22 7 -80 31q-58 22 -111 63q-63 60 -63 123 q0 60 61 121q41 33 76 51l-58 29q-84 41 -96 98zM106 125q6 -55 54 -88q29 -23 100 -62q39 -18 80 -30q4 2 13.5 6t23 10.5t29.5 15.5q59 39 79 78q12 30 -4 64q-19 43 -80 78q-57 42 -159 86q-1 0 -7.5 -4t-15 -9.5t-19 -12.5t-22.5 -17.5t-22 -22.5q-50 -50 -50 -92z" />
<glyph unicode="&#xa8;" horiz-adv-x="307" d="M45 733q0 17 14 21q10 10 25 10t25 -16q9 -17 -7 -39q-10 -19 -30 -19q-34 0 -27 43zM197 733q0 17 14 21q10 10 25 10q14 0 24 -16q9 -18 -6 -39q-10 -19 -31 -19q-33 0 -26 43z" />
<glyph unicode="&#xa9;" horiz-adv-x="899" d="M76 309q15 148 114 250q62 76 156 98q54 14 92 -6q107 41 197 15q96 -26 147 -117q35 -60 38.5 -135.5t-21.5 -141.5q-43 -120 -183 -202q-81 -45 -172 -64q-63 -16 -141.5 -5.5t-130.5 50.5q-56 42 -79 111t-17 147zM129 303q-8 -63 11 -121.5t63 -93.5q49 -35 149 -43 q90 0 178.5 35t151.5 98q-66 -40 -139 -61q-71 -20 -131 -17q-89 10 -121 78q-26 56 -8 137q17 58 51 121q31 39 49 51q19 19 41 19q30 0 49 -19q0 3 1 12t1 13q2 14 14 18t22 -3.5t7 -22.5q-3 -12 -8 -86q4 -44 -6 -68q-12 -20 -29 -10q-12 9 -12 18v54q-2 16 -10.5 30.5 t-20.5 18.5q-8 3 -18 -4q-1 -1 -6.5 -6t-10 -9.5t-11 -12.5t-11.5 -17q-32 -52 -43 -105q-12 -72 2 -108q20 -42 84 -49q47 -8 112 10q102 20 189 61q17 21 39 68q20 55 17 121t-30 118q-20 34 -53 59t-69 34q-68 17 -150 -7q9 -26 -6 -59q-10 41 -18 49q-35 -9 -62 -24 q-80 -44 -129 -105q-48 -60 -68 -153q-18 -107 43 -160q-72 48 -61 160q10 97 61 172q43 65 138 122q-88 -19 -148 -88q-86 -99 -94 -225z" />
<glyph unicode="&#xaa;" horiz-adv-x="380" d="M39 621q13 34 53 69q3 2 34.5 26.5t47.5 33.5q41 18 59 14q19 -1 27.5 -13.5t5.5 -31.5q0 -19 -14 -29q-12 -6 -22 4t-3 21v4q-9 0 -47 -19q-13 -8 -57 -47q-34 -25 -47 -49v-26q4 -2 16 -2t34 8t42 20q40 19 74 53q7 25 22 43q14 18 25 25q6 6 16.5 4.5t16.5 -8.5 q12 -16 4 -27q-15 -27 -37 -49q-10 -12 -10 -41q7 -26 43 -37q6 0 14.5 -1t13.5 -1q9 0 12 -6t0 -12t-12 -6q-10 -4 -31 -4q-47 7 -65 28q-10 10 -18 39q-22 -19 -50 -33q-52 -25 -75 -30q-45 -11 -68 12q-20 22 -4 68z" />
<glyph unicode="&#xab;" horiz-adv-x="454" d="M47.5 228q0.5 13 9.5 18q18 10 25 18q37 29 65 68q4 6 23 30.5t31 42t14 25.5q4 13 16 15t21.5 -6t5.5 -21q-2 -11 -13 -29t-20.5 -30.5t-26.5 -33t-18 -22.5q-31 -41 -74 -76q48 -48 66 -73q43 -63 55 -115q4 -15 -11 -20.5t-23 8.5q-13 37 -58 98q-32 45 -59 68 q-10 10 -19 16q-10 6 -9.5 19zM202.5 228.5q0.5 13.5 12.5 17.5q3 3 10.5 9t10.5 9q37 29 65 68q64 80 70 98q3 13 15 15t21 -6t5 -21q-4 -21 -30 -57t-48 -58q-31 -41 -74 -76q48 -48 66 -73q46 -68 57 -115q3 -15 -12 -20.5t-21 8.5q-14 30 -59 98q-26 36 -58 68 q-4 4 -22 16q-9 6 -8.5 19.5z" />
<glyph unicode="&#xac;" horiz-adv-x="641" d="M71.5 317q-4.5 9 0 18.5t16.5 10.5q16 1 84 2.5t147 7.5q131 6 211 21q20 5 25 4q8 -4 11 -11.5t2 -12.5l-1 -5q-23 -71 -32 -141q-6 -33 -12 -85.5t-7 -62.5q-3 -11 -16 -9t-13 14q-6 48 7 149q11 75 24 115q-53 -8 -196 -19q-180 -11 -234 -6q-12 1 -16.5 10z" />
<glyph unicode="&#xad;" horiz-adv-x="577" d="M80 313q3 17 24 21q42 10 179 10h186q17 0 18 -18.5t-18 -18.5q-75 -4 -186 -6l-183 -10q-20 6 -20 22z" />
<glyph unicode="&#xae;" horiz-adv-x="905" d="M100 399q25 85 93 160q44 46 101 76t107 29q17 0 43 -13q69 30 147.5 24.5t135.5 -52.5q95 -73 98 -211q6 -91 -39 -183q-18 -33 -73 -92q27 -18 45 -20q51 -22 127 -11q-69 -30 -146 -18q-35 11 -57 25q-54 -47 -141 -82q-100 -35 -183 -35q-176 7 -241 129 q-66 112 -17 274zM131 265q2 -66 29 -115q50 -98 198 -105q82 0 164 31q76 28 123 65q-17 18 -45 55t-33 44q-28 39 -67 55q-20 12 -68 12q-3 -69 -6 -102q9 -9 0 -21q-2 -12 -25 -12q-18 4 -18 27v98l-37 -14q-18 -4 -25.5 13t7.5 26q2 2 10 6q32 18 51 22l6 21 q8 13 23 9.5t18 -18.5q31 14 82 44q48 25 78 55q6 9 6 12t-6 6q-13 8 -35 8q-49 6 -98 0q-74 -3 -148 -24q-45 -19 -55 -31q-2 -2 -2 -8q1 -1 21 -25q8 -11 -3 -22q-9 -3 -18 0q-21 8 -37 24q-16 -40 -24 -79q-7 -50 0 -86q9 -45 39 -72q-55 41 -58 115q-3 21 6 90 q19 72 56 125q13 23 57 67q31 29 78 55q-87 -19 -146 -88q-51 -56 -82 -141q-18 -56 -16 -122zM236 164q2 -2 4 -2q-2 0 -4 2zM283 498q68 25 178 30q73 0 106 -4q38 -3 66 -24q24 -21 6 -56q-15 -25 -55 -49q-22 -15 -84 -45q33 -11 80 -49q21 -21 49 -68q15 -22 49 -65 q48 41 67 84q37 73 37 160q-2 49 -23.5 96t-58.5 78q-86 64 -221 28q9 -26 -6 -59q-1 11 -6.5 26t-15.5 23q-37 -12 -58 -24q-61 -30 -110 -82z" />
<glyph unicode="&#xaf;" horiz-adv-x="1142" />
<glyph unicode="&#xb0;" horiz-adv-x="364" d="M68 639q4 58 51 86q-2 9 2.5 17.5t13.5 9.5q46 18 82 12q36 -9 55 -31q21 -20 26 -51.5t-7 -58.5q-14 -33 -50.5 -51.5t-78.5 -18.5t-68 23t-26 63zM113 639q0 -35 30 -43q30 -5 63 7t46 38q14 40 -10 61q-19 19 -52 19q2 -11 -6 -18.5t-18 -6.5q-17 0 -31 -14 q-22 -22 -22 -43z" />
<glyph unicode="&#xb1;" horiz-adv-x="776" d="M80 190q3 17 24 21q42 10 179 10q12 0 48 0.5t71.5 0.5t66.5 -1q17 0 18 -18.5t-18 -18.5q-75 -4 -186 -6l-183 -10q-20 6 -20 22zM80 451q3 16 24 20q22 4 154 10q-5 100 0 176q0 10 8 14.5t16.5 1t8.5 -15.5q1 -21 4 -65.5t6 -110.5h168q17 0 18 -18.5t-18 -18.5 q-69 -4 -166 -6l4 -149q0 -11 -5.5 -17t-12.5 -6q-16 4 -23 25q-8 24 -8 145l-158 -8q-20 6 -20 23z" />
<glyph unicode="&#xb2;" horiz-adv-x="395" d="M63 573q3 28 17.5 40.5t48.5 9.5q36 -4 64 -13q31 53 40 109q12 63 -12 104q-16 21 -28 25q-6 0 -12.5 -3t-14.5 -9t-10 -7q-18 -28 -21 -43q0 -14 -11.5 -19.5t-22.5 0.5t-9 21q3 36 31 68q30 38 74 35q40 -6 63 -47q36 -54 19 -135q-9 -58 -43 -113q42 -16 59 -18 q82 -25 119 -17q-44 -27 -125 -14q-23 2 -74 14q-23 -35 -49 -49q-33 -22 -66 -8q-18 9 -28.5 29t-8.5 40zM98 571q0 -15 13 -28q17 -11 43 10q0 3 2 6t5.5 6.5t4.5 5.5q-4 1 -11.5 3t-15 3t-14.5 1q-6 2 -16 -0.5t-11 -6.5z" />
<glyph unicode="&#xb3;" horiz-adv-x="346" d="M-41 639q11 -17 55 -41q50 -19 105 -25q59 -4 96 19q37 27 37 78q-7 55 -43 63q-24 5 -59 -8q-18 -7 -28.5 9t3.5 28q14 9 26 19.5t31.5 31t22.5 23.5q-47 -7 -88 2q-40 8 -56 24q-13 17 2 31.5t29 3.5q8 -10 33 -16q59 -11 121 12l12 6q9 3 17.5 0t9.5 -12q8 -8 0 -21 q-11 -19 -31 -41q-25 -30 -43 -45q32 -7 49 -24q35 -35 35 -84q0 -75 -59 -117q-56 -30 -119 -14q-64 9 -111 45q-37 28 -47 53z" />
<glyph unicode="&#xb4;" horiz-adv-x="294" d="M49 597q-7 9 2 17q72 54 80 58q66 46 86 55q17 8 26.5 -10t-7.5 -27v-2q-5 -4 -82 -47q-82 -47 -86 -49q-12 -4 -19 5z" />
<glyph unicode="&#xb5;" horiz-adv-x="598" d="M-4 -268q32 116 55 288q14 91 25 209q0 35 4 84q2 21 21 22t24 -20v-1q-1 -12 -6 -87q-5 -123 10 -153q21 -31 51 -31q37 0 90 33q62 39 101 96q0 34 16 74q6 14 19.5 15t17.5 -9q20 -36 -10 -84q-4 -27 4 -45q11 -73 123 -84q49 -7 178 6q-105 -38 -182 -33 q-62 0 -99 19q-50 27 -63 86q-54 -54 -105 -84q-64 -31 -90 -31q-51 -3 -80 37q-4 -31 -13.5 -89.5t-12.5 -82.5q-17 -81 -35 -148q-4 -13 -16 -15t-21.5 6.5t-5.5 21.5z" />
<glyph unicode="&#xb6;" horiz-adv-x="737" d="M51 541q-20 55 0 116q27 72 96 144q77 87 205 133q121 39 191 6q56 -24 47 -86q-2 -15 -13.5 -19.5t-21 3t-6.5 22.5q6 28 -21 39q-41 17 -120 4q6 -6 6 -16q6 -170 6 -393q48 10 78 22q-1 23 -6 338q0 13 11 19t21.5 1t10.5 -20q0 -25 3 -144.5t3 -179.5q22 10 65.5 32 t63.5 30q12 6 21.5 -1.5t9 -19.5t-12.5 -18q-6 -3 -58.5 -29.5t-88.5 -38.5q0 -307 -4 -477q-1 -15 -12 -21t-22 0t-11 21q0 29 3 199.5t3 261.5q-9 -2 -35 -9.5t-43 -10.5q0 -367 -2 -490q0 -23 -23.5 -23t-23.5 23q6 185 6 483q-50 -6 -98 -6q-74 0 -138 25.5t-90 79.5z M92 559q19 -37 70.5 -58.5t120.5 -21.5q73 4 94 8q0 108 -1.5 209t-3.5 148l-1 47q-120 -40 -193 -121q-121 -133 -86 -211z" />
<glyph unicode="&#xb7;" horiz-adv-x="266" d="M98 383q0 16 15 20q11 11 24 11q15 0 25 -17q9 -18 -6 -39q-9 -18 -31 -18q-34 0 -27 43z" />
<glyph unicode="&#xb8;" horiz-adv-x="227" d="M39 -188q-6 9 3.5 18t18.5 0q12 -12 25 -12q30 -4 49 18q13 16 19 37q1 22 -9.5 33.5t-23 10t-21.5 -6.5q-11 -9 -23.5 1.5t-6.5 27.5q24 46 24 92q2 15 13.5 21t22.5 0t11 -21q0 -33 -12 -74q20 0 43 -23q22 -17 18 -63q-6 -38 -30 -59q-43 -33 -80 -25q-21 5 -41 25z " />
<glyph unicode="&#xb9;" horiz-adv-x="204" d="M74 874q-3 19 16 22q19 4 26 -13q1 -4 1 -9q0 -6 2 -59.5t4 -81.5q0 -18 -1 -54t-0.5 -58.5t3.5 -40.5q3 -14 4.5 -16.5t5.5 -2.5h27q-1 -3 -4 -7t-4 -5q-10 -21 -35 -21q-24 3 -31 27q-4 11 -6.5 29t-2.5 35.5t-1 51.5t-2 60q0 26 -2 143z" />
<glyph unicode="&#xba;" horiz-adv-x="296" d="M37 633q2 28 26 74q24 38 60 55q12 9 31 -6q12 3 30 -4q25 -11 37 -25q36 -33 39 -74q0 -45 -37 -75q-29 -29 -69 -35q-45 -11 -80 10q-22 10 -31 32.5t-6 47.5zM80 629q-6 -26 14 -43q20 -15 53 -8q39 13 52 26q18 18 18 47q-2 20 -27 45q-17 17 -24 17q-7 -9 -19 -9 t-18 9q-19 -19 -25 -31q-21 -28 -24 -53z" />
<glyph unicode="&#xbb;" horiz-adv-x="450" d="M39 45q12 37 80 115q49 57 74 76q-48 44 -64 73q-46 61 -59 115q-4 15 11 20.5t23 -8.5q13 -37 58 -98q32 -45 59 -68q11 -11 21 -16q9 -9 8.5 -21t-10.5 -16q-12 -7 -23 -18q-22 -16 -63 -68q-20 -21 -44 -53t-28 -45q-3 -13 -15 -15t-21.5 6t-6.5 21zM197 45 q5 21 31.5 57.5t47.5 57.5q29 43 70 76q-61 70 -63 73q-43 60 -56 115q-4 15 11.5 20.5t21.5 -8.5q16 -48 59 -98q26 -36 58 -68q12 -12 22 -16q9 -9 8.5 -21t-12.5 -16l-24 -18q-22 -20 -64 -68q-4 -5 -23.5 -30t-31 -42.5t-12.5 -25.5q-7 -20 -27.5 -14t-15.5 26z" />
<glyph unicode="&#xbc;" horiz-adv-x="731" d="M12 -78q14 54 68.5 142t204.5 307q165 243 323 458q9 12 21 10.5t15.5 -11.5t-3.5 -23q-28 -40 -139.5 -199t-179.5 -260q-15 -22 -46 -67.5t-49.5 -73.5t-46 -69t-45.5 -69.5t-36 -59.5t-29 -54t-15 -39q7 -5 8 -15t-6 -16q-9 -9 -22 -11t-21 7q-14 19 -2 43zM74 874 q-3 19 16 22q19 4 26 -13q1 -4 1 -9q0 -6 2 -59.5t4 -81.5q0 -18 -1 -54t-0.5 -58.5t3.5 -40.5q3 -14 4.5 -16.5t5.5 -2.5h27q-1 -3 -4 -7t-4 -5q-10 -21 -35 -21q-24 3 -31 27q-4 11 -6.5 29t-2.5 35.5t-1 51.5t-2 60q0 26 -2 143zM412 150q-9 15 2 30q11 21 37 25 q36 56 41 80l6 30q1 15 12 19t21.5 -3.5t9.5 -21.5q0 -9 -11 -37q-14 -32 -38 -69q11 -4 29.5 -13t21.5 -10q2 0 43 -14q-2 57 -2 80q-4 71 -11 106q-3 14 6 21.5t20.5 4.5t14.5 -16q13 -50 13 -92q4 -57 0 -114q54 -6 55 -6q43 0 63 4q-22 -15 -61 -25q-27 -6 -57 -6v-55 q0 -37 6 -37q9 2 13.5 -7t-1.5 -16q-10 -8 -29 -8q-13 10 -18 20q-8 16 -8 43q-4 18 -4 62q-9 3 -28 8t-28 8q-48 18 -63 21q-14 -17 -31 -25q-20 -3 -24 13z" />
<glyph unicode="&#xbd;" horiz-adv-x="763" d="M12 -78q14 54 68.5 142t204.5 307q165 243 323 458q9 12 21 10.5t15.5 -11.5t-3.5 -23q-28 -40 -139.5 -199t-179.5 -260q-15 -22 -46 -67.5t-49.5 -73.5t-46 -69t-45.5 -69.5t-36 -59.5t-29 -54t-15 -39q7 -5 8 -15t-6 -16q-9 -9 -22 -11t-21 7q-14 19 -2 43zM74 874 q-3 19 16 22q19 4 26 -13q1 -4 1 -9q0 -6 2 -59.5t4 -81.5q0 -18 -1 -54t-0.5 -58.5t3.5 -40.5q3 -14 4.5 -16.5t5.5 -2.5h27q-1 -3 -4 -7t-4 -5q-10 -21 -35 -21q-24 3 -31 27q-4 11 -6.5 29t-2.5 35.5t-1 51.5t-2 60q0 26 -2 143zM416 33q3 28 17 40t48 9q40 -4 64 -12 q33 56 41 108q11 63 -13 105q-15 20 -28 24q-6 0 -12.5 -2.5t-15 -8.5t-9.5 -7q-18 -28 -21 -43q0 -14 -11.5 -19.5t-22.5 0.5t-9 21q3 35 31 67q30 38 74 35q40 -6 63 -47q36 -54 19 -135q-9 -58 -43 -113q42 -16 59 -18q82 -25 119 -17q-44 -27 -125 -14q-23 2 -74 14 q-23 -35 -49 -49q-33 -22 -65 -8q-18 9 -28.5 29.5t-8.5 40.5zM451 31q0 -17 12 -29q17 -11 43 10q0 1 12 19q-36 6 -41 6q-7 2 -16 0t-10 -6z" />
<glyph unicode="&#xbe;" horiz-adv-x="880" d="M-33 639q13 -20 56 -41q50 -20 104 -25q59 -4 96 19q37 27 37 78q-7 55 -43 63q-24 5 -59 -8q-18 -7 -28.5 9t3.5 28q14 9 26 19.5t31.5 31t22.5 23.5q-47 -7 -88 2q-39 8 -55 24q-13 17 1.5 31.5t28.5 3.5q8 -10 33 -16q59 -11 121 12q4 3 8 4q3 1 4 2q9 3 17.5 0 t9.5 -12q8 -8 0 -21q-11 -19 -31 -41q-25 -30 -43 -45q32 -7 49 -24q35 -35 35 -84q0 -75 -59 -117q-56 -30 -119 -14q-64 9 -111 45q-37 28 -47 53zM94 -78q14 54 68.5 142t204.5 307q165 243 323 458q8 12 20.5 10.5t16 -11.5t-3.5 -23q-28 -42 -140 -200.5t-180 -258.5 q-13 -19 -45.5 -67t-50 -74t-46 -68.5t-45 -70t-35.5 -59.5t-29.5 -54.5t-14.5 -38.5q7 -5 8 -15t-6 -16q-9 -9 -22 -11t-21 7q-14 19 -2 43zM543 150q-9 15 2 30q11 21 37 25q36 56 41 80l6 30q1 15 12 19t21.5 -3.5t9.5 -21.5q0 -12 -10 -37q-12 -27 -39 -69 q11 -4 29.5 -13t21.5 -10q2 0 43 -14q-2 57 -2 80q-4 78 -10 106q-3 14 6 21.5t20 4.5t14 -16q13 -50 13 -92q4 -57 0 -114q54 -6 55 -6q44 0 64 4q-22 -14 -62 -25q-27 -6 -57 -6v-55q0 -37 6 -37q9 2 13.5 -7t-1.5 -16q-10 -8 -28 -8q-14 11 -19 20q-8 16 -8 43 q-4 18 -4 62q-9 3 -27.5 8t-27.5 8q-47 18 -64 21q-14 -17 -31 -25q-20 -3 -24 13z" />
<glyph unicode="&#xbf;" horiz-adv-x="561" d="M39 -190q2 15 13.5 20t22.5 -1.5t11 -21.5q-5 -28 8 -65q18 -46 62.5 -77t97.5 -40q54 -9 106 5.5t84 54.5q22 23 32.5 58.5t8.5 66.5q0 31 -24 55q-30 26 -127 67q-101 49 -131 93q-40 59 -23 127q1 3 6.5 16t6.5 20q8 11 18 6.5t6 -16.5q0 -19 -6 -37q-10 -57 18 -92 q29 -40 117 -80q13 -6 39 -17.5t40 -18t32 -17.5t30 -22q35 -32 41 -80q0 -91 -53 -158q-40 -46 -101 -64.5t-128 -9.5q-64 13 -118.5 51t-76.5 95q-12 41 -12 82zM205 422q0 21 13 36.5t36 18.5q42 0 61 -22q6 -6 4.5 -13t-7 -9.5t-11.5 1.5q-1 0 -12 3t-17 3q-14 0 -20 -6 q-3 0 -3 -2t3 -2q4 3 12 0.5t12 -8.5q5 -7 3.5 -17t-9.5 -14q-20 -12 -37 -4q-21 8 -28 35z" />
<glyph unicode="&#xc0;" d="M14 14q8 38 25 60q7 9 17 3.5t7 -16.5q-1 -5 -3.5 -20.5t-2.5 -22.5q73 51 142 117q105 100 202 226t158 247q48 92 62 174q-2 18 -5.5 51.5t-5.5 51.5q0 19 17 22.5t26 -14.5q10 -19 13 -39q6 -34 0 -61q20 -143 53 -263q45 -143 55 -172q62 -164 150 -284 q110 -150 243 -203q155 -71 338 -10q-190 -93 -350 -27q-145 49 -270 215q-94 122 -160 291q-48 147 -55 178q-13 39 -35 148q-11 -35 -33 -80q-93 -183 -258 -369q74 -2 186 -2h189q-65 -35 -184 -47q-132 -11 -232 6q-26 -33 -74 -74q-76 -68 -116 -98q-50 -37 -62 -37 q-15 -2 -26.5 12t-10.5 37zM475 1122q12 17 31 7l2 -1q140 -98 154 -110q7 -9 1.5 -17.5t-16.5 -3.5q-10 2 -77 40t-89 59q-16 10 -6 26z" />
<glyph unicode="&#xc1;" d="M14 14q8 38 25 60q7 9 17 3.5t7 -16.5q-1 -5 -3.5 -20.5t-2.5 -22.5q73 51 142 117q105 100 202 226t158 247q48 92 62 174q-2 18 -5.5 51.5t-5.5 51.5q0 19 17 22.5t26 -14.5q10 -19 13 -39q6 -34 0 -61q20 -143 53 -263q45 -143 55 -172q62 -164 150 -284 q110 -150 243 -203q155 -71 338 -10q-190 -93 -350 -27q-145 49 -270 215q-94 122 -160 291q-48 147 -55 178q-13 39 -35 148q-11 -35 -33 -80q-93 -183 -258 -369q74 -2 186 -2h189q-65 -35 -184 -47q-132 -11 -232 6q-26 -33 -74 -74q-76 -68 -116 -98q-50 -37 -62 -37 q-15 -2 -26.5 12t-10.5 37zM608 1004.5q-7 9.5 2 17.5q68 51 80 57q70 49 86 56q17 8 26.5 -10t-7.5 -27v-2q-5 -4 -82 -47q-23 -13 -40 -23t-24 -14.5t-12.5 -7.5t-9.5 -5q-12 -4 -19 5.5z" />
<glyph unicode="&#xc2;" d="M14 14q8 38 25 60q7 9 17 3.5t7 -16.5q-1 -5 -3.5 -20.5t-2.5 -22.5q73 51 142 117q105 100 202 226t158 247q48 92 62 174q-2 18 -5.5 51.5t-5.5 51.5q0 19 17 22.5t26 -14.5q10 -19 13 -39q6 -34 0 -61q20 -143 53 -263q45 -143 55 -172q62 -164 150 -284 q110 -150 243 -203q155 -71 338 -10q-190 -93 -350 -27q-145 49 -270 215q-94 122 -160 291q-48 147 -55 178q-13 39 -35 148q-11 -35 -33 -80q-93 -183 -258 -369q74 -2 186 -2h189q-65 -35 -184 -47q-132 -11 -232 6q-26 -33 -74 -74q-76 -68 -116 -98q-50 -37 -62 -37 q-15 -2 -26.5 12t-10.5 37zM548.5 1014q-2.5 8 4.5 16q4 6 16.5 23.5t16.5 23.5q6 8 15 25t13 24q6 11 19 12t18 -12q5 -10 33 -53q30 -42 37 -49q12 -6 3.5 -17t-17.5 -3q-47 34 -72 73q-37 -53 -57 -71q-8 -7 -17.5 -3.5t-12 11.5z" />
<glyph unicode="&#xc3;" d="M14 14q8 38 25 60q7 9 17 3.5t7 -16.5q-1 -5 -3.5 -20.5t-2.5 -22.5q73 51 142 117q105 100 202 226t158 247q48 92 62 174q-2 18 -5.5 51.5t-5.5 51.5q0 19 17 22.5t26 -14.5q10 -19 13 -39q6 -34 0 -61q20 -143 53 -263q45 -143 55 -172q62 -164 150 -284 q110 -150 243 -203q155 -71 338 -10q-190 -93 -350 -27q-145 49 -270 215q-94 122 -160 291q-48 147 -55 178q-13 39 -35 148q-11 -35 -33 -80q-93 -183 -258 -369q74 -2 186 -2h189q-65 -35 -184 -47q-132 -11 -232 6q-26 -33 -74 -74q-76 -68 -116 -98q-50 -37 -62 -37 q-15 -2 -26.5 12t-10.5 37zM526 1024q1 4 5 18t6 19q11 41 43 41q24 0 61 -25q22 -19 49 -28q12 -4 15 10q2 1 6 12q3 10 12.5 11.5t17 -5t4.5 -18.5q-7 -21 -18 -35q-15 -16 -47 -12q-11 3 -62 30q-1 1 -9.5 6.5t-14.5 6.5l-14 4q-7 -17 -7 -37q-2 -14 -13.5 -18.5 t-22.5 1.5t-11 19z" />
<glyph unicode="&#xc4;" d="M14 14q8 38 25 60q7 9 17 3.5t7 -16.5q-1 -5 -3.5 -20.5t-2.5 -22.5q73 51 142 117q105 100 202 226t158 247q48 92 62 174q-2 18 -5.5 51.5t-5.5 51.5q0 19 17 22.5t26 -14.5q10 -19 13 -39q6 -34 0 -61q20 -143 53 -263q45 -143 55 -172q62 -164 150 -284 q110 -150 243 -203q155 -71 338 -10q-190 -93 -350 -27q-145 49 -270 215q-94 122 -160 291q-48 147 -55 178q-13 39 -35 148q-11 -35 -33 -80q-93 -183 -258 -369q74 -2 186 -2h189q-65 -35 -184 -47q-132 -11 -232 6q-26 -33 -74 -74q-76 -68 -116 -98q-50 -37 -62 -37 q-15 -2 -26.5 12t-10.5 37zM524 1038q0 17 15 21q10 10 24 10q15 0 25 -16q9 -18 -6 -39q-10 -19 -31 -19q-34 0 -27 43zM676 1038q0 18 14 21q10 10 25 10q14 0 24 -16q9 -18 -6 -39q-9 -19 -31 -19q-33 0 -26 43z" />
<glyph unicode="&#xc5;" d="M14 14q8 38 25 60q7 9 17 3.5t7 -16.5q-1 -5 -3.5 -20.5t-2.5 -22.5q73 51 142 117q105 100 202 226t158 247q48 92 62 174q-6 45 -9 88q-11 2 -24 11q-30 18 -39 53q-9 56 26 94q1 1 25 19q0 8 12 16q53 18 90 -16q23 -19 32.5 -48.5t0.5 -58.5q-4 -26 -21 -44t-42 -24 q-2 -1 -5 -2t-5 -2q1 -2 2 -7t2 -7q6 -34 0 -61q20 -143 53 -263q45 -143 55 -172q62 -164 150 -284q110 -150 243 -203q155 -71 338 -10q-190 -93 -350 -27q-145 49 -270 215q-94 122 -160 291q-48 147 -55 178q-13 39 -35 148q-11 -35 -33 -80q-93 -183 -258 -369 q74 -2 186 -2h189q-65 -35 -184 -47q-132 -11 -232 6q-26 -33 -74 -74q-76 -68 -116 -98q-50 -37 -62 -37q-15 -2 -26.5 12t-10.5 37zM592 946q4 -21 18 -24q21 -18 49 -7q28 7 37 33q4 47 -22 66q-8 8 -19 8q-2 -2 -14 -2l-9 -5q-10 -5 -18.5 -11.5t-13.5 -14.5 q-13 -26 -8 -43z" />
<glyph unicode="&#xc6;" horiz-adv-x="1937" d="M14 14q8 38 25 60q7 9 17 3.5t7 -16.5q-1 -5 -3.5 -20.5t-2.5 -22.5q73 51 142 117q105 100 202 226t158 247q38 70 55 144q-15 15 0 30l4 4q-2 17 -4 49.5t-4 49.5q0 19 17 22.5t26 -14.5q10 -19 13 -39q4 -31 2 -45q6 3 26 8q97 30 253.5 56t281.5 38q368 48 620 43 q20 0 20 -21.5t-20 -21.5q-283 0 -614 -43q-102 -11 -298.5 -43.5t-266.5 -60.5q21 -136 49 -234q45 -143 55 -172q59 -155 137 -270q4 -4 4 -6q1 -2 5 -5l4 -3q3 -4 8 -12.5t8 -12.5q8 -4 12 -4q18 -8 82 -18q0 4 -5.5 58t-11 127.5t-7.5 145.5q-6 -1 -90.5 -16.5 t-94.5 -15.5q-20 0 -20 22.5t20 22.5q19 -1 185 30q-1 63 0.5 124t3.5 91l2 29q2 15 13.5 20t21.5 -2t8 -22q-6 -94 -6 -229q28 6 85 16t87 16q108 21 399 86q14 3 22.5 -6.5t5.5 -21.5t-18 -15q-75 -17 -212.5 -46t-186.5 -40q-30 -6 -91 -18t-91 -18q11 -212 18 -271 q1 -12 2.5 -23t2 -17t1.5 -11l1.5 -7.5t0.5 -4.5t-0.5 -3l-1.5 -3q120 0 312 36q206 42 376 93q71 17 127 36q13 3 21.5 -6.5t6.5 -21.5t-15 -15q-25 -9 -72 -21.5t-55 -14.5q-207 -59 -383 -93q-246 -51 -394 -30q-1 0 -3 1t-3 1q77 -80 172 -119q155 -71 338 -10 q-190 -93 -350 -27q-133 47 -252 189q-16 16 -20 28q-89 113 -158 289q-48 147 -55 178q-13 39 -35 148q-11 -35 -33 -80q-93 -183 -258 -369q74 -2 186 -2h189q-65 -35 -184 -47q-132 -11 -232 6q-26 -33 -74 -74q-76 -68 -116 -98q-50 -37 -62 -37q-15 -2 -26.5 12 t-10.5 37z" />
<glyph unicode="&#xc7;" horiz-adv-x="903" d="M98 264q0 150 70 326q79 180 190 272q64 58 136 31q59 -18 102 -98q12 98 20 147q2 14 12.5 19t20.5 -2t10 -23q-5 -34 -10 -73t-11 -87t-9 -74q15 -55 6 -112q-3 -23 -14 -43q-7 -14 -24 -10.5t-17 18.5q0 6 6 141q-12 52 -40.5 96.5t-66.5 57.5q-44 15 -92 -21 q-102 -84 -172 -258q-68 -153 -68 -307q0 -307 211 -418q167 -92 455 -49q176 26 344 88q-152 -85 -326 -123q-113 -22 -215 -22q0 -32 -12 -70q21 0 43 -22q23 -18 19 -64q-6 -37 -31 -59q-43 -33 -80 -25q-21 5 -41 25q-6 9 4 18t19 0q12 -12 24 -12q30 -4 49 18 q13 16 19 37q1 22 -9.5 33.5t-23 10t-21.5 -6.5q-11 -9 -23.5 1.5t-6.5 27.5q24 46 24 90q-131 9 -237 68q-234 128 -234 454z" />
<glyph unicode="&#xc8;" horiz-adv-x="1224" d="M-98.5 752q-13.5 15 0.5 30q29 25 80 35q97 30 253 56t281 38q368 48 621 43q20 0 20 -21.5t-20 -21.5q-284 0 -615 -43q-113 -11 -337 -50t-253 -68q-17 -13 -30.5 2zM93 348.5q0 22.5 20 22.5q18 -1 184 30q-1 63 0.5 124t3.5 91l2 29q2 15 13.5 20t21.5 -2t8 -22 q-6 -94 -6 -229q28 6 85 16t87 16q108 21 399 86q14 3 22.5 -6.5t6 -21.5t-17.5 -15q-75 -17 -212.5 -46t-187.5 -40q-30 -6 -90.5 -18t-91.5 -18q11 -212 18 -271q2 -17 3.5 -30.5t2.5 -19t2 -9.5t0.5 -6t-1.5 -4q119 0 311 36q209 43 377 93q71 17 127 36q13 3 21 -6.5 t6 -21.5t-15 -15q-25 -9 -72 -21.5t-55 -14.5q-207 -59 -383 -93q-246 -51 -393 -30q-106 15 -123 75q-6 14 2.5 23.5t20.5 8t16 -14.5q10 -25 35 -35q18 -8 82 -18q0 5 -6 58.5t-11.5 127t-7.5 145.5q-6 -1 -90 -16.5t-94 -15.5q-20 0 -20 22.5zM433 1145q13 17 32 6 q139 -99 153 -111q7 -9 2 -17t-16 -3q-11 2 -77.5 39.5t-88.5 58.5q-17 10 -5 27z" />
<glyph unicode="&#xc9;" horiz-adv-x="1224" d="M-98.5 752q-13.5 15 0.5 30q29 25 80 35q97 30 253 56t281 38q368 48 621 43q20 0 20 -21.5t-20 -21.5q-284 0 -615 -43q-113 -11 -337 -50t-253 -68q-17 -13 -30.5 2zM93 348.5q0 22.5 20 22.5q18 -1 184 30q-1 63 0.5 124t3.5 91l2 29q2 15 13.5 20t21.5 -2t8 -22 q-6 -94 -6 -229q28 6 85 16t87 16q108 21 399 86q14 3 22.5 -6.5t6 -21.5t-17.5 -15q-75 -17 -212.5 -46t-187.5 -40q-30 -6 -90.5 -18t-91.5 -18q11 -212 18 -271q2 -17 3.5 -30.5t2.5 -19t2 -9.5t0.5 -6t-1.5 -4q119 0 311 36q209 43 377 93q71 17 127 36q13 3 21 -6.5 t6 -21.5t-15 -15q-25 -9 -72 -21.5t-55 -14.5q-207 -59 -383 -93q-246 -51 -393 -30q-106 15 -123 75q-6 14 2.5 23.5t20.5 8t16 -14.5q10 -25 35 -35q18 -8 82 -18q0 5 -6 58.5t-11.5 127t-7.5 145.5q-6 -1 -90 -16.5t-94 -15.5q-20 0 -20 22.5zM473 1023q-7 9 2 17 q72 54 80 58q66 46 86 55q17 8 26 -10t-8 -27v-2q-7 -6 -81 -47q-82 -47 -86 -49q-12 -4 -19 5z" />
<glyph unicode="&#xca;" horiz-adv-x="1224" d="M-98.5 752q-13.5 15 0.5 30q29 25 80 35q97 30 253 56t281 38q368 48 621 43q20 0 20 -21.5t-20 -21.5q-284 0 -615 -43q-113 -11 -337 -50t-253 -68q-17 -13 -30.5 2zM93 348.5q0 22.5 20 22.5q18 -1 184 30q-1 63 0.5 124t3.5 91l2 29q2 15 13.5 20t21.5 -2t8 -22 q-6 -94 -6 -229q28 6 85 16t87 16q108 21 399 86q14 3 22.5 -6.5t6 -21.5t-17.5 -15q-75 -17 -212.5 -46t-187.5 -40q-30 -6 -90.5 -18t-91.5 -18q11 -212 18 -271q2 -17 3.5 -30.5t2.5 -19t2 -9.5t0.5 -6t-1.5 -4q119 0 311 36q209 43 377 93q71 17 127 36q13 3 21 -6.5 t6 -21.5t-15 -15q-25 -9 -72 -21.5t-55 -14.5q-207 -59 -383 -93q-246 -51 -393 -30q-106 15 -123 75q-6 14 2.5 23.5t20.5 8t16 -14.5q10 -25 35 -35q18 -8 82 -18q0 5 -6 58.5t-11.5 127t-7.5 145.5q-6 -1 -90 -16.5t-94 -15.5q-20 0 -20 22.5zM513.5 1039q-2.5 8 4.5 16 q4 6 16.5 23.5t16.5 23.5q6 8 15.5 25.5t13.5 23.5q6 11 18.5 12t17.5 -12q5 -11 33 -53q30 -42 37 -49q13 -6 3 -18q-8 -10 -17 -3q-46 33 -72 74q-37 -54 -57 -72q-8 -7 -17.5 -3t-12 12z" />
<glyph unicode="&#xcb;" horiz-adv-x="1224" d="M-98.5 752q-13.5 15 0.5 30q29 25 80 35q97 30 253 56t281 38q368 48 621 43q20 0 20 -21.5t-20 -21.5q-284 0 -615 -43q-113 -11 -337 -50t-253 -68q-17 -13 -30.5 2zM93 348.5q0 22.5 20 22.5q18 -1 184 30q-1 63 0.5 124t3.5 91l2 29q2 15 13.5 20t21.5 -2t8 -22 q-6 -94 -6 -229q28 6 85 16t87 16q108 21 399 86q14 3 22.5 -6.5t6 -21.5t-17.5 -15q-75 -17 -212.5 -46t-187.5 -40q-30 -6 -90.5 -18t-91.5 -18q11 -212 18 -271q2 -17 3.5 -30.5t2.5 -19t2 -9.5t0.5 -6t-1.5 -4q119 0 311 36q209 43 377 93q71 17 127 36q13 3 21 -6.5 t6 -21.5t-15 -15q-25 -9 -72 -21.5t-55 -14.5q-207 -59 -383 -93q-246 -51 -393 -30q-106 15 -123 75q-6 14 2.5 23.5t20.5 8t16 -14.5q10 -25 35 -35q18 -8 82 -18q0 5 -6 58.5t-11.5 127t-7.5 145.5q-6 -1 -90 -16.5t-94 -15.5q-20 0 -20 22.5zM463 1071q0 17 14 21 q10 10 25 10q14 0 24 -17q9 -17 -6 -38q-10 -19 -31 -19q-33 0 -26 43zM614 1071q0 17 15 21q10 10 24 10q15 0 25 -17q9 -17 -6 -38q-10 -19 -31 -19q-34 0 -27 43z" />
<glyph unicode="&#xcc;" horiz-adv-x="946" d="M-135 659q-3 21 17.5 37.5t49.5 28.5q116 57 357 106q162 41 430 91q32 5 137 23.5t154 25.5q-129 -28 -285 -68q-350 -88 -428 -110q-271 -79 -346 -111q-36 -14 -43 -25q0 -16 -23 -16q-6 -2 -12.5 3.5t-7.5 14.5zM18 -115q-4 11 2 20t13 11q11 5 24 -8q33 -6 99 14 q126 30 344 98q-8 118 -15 275q-11 291 -28 516q-1 15 10 21.5t22 1t11 -20.5q17 -219 28 -516q3 -64 8.5 -155.5t6.5 -104.5q13 4 48.5 15.5t79 24.5t97.5 27q167 40 252 46q-86 -15 -250 -68l-246 -94q-213 -82 -358 -115q-4 -1 -17 -3t-19 -3t-19 -3t-20.5 -2t-18.5 -0.5 t-18 1t-15 4t-13 7.5t-8 11zM319 1089.5q2 11.5 12 16t23 -1.5q140 -99 154 -111q7 -9 2 -17t-16 -3q-11 2 -77.5 39.5t-88.5 58.5q-11 7 -9 18.5z" />
<glyph unicode="&#xcd;" horiz-adv-x="946" d="M-135 659q-3 21 17.5 37.5t49.5 28.5q116 57 357 106q162 41 430 91q32 5 137 23.5t154 25.5q-129 -28 -285 -68q-350 -88 -428 -110q-271 -79 -346 -111q-36 -14 -43 -25q0 -16 -23 -16q-6 -2 -12.5 3.5t-7.5 14.5zM18 -115q-4 11 2 20t13 11q11 5 24 -8q33 -6 99 14 q126 30 344 98q-8 118 -15 275q-11 291 -28 516q-1 15 10 21.5t22 1t11 -20.5q17 -219 28 -516q3 -64 8.5 -155.5t6.5 -104.5q13 4 48.5 15.5t79 24.5t97.5 27q167 40 252 46q-86 -15 -250 -68l-246 -94q-213 -82 -358 -115q-4 -1 -17 -3t-19 -3t-19 -3t-20.5 -2t-18.5 -0.5 t-18 1t-15 4t-13 7.5t-8 11zM423.5 992.5q-6.5 9.5 2.5 17.5q68 51 80 57q66 46 86 55q17 8 26 -10t-8 -27v-2q-5 -4 -82 -47q-82 -47 -86 -49q-12 -4 -18.5 5.5z" />
<glyph unicode="&#xce;" horiz-adv-x="946" d="M-135 659q-3 21 17.5 37.5t49.5 28.5q116 57 357 106q162 41 430 91q32 5 137 23.5t154 25.5q-129 -28 -285 -68q-350 -88 -428 -110q-271 -79 -346 -111q-36 -14 -43 -25q0 -16 -23 -16q-6 -2 -12.5 3.5t-7.5 14.5zM18 -115q-4 11 2 20t13 11q11 5 24 -8q33 -6 99 14 q126 30 344 98q-8 118 -15 275q-11 291 -28 516q-1 15 10 21.5t22 1t11 -20.5q17 -219 28 -516q3 -64 8.5 -155.5t6.5 -104.5q13 4 48.5 15.5t79 24.5t97.5 27q167 40 252 46q-86 -15 -250 -68l-246 -94q-213 -82 -358 -115q-4 -1 -17 -3t-19 -3t-19 -3t-20.5 -2t-18.5 -0.5 t-18 1t-15 4t-13 7.5t-8 11zM388.5 994q-2.5 8 4.5 16q4 6 16.5 23.5t16.5 23.5q6 8 15.5 25.5t13.5 23.5q6 11 19 12t18 -12q7 -15 32 -53q30 -42 37 -49q13 -6 3 -18q-8 -10 -17 -3q-46 33 -72 74q-37 -54 -57 -72q-8 -7 -17.5 -3t-12 12z" />
<glyph unicode="&#xcf;" horiz-adv-x="946" d="M-135 659q-3 21 17.5 37.5t49.5 28.5q116 57 357 106q162 41 430 91q32 5 137 23.5t154 25.5q-129 -28 -285 -68q-350 -88 -428 -110q-271 -79 -346 -111q-36 -14 -43 -25q0 -16 -23 -16q-6 -2 -12.5 3.5t-7.5 14.5zM18 -115q-4 11 2 20t13 11q11 5 24 -8q33 -6 99 14 q126 30 344 98q-8 118 -15 275q-11 291 -28 516q-1 15 10 21.5t22 1t11 -20.5q17 -219 28 -516q3 -64 8.5 -155.5t6.5 -104.5q13 4 48.5 15.5t79 24.5t97.5 27q167 40 252 46q-86 -15 -250 -68l-246 -94q-213 -82 -358 -115q-4 -1 -17 -3t-19 -3t-19 -3t-20.5 -2t-18.5 -0.5 t-18 1t-15 4t-13 7.5t-8 11zM369 1001q0 17 14 21q10 10 25 10q14 0 24 -16q9 -18 -6 -39q-10 -19 -31 -19q-33 0 -26 43zM518 1001q0 17 14 21q10 10 25 10t25 -16q9 -17 -7 -39q-9 -19 -30 -19q-34 0 -27 43z" />
<glyph unicode="&#xd0;" horiz-adv-x="835" d="M-436 809q-6 29 20 45q27 21 92 31q44 9 154 18q170 9 364.5 -7t350.5 -56q187 -48 289 -123q80 -62 98 -137q19 -78 -31 -166q-43 -70 -137 -160q-81 -75 -326 -250q-269 -178 -340 -225q-154 -100 -344 -215q-14 -8 -35 -21t-30 -18.5t-23.5 -14.5t-20.5 -12.5 t-15.5 -10t-14 -10t-10.5 -8.5t-10 -9l-9 -9q13 21 42.5 45.5t111.5 85.5q30 22 334 234q29 20 150.5 102t185.5 127q207 143 319 248q84 76 125 147q40 71 27 127q-16 58 -80 107q-87 66 -269 114q-156 40 -346 58t-352 10q-131 -4 -209 -29q-25 -8 -29 -15.5t1 -27.5 q-8 0 -18.5 7t-14.5 18zM61 313q3 17 25 21q23 5 139 10q-5 56 -20 248q-1 14 10 20t22.5 1t12.5 -19q17 -219 20 -250h181q17 0 18 -18.5t-18 -18.5q-71 -4 -179 -6q7 -78 13.5 -133.5t8.5 -71.5l3 -16q2 -14 -8 -21.5t-21.5 -4t-13.5 17.5l-1 7q-1 7 -3 24t-5 41t-7.5 65 t-8.5 90l-147 -8q-21 6 -21 22z" />
<glyph unicode="&#xd1;" horiz-adv-x="899" d="M104 702q-4 21 10 30.5t33 -1.5q74 -53 209 -227q70 -90 322 -428q-14 227 6 411q22 219 104 355q96 160 277 248q109 52 238 71q128 18 250.5 3.5t228.5 -58.5q-234 68 -473 18q-125 -26 -222 -77q-173 -85 -262 -228q-76 -130 -98 -338q-18 -167 -8 -356q0 -23 4 -69.5 t4 -49.5q3 -17 -12.5 -23.5t-26.5 5.5q-45 60 -112.5 151.5t-103 139t-78 103.5t-72.5 93q-95 127 -166 191q10 -99 12 -174q10 -142 25 -566q0 -14 -11 -20t-22.5 -1.5t-12.5 17.5q-2 43 -5.5 168.5t-7.5 222t-9 174.5q-2 50 -5.5 92t-6.5 63t-6 39t-3 21zM315 877 q1 4 5 17.5t6 18.5q11 41 43 41q25 0 61 -24q24 -21 49 -29q12 -4 15 10q2 1 6 13q3 10 13 11.5t17.5 -5.5t4.5 -19q-6 -18 -19 -34q-16 -16 -47 -13q-4 1 -61 31q-23 12 -25 12l-14 4q-7 -17 -7 -37q-2 -14 -13.5 -18.5t-22.5 2t-11 19.5z" />
<glyph unicode="&#xd2;" horiz-adv-x="1126" d="M39 252q-30 169 47 334q34 77 90 145t125 111q39 25 82.5 41.5t94 21t87.5 -17.5q147 59 285 22q98 -27 166.5 -104.5t91.5 -194.5q30 -186 -51 -331q-52 -95 -151.5 -173t-209.5 -118q-96 -38 -198.5 -47.5t-200.5 12.5q-106 27 -172.5 105.5t-85.5 193.5zM88 260 q36 -206 221 -258q167 -44 373 29q104 40 196.5 111.5t137.5 158.5q37 64 50 143.5t-1 157.5q-20 100 -81 168t-146 92q-107 31 -240 -12q24 -37 6 -94q-13 68 -33 86q-50 -16 -92 -41q-155 -82 -231 -215q-68 -122 -68 -242q0 -109 70 -170q-73 52 -84 170q-6 125 57 258 q39 72 100.5 132.5t133.5 101.5q11 7 53 26q-81 5 -184 -57q-125 -86 -197 -240q-64 -144 -41 -305zM353 1133q13 17 32 6q140 -99 154 -111q7 -9 1.5 -17t-16.5 -3q-11 2 -77.5 39.5t-88.5 58.5q-17 10 -5 27z" />
<glyph unicode="&#xd3;" horiz-adv-x="1126" d="M39 252q-30 169 47 334q34 77 90 145t125 111q39 25 82.5 41.5t94 21t87.5 -17.5q147 59 285 22q98 -27 166.5 -104.5t91.5 -194.5q30 -186 -51 -331q-52 -95 -151.5 -173t-209.5 -118q-96 -38 -198.5 -47.5t-200.5 12.5q-106 27 -172.5 105.5t-85.5 193.5zM88 260 q36 -206 221 -258q167 -44 373 29q104 40 196.5 111.5t137.5 158.5q37 64 50 143.5t-1 157.5q-20 100 -81 168t-146 92q-107 31 -240 -12q24 -37 6 -94q-13 68 -33 86q-50 -16 -92 -41q-155 -82 -231 -215q-68 -122 -68 -242q0 -109 70 -170q-73 52 -84 170q-6 125 57 258 q39 72 100.5 132.5t133.5 101.5q11 7 53 26q-81 5 -184 -57q-125 -86 -197 -240q-64 -144 -41 -305zM370.5 1009q-6.5 9 2.5 17q68 51 80 57q70 49 86 56q17 8 26 -10t-8 -27v-2q-5 -4 -82 -47q-82 -47 -86 -49q-12 -4 -18.5 5z" />
<glyph unicode="&#xd4;" horiz-adv-x="1126" d="M39 252q-30 169 47 334q34 77 90 145t125 111q39 25 82.5 41.5t94 21t87.5 -17.5q147 59 285 22q98 -27 166.5 -104.5t91.5 -194.5q30 -186 -51 -331q-52 -95 -151.5 -173t-209.5 -118q-96 -38 -198.5 -47.5t-200.5 12.5q-106 27 -172.5 105.5t-85.5 193.5zM88 260 q36 -206 221 -258q167 -44 373 29q104 40 196.5 111.5t137.5 158.5q37 64 50 143.5t-1 157.5q-20 100 -81 168t-146 92q-107 31 -240 -12q24 -37 6 -94q-13 68 -33 86q-50 -16 -92 -41q-155 -82 -231 -215q-68 -122 -68 -242q0 -109 70 -170q-73 52 -84 170q-6 125 57 258 q39 72 100.5 132.5t133.5 101.5q11 7 53 26q-81 5 -184 -57q-125 -86 -197 -240q-64 -144 -41 -305zM403.5 1020q-2.5 8 4.5 16q4 6 16 23.5t16 23.5q6 8 15.5 26t13.5 24q6 11 19 12t18 -12q6 -14 33 -54q32 -46 36 -49q12 -6 3.5 -17t-17.5 -3q-47 34 -72 73 q-37 -53 -57 -71q-8 -7 -17 -3.5t-11.5 11.5z" />
<glyph unicode="&#xd5;" horiz-adv-x="1126" d="M39 252q-30 169 47 334q34 77 90 145t125 111q39 25 82.5 41.5t94 21t87.5 -17.5q147 59 285 22q98 -27 166.5 -104.5t91.5 -194.5q30 -186 -51 -331q-52 -95 -151.5 -173t-209.5 -118q-96 -38 -198.5 -47.5t-200.5 12.5q-106 27 -172.5 105.5t-85.5 193.5zM88 260 q36 -206 221 -258q167 -44 373 29q104 40 196.5 111.5t137.5 158.5q37 64 50 143.5t-1 157.5q-20 100 -81 168t-146 92q-107 31 -240 -12q24 -37 6 -94q-13 68 -33 86q-50 -16 -92 -41q-155 -82 -231 -215q-68 -122 -68 -242q0 -109 70 -170q-73 52 -84 170q-6 125 57 258 q39 72 100.5 132.5t133.5 101.5q11 7 53 26q-81 5 -184 -57q-125 -86 -197 -240q-64 -144 -41 -305zM389 1030q2 5 5 19t5 18q11 41 43 41q24 0 62 -25q22 -19 49 -28q11 -4 14 10q2 1 6 12q3 10 13 11.5t17.5 -5t4.5 -18.5q-7 -21 -18 -35q-16 -16 -47 -12q-6 2 -62 31 q-2 1 -5.5 3t-6 3.5t-6 3t-6.5 2.5l-15 4q-6 -15 -6 -37q-2 -14 -13.5 -18.5t-22.5 1.5t-11 19z" />
<glyph unicode="&#xd6;" horiz-adv-x="1126" d="M39 252q-30 169 47 334q34 77 90 145t125 111q39 25 82.5 41.5t94 21t87.5 -17.5q147 59 285 22q98 -27 166.5 -104.5t91.5 -194.5q30 -186 -51 -331q-52 -95 -151.5 -173t-209.5 -118q-96 -38 -198.5 -47.5t-200.5 12.5q-106 27 -172.5 105.5t-85.5 193.5zM88 260 q36 -206 221 -258q167 -44 373 29q104 40 196.5 111.5t137.5 158.5q37 64 50 143.5t-1 157.5q-20 100 -81 168t-146 92q-107 31 -240 -12q24 -37 6 -94q-13 68 -33 86q-50 -16 -92 -41q-155 -82 -231 -215q-68 -122 -68 -242q0 -109 70 -170q-73 52 -84 170q-6 125 57 258 q39 72 100.5 132.5t133.5 101.5q11 7 53 26q-81 5 -184 -57q-125 -86 -197 -240q-64 -144 -41 -305zM387 1038q0 18 14 21q10 10 25 10t25 -16q9 -17 -7 -39q-10 -19 -30 -19q-34 0 -27 43zM537 1038q0 18 14 21q10 10 24 10q15 0 25 -16q9 -18 -6 -39q-10 -19 -31 -19 q-33 0 -26 43z" />
<glyph unicode="&#xd7;" horiz-adv-x="444" d="M60 461.5q4 9.5 12 12t16 -4.5q54 -46 121 -111q54 60 119 123q12 9 24 -2t0 -24q-16 -17 -43 -47.5t-69 -75.5l122 -111q11 -18 0.5 -29.5t-30.5 1.5q-10 5 -33 24.5t-50.5 44.5t-39.5 35q-35 -36 -61 -65.5t-35 -40.5l-9 -11q-18 -11 -29.5 0.5t1.5 34.5q4 8 22.5 28.5 t43 47.5t36.5 41q-48 42 -115 112q-7 8 -3 17.5z" />
<glyph unicode="&#xd8;" horiz-adv-x="1126" d="M39 252q-30 169 47 334q34 77 90 145t125 111q39 25 82.5 41.5t94 21t87.5 -17.5q147 59 285 22q98 -27 166.5 -104.5t91.5 -194.5q30 -186 -51 -331q-52 -95 -151.5 -173t-209.5 -118q-207 -81 -397 -35q-10 -17 -14 -39q7 -5 8 -15t-6 -16q-9 -9 -22 -11t-21 7 q-14 19 -2 43q2 15 14 43q-89 33 -144 107.5t-73 179.5zM88 260q31 -186 191 -248q49 89 235 359q152 224 324 458q9 12 20.5 10.5t15 -11.5t-3.5 -23q-28 -40 -139.5 -199t-179.5 -260q-174 -252 -227 -346q160 -38 358 31q104 40 196.5 111.5t137.5 158.5q37 64 50 143.5 t-1 157.5q-20 100 -81 168t-146 92q-107 31 -240 -12q24 -37 6 -94q-13 68 -33 86q-50 -16 -92 -41q-155 -82 -231 -215q-68 -122 -68 -242q0 -109 70 -170q-73 52 -84 170q-6 125 57 258q39 72 100.5 132.5t133.5 101.5q11 7 53 26q-81 5 -184 -57q-125 -86 -197 -240 q-64 -144 -41 -305z" />
<glyph unicode="&#xd9;" horiz-adv-x="1062" d="M63 236q-7 246 56 704q3 13 14.5 17.5t22 -2t10.5 -21.5q-67 -452 -55 -694q0 -71 10.5 -120.5t44.5 -88.5q68 -82 192 -56q88 17 183.5 78t173.5 137q-8 132 6 304q23 193 53 292q20 82 49 111q15 13 33 13t31 -13q29 -29 49 -152q25 -189 -39 -358q-46 -119 -133 -209 q10 -120 31 -170q27 -65 92 -74q52 -9 141 7q27 6 77.5 22t61.5 19q-54 -33 -133 -66q-88 -27 -149 -20q-89 9 -129 94q-24 43 -37 145q-191 -171 -354 -203q-153 -31 -234 70q-37 46 -50.5 101t-17.5 133zM384 1141q13 17 32 6q139 -99 153 -111q7 -9 2 -17t-16 -3 q-11 2 -77.5 39.5t-88.5 58.5q-17 10 -5 27zM762 242q67 84 94 164q62 160 37 333q-22 108 -37 123q-23 -18 -37 -88q-27 -92 -49 -287q-12 -162 -8 -245z" />
<glyph unicode="&#xda;" horiz-adv-x="1062" d="M63 236q-7 246 56 704q3 13 14.5 17.5t22 -2t10.5 -21.5q-67 -452 -55 -694q0 -71 10.5 -120.5t44.5 -88.5q68 -82 192 -56q88 17 183.5 78t173.5 137q-8 132 6 304q23 193 53 292q20 82 49 111q15 13 33 13t31 -13q29 -29 49 -152q25 -189 -39 -358q-46 -119 -133 -209 q10 -120 31 -170q27 -65 92 -74q52 -9 141 7q27 6 77.5 22t61.5 19q-54 -33 -133 -66q-88 -27 -149 -20q-89 9 -129 94q-24 43 -37 145q-191 -171 -354 -203q-153 -31 -234 70q-37 46 -50.5 101t-17.5 133zM382.5 1023q-6.5 9 2.5 17q72 54 80 58q66 46 86 55q17 8 26 -10 t-8 -27v-2q-5 -4 -82 -47q-82 -47 -86 -49q-12 -4 -18.5 5zM762 242q67 84 94 164q62 160 37 333q-22 108 -37 123q-23 -18 -37 -88q-27 -92 -49 -287q-12 -162 -8 -245z" />
<glyph unicode="&#xdb;" horiz-adv-x="1062" d="M63 236q-7 246 56 704q3 13 14.5 17.5t22 -2t10.5 -21.5q-67 -452 -55 -694q0 -71 10.5 -120.5t44.5 -88.5q68 -82 192 -56q88 17 183.5 78t173.5 137q-8 132 6 304q23 193 53 292q20 82 49 111q15 13 33 13t31 -13q29 -29 49 -152q25 -189 -39 -358q-46 -119 -133 -209 q10 -120 31 -170q27 -65 92 -74q52 -9 141 7q27 6 77.5 22t61.5 19q-54 -33 -133 -66q-88 -27 -149 -20q-89 9 -129 94q-24 43 -37 145q-191 -171 -354 -203q-153 -31 -234 70q-37 46 -50.5 101t-17.5 133zM388.5 1020q-2.5 8 4.5 16q4 6 16.5 23.5t16.5 23.5q6 8 15.5 26 t13.5 24q6 11 19 12t18 -12q8 -18 32 -54q30 -42 37 -49q12 -6 3.5 -17t-17.5 -3q-47 34 -72 73q-37 -53 -57 -71q-8 -7 -17.5 -3.5t-12 11.5zM762 242q67 84 94 164q62 160 37 333q-22 108 -37 123q-23 -18 -37 -88q-27 -92 -49 -287q-12 -162 -8 -245z" />
<glyph unicode="&#xdc;" horiz-adv-x="1062" d="M63 236q-7 246 56 704q3 13 14.5 17.5t22 -2t10.5 -21.5q-67 -452 -55 -694q0 -71 10.5 -120.5t44.5 -88.5q68 -82 192 -56q88 17 183.5 78t173.5 137q-8 132 6 304q23 193 53 292q20 82 49 111q15 13 33 13t31 -13q29 -29 49 -152q25 -189 -39 -358q-46 -119 -133 -209 q10 -120 31 -170q27 -65 92 -74q52 -9 141 7q27 6 77.5 22t61.5 19q-54 -33 -133 -66q-88 -27 -149 -20q-89 9 -129 94q-24 43 -37 145q-191 -171 -354 -203q-153 -31 -234 70q-37 46 -50.5 101t-17.5 133zM371 1057q0 17 14 20q10 10 25 10q14 0 24 -16q9 -18 -6 -39 q-9 -18 -31 -18q-33 0 -26 43zM522 1057q0 16 15 20q10 10 24 10q15 0 25 -16q9 -18 -6 -39q-9 -18 -31 -18q-34 0 -27 43zM762 242q67 84 94 164q62 160 37 333q-22 108 -37 123q-23 -18 -37 -88q-27 -92 -49 -287q-12 -162 -8 -245z" />
<glyph unicode="&#xdd;" horiz-adv-x="964" d="M-160 -264q5 34 33 65q12 16 53 43q-34 -30 -47 -49q-22 -33 -22 -61q0 -33 18 -60q41 -61 160 -118q130 -60 262 -84q164 -32 270 -17q77 12 113 45q35 32 43 113q6 79 -23 272q-22 163 -28 250q-84 -65 -160 -94q-90 -29 -152 0q-61 24 -108 102q-68 115 -72 351 q0 92 17 280q1 14 12 19t21.5 -1t9.5 -20q-14 -211 -13 -278q0 -221 64 -328q36 -66 86 -88q50 -23 123 -2q68 22 168 106q-7 113 -4 195q4 137 10 211q12 98 24 141q24 95 66 137q24 24 49 19q24 -3 45 -27q9 -9 21 -33q40 -68 55 -174q11 -90 2 -145q-11 -67 -51 -137 q-59 -104 -166 -197q5 -79 33 -281q27 -187 20 -282q-11 -98 -57 -144q-46 -41 -142 -57q-119 -13 -286 21q-139 28 -267 94q-122 66 -163 139q-20 38 -17 74zM419.5 912.5q-6.5 9.5 2.5 17.5q68 51 80 57q66 46 86 55q17 8 26 -9.5t-8 -26.5v-2q-9 -7 -82 -48 q-82 -47 -86 -49q-12 -4 -18.5 5.5zM715 227q82 79 131 164q37 63 45 121q8 61 -2 133q-16 98 -51 158q-5 12 -17 24q-7 10 -12 11t-12 -7q-30 -30 -52 -114q-14 -52 -22 -133q-8 -96 -8 -209q-3 -78 0 -148z" />
<glyph unicode="&#xde;" horiz-adv-x="768" d="M-92 -41q170 53 209 66q9 368 2 708q-1 0 -4 -1t-4 -1q-11 -11 -22.5 -6.5t-13 16t6.5 21.5q6 6 35 24v101q-2 15 8 22t21.5 2t13.5 -20q0 -53 2 -84q79 33 145 43q140 28 240 -14q124 -51 160 -185q37 -117 -13 -239q-53 -113 -145 -195q-73 -65 -197 -129 q-83 -49 -192 -80q0 -6 -6 -135q0 -13 -11 -18t-21.5 1t-10.5 21q1 13 1.5 37.5t1.5 44.5t3 37q-105 -28 -209 -37zM160 39q16 7 55.5 23.5t68.5 29.5t54 27q118 69 184 133q93 89 129 174q41 108 13 213q-32 106 -136 154q-89 34 -213 12q-97 -17 -153 -47q7 -340 -2 -719z " />
<glyph unicode="&#xdf;" horiz-adv-x="516" d="M45 51q-10 26 4 43q2 7 12 12q9 7 17 -1t2 -17q-4 -6 -4 -14q0 -11 6 -13q3 -3 41 -22q40 -10 104 -6q77 9 138 59q73 59 65 125q-6 45 -47 78q-22 17 -45 24.5t-49 10.5t-29 4q-1 0 -4 1q-39 13 -45 30q-12 28 6 49q7 14 30 32.5t25 20.5q48 33 68 74q25 55 0 80 q-26 26 -82 0q-62 -30 -86 -121q-21 -58 -25 -160q-6 -81 3 -166q0 -13 -11 -19.5t-22.5 -2t-12.5 19.5q0 144 2 172q12 110 31 168q32 105 105 141q73 48 127 -2q25 -23 28 -59t-16 -70q-26 -50 -78 -92q-6 -5 -15.5 -12t-15.5 -11.5t-12 -10t-8 -9.5q14 -12 43 -12 q50 -5 117 -43q54 -45 63 -111q8 -88 -82 -164q-71 -58 -164 -67q-69 -4 -118 12q-55 22 -66 49z" />
<glyph unicode="&#xe0;" horiz-adv-x="528" d="M39 117q30 59 115 123q33 28 72.5 48t70.5 19q21 -4 32 -19t9 -34q-6 -29 -19 -33q-12 -12 -22.5 -1t-1.5 22q0 2 1 8t1 8q0 4 -6.5 4t-16 -2t-10.5 -2q-24 -10 -84 -53q-81 -66 -100 -105q-9 -30 0 -43q4 -6 39 -6q38 11 96 37q66 38 100 78q5 15 25 45q15 23 37 41 q9 6 19.5 5t15.5 -9q14 -11 2 -27q-17 -36 -49 -61q-12 -25 -13 -51t6 -33q21 -37 103 -37q74 -3 190 10q-129 -35 -190 -37q-98 -8 -133 39q-21 28 -21 60q-47 -37 -78 -54q-51 -30 -100 -43q-58 -11 -80 17q-27 24 -10 86zM154 518q11 17 30 7q1 0 2 -1q140 -98 154 -110 q8 -9 2 -17.5t-16 -3.5q-10 2 -77 40t-89 59q-16 10 -6 26z" />
<glyph unicode="&#xe1;" horiz-adv-x="528" d="M39 117q30 59 115 123q33 28 72.5 48t70.5 19q21 -4 32 -19t9 -34q-6 -29 -19 -33q-12 -12 -22.5 -1t-1.5 22q0 2 1 8t1 8q0 4 -6.5 4t-16 -2t-10.5 -2q-24 -10 -84 -53q-81 -66 -100 -105q-9 -30 0 -43q4 -6 39 -6q38 11 96 37q66 38 100 78q5 15 25 45q15 23 37 41 q9 6 19.5 5t15.5 -9q14 -11 2 -27q-17 -36 -49 -61q-12 -25 -13 -51t6 -33q21 -37 103 -37q74 -3 190 10q-129 -35 -190 -37q-98 -8 -133 39q-21 28 -21 60q-47 -37 -78 -54q-51 -30 -100 -43q-58 -11 -80 17q-27 24 -10 86zM180 396.5q-7 9.5 2 17.5q68 51 80 57 q66 46 86 55q17 8 26.5 -10t-7.5 -27v-2q-5 -4 -82 -47q-82 -47 -86 -49q-12 -4 -19 5.5z" />
<glyph unicode="&#xe2;" horiz-adv-x="528" d="M39 117q30 59 115 123q33 28 72.5 48t70.5 19q21 -4 32 -19t9 -34q-6 -29 -19 -33q-12 -12 -22.5 -1t-1.5 22q0 2 1 8t1 8q0 4 -6.5 4t-16 -2t-10.5 -2q-24 -10 -84 -53q-81 -66 -100 -105q-9 -30 0 -43q4 -6 39 -6q38 11 96 37q66 38 100 78q5 15 25 45q15 23 37 41 q9 6 19.5 5t15.5 -9q14 -11 2 -27q-17 -36 -49 -61q-12 -25 -13 -51t6 -33q21 -37 103 -37q74 -3 190 10q-129 -35 -190 -37q-98 -8 -133 39q-21 28 -21 60q-47 -37 -78 -54q-51 -30 -100 -43q-58 -11 -80 17q-27 24 -10 86zM192.5 410q-2.5 8 4.5 16q4 6 16 23.5t16 23.5 q6 8 15.5 25.5t13.5 23.5q6 11 19 12t18 -12q5 -11 33 -53q30 -42 37 -49q13 -6 2 -18q-8 -10 -17 -3q-44 32 -71 74q-38 -54 -58 -72q-8 -7 -17 -3t-11.5 12z" />
<glyph unicode="&#xe3;" horiz-adv-x="528" d="M39 117q30 59 115 123q33 28 72.5 48t70.5 19q21 -4 32 -19t9 -34q-6 -29 -19 -33q-12 -12 -22.5 -1t-1.5 22q0 2 1 8t1 8q0 4 -6.5 4t-16 -2t-10.5 -2q-24 -10 -84 -53q-81 -66 -100 -105q-9 -30 0 -43q4 -6 39 -6q38 11 96 37q66 38 100 78q5 15 25 45q15 23 37 41 q9 6 19.5 5t15.5 -9q14 -11 2 -27q-17 -36 -49 -61q-12 -25 -13 -51t6 -33q21 -37 103 -37q74 -3 190 10q-129 -35 -190 -37q-98 -8 -133 39q-21 28 -21 60q-47 -37 -78 -54q-51 -30 -100 -43q-58 -11 -80 17q-27 24 -10 86zM150 414q2 5 5 19t5 18q11 41 43 41q23 0 61 -25 q24 -21 49 -29q12 -4 15 11q2 1 6 12q3 10 13 11.5t17.5 -5t4.5 -18.5q-6 -19 -19 -35q-16 -16 -47 -13q-4 1 -61 31q-23 12 -25 12l-14 5q-6 -15 -6 -37q-2 -14 -13.5 -18.5t-22.5 1.5t-11 19z" />
<glyph unicode="&#xe4;" horiz-adv-x="528" d="M39 117q30 59 115 123q33 28 72.5 48t70.5 19q21 -4 32 -19t9 -34q-6 -29 -19 -33q-12 -12 -22.5 -1t-1.5 22q0 2 1 8t1 8q0 4 -6.5 4t-16 -2t-10.5 -2q-24 -10 -84 -53q-81 -66 -100 -105q-9 -30 0 -43q4 -6 39 -6q38 11 96 37q66 38 100 78q5 15 25 45q15 23 37 41 q9 6 19.5 5t15.5 -9q14 -11 2 -27q-17 -36 -49 -61q-12 -25 -13 -51t6 -33q21 -37 103 -37q74 -3 190 10q-129 -35 -190 -37q-98 -8 -133 39q-21 28 -21 60q-47 -37 -78 -54q-51 -30 -100 -43q-58 -11 -80 17q-27 24 -10 86zM162 432q0 18 14 21q10 10 25 10q14 0 24 -17 q9 -17 -6 -38q-9 -19 -31 -19q-33 0 -26 43zM313 432q0 17 15 21q10 10 24 10q15 0 25 -17q9 -17 -6 -38q-9 -19 -31 -19q-34 0 -27 43z" />
<glyph unicode="&#xe5;" horiz-adv-x="528" d="M39 117q30 59 115 123q43 34 69 47q-20 16 -26 45q-9 56 26 94q3 4 13 10t12 8q0 9 12 17q52 18 90 -17q23 -19 32.5 -48t0.5 -58q-10 -46 -49 -62q4 -8 4 -22q-6 -29 -19 -33q-12 -12 -22.5 -1t-1.5 22q0 2 1 8t1 8q0 4 -6.5 4t-16 -2t-10.5 -2q-24 -10 -84 -53 q-81 -66 -100 -105q-9 -30 0 -43q4 -6 39 -6q38 11 96 37q66 38 100 78q5 15 25 45q15 23 37 41q9 6 19.5 5t15.5 -9q14 -11 2 -27q-17 -36 -49 -61q-12 -25 -13 -51t6 -33q21 -37 103 -37q74 -3 190 10q-129 -35 -190 -37q-98 -8 -133 39q-21 28 -21 60q-47 -37 -78 -54 q-51 -30 -100 -43q-58 -11 -80 17q-27 24 -10 86zM240 344q4 -22 18 -25q20 -17 49 -6q28 7 37 33q4 47 -22 66q-8 8 -19 8q-2 -2 -14 -2l-9 -5q-10 -5 -18.5 -11.5t-13.5 -14.5q-13 -26 -8 -43z" />
<glyph unicode="&#xe6;" horiz-adv-x="694" d="M31 70q0 21 12 49q17 41 55 74q35 34 85.5 68t86.5 42q34 8 52 -8q23 -19 16 -47q-9 -17 -19 -25q-12 -9 -22.5 1t-1.5 22q1 4 1 7t1 5q0 2 -8 2q-20 0 -31 -8q-66 -29 -129 -92q-33 -33 -47 -60q-8 -11 -8 -26q3 -17 12 -19q23 -12 80 2q35 11 86 43q81 56 106 103 q0 18 7 30q11 21 30 21q5 0 11 -6q25 28 75 47q40 17 86 20q60 7 97 -20q27 -24 24 -55q0 -18 -18 -54q-31 -31 -84 -45q-9 -4 -86 -16q-82 0 -113 31q-33 -44 -25 -82q6 -38 101 -43q37 -4 123 -4q133 12 207 22q-118 -32 -203 -43q-72 -10 -127 -10q-102 0 -131 43 q-18 35 -13 67l-22 -16t-18 -13t-9 -7q-45 -28 -92 -45q-79 -26 -115 -7q-11 5 -21 19.5t-11 32.5zM412 186q22 -24 88 -24q46 0 73 16q41 11 60 39q8 8 8 23q0 14 -6 18q-14 12 -64 12q-38 -7 -71 -18q-45 -16 -88 -66z" />
<glyph unicode="&#xe7;" horiz-adv-x="368" d="M31 100q-4 32 20 90q44 86 121 125q35 28 76 19q22 -6 43 -27q5 -9 -2.5 -17.5t-16.5 -4.5q-1 0 -4 1t-8 2.5t-8 2.5q-18 3 -59 -12q-64 -35 -101 -107q-16 -29 -16 -68q0 -18 16 -34q15 -13 62 -25q45 -6 155 -6q49 0 219 10q-37 -6 -107.5 -18.5t-107.5 -18.5 q-75 -6 -77 -6q-2 -19 -13 -65q20 0 43 -23q23 -18 19 -63q-6 -38 -31 -60q-42 -33 -80 -24q-23 6 -41 24q-6 9 4 18.5t19 0.5q13 -13 24 -13q29 -4 49 19q13 16 19 37q1 22 -9.5 33.5t-22.5 10t-21 -6.5q-11 -9 -24 1t-7 27q21 44 24 82q-17 0 -41 4q-56 7 -86 31 q-27 27 -30 61z" />
<glyph unicode="&#xe8;" horiz-adv-x="387" d="M27 70q0 28 18 84q24 55 66 100q24 28 59 48.5t66 23.5q55 3 65 -47q6 -26 -5 -60t-30 -59q-54 -71 -123 -103q-18 -9 -39 -18q31 -6 105 -6q22 0 46.5 1t54.5 2.5t46 2.5q25 2 74 5t74 5q-123 -26 -146 -29q-114 -19 -149 -20q-119 -10 -160 20q-22 16 -22 50zM74 57 q7 4 26.5 13.5t28.5 15.5q57 26 100 94q14 20 23.5 46.5t5.5 43.5q0 5 -5 8.5t-13 0.5q-17 -2 -44.5 -17t-52.5 -41q-38 -47 -55 -86q-18 -53 -14 -78zM102 528.5q2 11.5 12 16t23 -1.5q140 -99 154 -111q7 -9 1.5 -17t-16.5 -3q-10 2 -76.5 39.5t-88.5 58.5q-11 7 -9 18.5z " />
<glyph unicode="&#xe9;" horiz-adv-x="387" d="M27 70q0 28 18 84q24 55 66 100q24 28 59 48.5t66 23.5q55 3 65 -47q6 -26 -5 -60t-30 -59q-54 -71 -123 -103q-18 -9 -39 -18q31 -6 105 -6q22 0 46.5 1t54.5 2.5t46 2.5q25 2 74 5t74 5q-123 -26 -146 -29q-114 -19 -149 -20q-119 -10 -160 20q-22 16 -22 50zM74 57 q7 4 26.5 13.5t28.5 15.5q57 26 100 94q14 20 23.5 46.5t5.5 43.5q0 5 -5 8.5t-13 0.5q-17 -2 -44.5 -17t-52.5 -41q-38 -47 -55 -86q-18 -53 -14 -78zM106.5 406.5q-6.5 9.5 2.5 17.5q70 53 79 57q70 49 86 56q17 8 26.5 -10t-7.5 -27v-2q-5 -4 -82 -47q-23 -13 -40 -23 t-24 -14.5t-12.5 -7.5t-9.5 -5q-12 -4 -18.5 5.5z" />
<glyph unicode="&#xea;" horiz-adv-x="387" d="M27 70q0 28 18 84q24 55 66 100q24 28 59 48.5t66 23.5q55 3 65 -47q6 -26 -5 -60t-30 -59q-54 -71 -123 -103q-18 -9 -39 -18q31 -6 105 -6q22 0 46.5 1t54.5 2.5t46 2.5q25 2 74 5t74 5q-123 -26 -146 -29q-114 -19 -149 -20q-119 -10 -160 20q-22 16 -22 50zM74 57 q7 4 26.5 13.5t28.5 15.5q57 26 100 94q14 20 23.5 46.5t5.5 43.5q0 5 -5 8.5t-13 0.5q-17 -2 -44.5 -17t-52.5 -41q-38 -47 -55 -86q-18 -53 -14 -78zM138.5 424q-2.5 8 4.5 16q4 6 16.5 23.5t16.5 23.5q6 8 15.5 26t13.5 24q6 11 19 12t18 -12q8 -18 32 -54q30 -42 37 -49 q12 -6 3.5 -17t-17.5 -3q-47 34 -72 73q-37 -53 -57 -71q-8 -7 -17.5 -3.5t-12 11.5z" />
<glyph unicode="&#xeb;" horiz-adv-x="387" d="M27 70q0 28 18 84q24 55 66 100q24 28 59 48.5t66 23.5q55 3 65 -47q6 -26 -5 -60t-30 -59q-54 -71 -123 -103q-18 -9 -39 -18q31 -6 105 -6q22 0 46.5 1t54.5 2.5t46 2.5q25 2 74 5t74 5q-123 -26 -146 -29q-114 -19 -149 -20q-119 -10 -160 20q-22 16 -22 50zM74 57 q7 4 26.5 13.5t28.5 15.5q57 26 100 94q14 20 23.5 46.5t5.5 43.5q0 5 -5 8.5t-13 0.5q-17 -2 -44.5 -17t-52.5 -41q-38 -47 -55 -86q-18 -53 -14 -78zM100 449q0 16 15 20q10 10 24 10q15 0 25 -16q9 -18 -6 -39q-9 -18 -31 -18q-34 0 -27 43zM252 449q0 17 14 20 q10 10 25 10q14 0 24 -16q9 -18 -6 -39q-9 -18 -30 -18q-34 0 -27 43z" />
<glyph unicode="&#xec;" horiz-adv-x="251" d="M-27 567.5q2 11.5 12 16t23 -1.5q140 -99 154 -111q7 -9 1.5 -17t-16.5 -3q-10 2 -76.5 39.5t-88.5 58.5q-11 7 -9 18.5zM74 229q0 21 20 26q19 4 24 -12q1 -3 1 -7q-5 -125 6 -173q10 -20 22 -26q10 -10 74 -4q30 6 64 6q-13 -9 -62 -27q-68 -20 -98 -12q-12 3 -20.5 11 t-12.5 16t-10 24q-8 37 -8 178z" />
<glyph unicode="&#xed;" horiz-adv-x="223" d="M68 229q0 21 20 26q19 4 24 -12q1 -3 1 -7q-5 -125 6 -173q10 -20 22 -26q10 -10 74 -4q30 6 64 6q-13 -9 -62 -27q-68 -20 -98 -12q-12 3 -20.5 11t-12.5 16t-10 24q-8 37 -8 178zM87.5 458q-6.5 9 2.5 17q68 51 80 57q70 49 86 56q17 8 26 -10t-8 -27v-2q-7 -6 -81 -47 q-75 -43 -87 -49q-12 -4 -18.5 5z" />
<glyph unicode="&#xee;" horiz-adv-x="235" d="M34.5 447q-2.5 8 4.5 16q4 6 16.5 23.5t16.5 23.5q6 8 15 25t13 24q6 11 19 12t18 -12q5 -11 33 -53q30 -42 37 -49q13 -6 3 -18q-8 -10 -17 -3q-46 33 -72 74q-38 -54 -58 -72q-8 -7 -17 -3t-11.5 12zM80 229q0 21 20 26q19 4 24 -12q1 -3 1 -7q-5 -125 6 -173 q10 -19 23 -26q10 -10 73 -4q30 6 64 6q-13 -9 -62 -27q-68 -20 -98 -12q-12 3 -20.5 11t-12.5 16t-10 24q-8 37 -8 178z" />
<glyph unicode="&#xef;" horiz-adv-x="235" d="M20 473q0 17 15 21q10 10 24 10q15 0 25 -17q9 -17 -6 -38q-10 -19 -31 -19q-34 0 -27 43zM70 229q0 21 20 26q19 4 24 -12q1 -3 1 -7q-5 -125 6 -173q10 -20 22 -26q10 -10 74 -4q30 6 64 6q-13 -9 -62 -27q-68 -20 -98 -12q-12 3 -20.5 11t-12.5 16t-10 24 q-8 37 -8 178zM172 473q0 17 14 21q10 10 25 10t25 -17q8 -17 -7 -38q-9 -19 -30 -19q-34 0 -27 43z" />
<glyph unicode="&#xf0;" horiz-adv-x="503" d="M27 154q-21 44 0 73q15 18 43 27q57 17 133 6q69 -11 116 -31q-16 56 -16 109q0 4 -1 12t-1 12h47q0 -14 2 -22q4 -88 27 -143q24 -20 35 -31q22 -28 32 -62q4 -17 -8.5 -25.5t-23.5 1.5q-34 27 -54 55q-20 35 -24 43q-13 11 -49 27q-37 15 -86 18q-60 6 -117 -12 q-18 -4 -25 -14q-3 -10 4 -29q17 -43 76 -86q59 -42 105 -62q71 -24 110 -20q29 6 31 18q2 3 2 6.5t-1 8t-1 6.5q-1 5 -2.5 10.5t-2.5 9t-1 4.5q-6 9 2 17.5t20 1.5q0 -1 3.5 -4.5t8 -11t7.5 -15.5q9 -21 6 -43q-8 -40 -66 -51q-51 -12 -135 27q-58 25 -106 67 q-60 50 -90 103zM162 375q3 17 16 20q10 5 53.5 9t63.5 4h6v-46h-6l-119 -12q-14 6 -14 25zM301 408l6 67q2 35 15 135q2 15 13.5 19t21.5 -3.5t8 -21.5q-9 -63 -13 -131q-6 -30 -6 -65h-45zM346 408h70q11 0 11.5 -19.5t-11.5 -19.5q-44 -5 -68 -7q-2 14 -2 46z" />
<glyph unicode="&#xf1;" horiz-adv-x="516" d="M70 264q-3 15 6.5 23t21.5 5t15 -16q7 -42 12 -122v-50q41 59 78 101q30 42 86 86q39 31 55 37q20 9 31 -2.5t0 -30.5q-11 -24 -19 -55q-25 -99 6 -148q32 -49 132 -49q13 -3 70.5 -0.5t64.5 2.5q-67 -24 -131 -33q-71 0 -109 13q-45 14 -66.5 56t-19.5 97q0 42 16 92 q-49 -39 -90 -90q-40 -54 -82 -117l-28 -38q-9 -14 -24 -9.5t-15 21.5v117q0 58 -10 110zM121 440q2 5 5 19t5 18q11 41 43 41q26 0 62 -24q24 -21 49 -29q11 -4 14 10q2 1 6 12q3 10 13 11.5t17.5 -5t4.5 -18.5q-7 -21 -18 -35q-16 -16 -48 -12q-4 1 -61 31q-23 12 -25 12 l-14 4q-6 -15 -6 -37q-2 -14 -13.5 -18.5t-22.5 1.5t-11 19z" />
<glyph unicode="&#xf2;" horiz-adv-x="337" d="M25 125q8 74 73 139q21 21 39 33q12 7 22 2t13 -16q19 11 45 0q38 -15 66 -50q32 -41 32 -77q8 -53 -43 -101q-65 -58 -147 -49q-52 3 -76 37q-31 27 -24 82zM56 512q13 17 32 6q140 -98 154 -110q7 -9 1.5 -17.5t-16.5 -3.5q-11 2 -77.5 39.5t-88.5 58.5q-17 10 -5 27z M70 119q-3 -28 12 -51q13 -22 47 -29q26 -2 59 9.5t58 33.5q32 32 26 72q-3 26 -24 51q-13 26 -43 37q-6 4 -15 4q0 -3 -4 -7.5t-10.5 -7.5t-15.5 2q-12 11 -13 19q-7 -7 -15 -16t-17.5 -20t-14.5 -17q-25 -41 -30 -80z" />
<glyph unicode="&#xf3;" horiz-adv-x="337" d="M25 125q8 74 73 139q21 21 39 33q12 7 22 2t13 -16q19 11 45 0q38 -15 66 -50q32 -41 32 -77q8 -53 -43 -101q-65 -58 -147 -49q-52 3 -76 37q-31 27 -24 82zM49 390.5q-7 9.5 2 17.5q68 51 80 57q66 46 86 55q17 8 26.5 -10t-7.5 -27v-2q-5 -4 -82 -47q-82 -47 -86 -49 q-12 -4 -19 5.5zM70 119q-3 -28 12 -51q13 -22 47 -29q26 -2 59 9.5t58 33.5q32 32 26 72q-3 26 -24 51q-13 26 -43 37q-6 4 -15 4q0 -3 -4 -7.5t-10.5 -7.5t-15.5 2q-12 11 -13 19q-7 -7 -15 -16t-17.5 -20t-14.5 -17q-25 -41 -30 -80z" />
<glyph unicode="&#xf4;" horiz-adv-x="337" d="M25 125q8 74 73 139q21 21 39 33q12 7 22 2t13 -16q19 11 45 0q38 -15 66 -50q32 -41 32 -77q8 -53 -43 -101q-65 -58 -147 -49q-52 3 -76 37q-31 27 -24 82zM70 119q-3 -28 12 -51q13 -22 47 -29q26 -2 59 9.5t58 33.5q32 32 26 72q-3 26 -24 51q-13 26 -43 37 q-6 4 -15 4q0 -3 -4 -7.5t-10.5 -7.5t-15.5 2q-12 11 -13 19q-7 -7 -15 -16t-17.5 -20t-14.5 -17q-25 -41 -30 -80zM77.5 404q-2.5 8 4.5 16q4 6 16.5 23.5t16.5 23.5q6 8 15 25t13 24q6 11 19 12t18 -12q5 -11 33 -53q30 -42 37 -49q13 -6 3 -18q-8 -10 -17 -3 q-46 33 -72 74q-38 -54 -58 -72q-8 -7 -17 -3t-11.5 12z" />
<glyph unicode="&#xf5;" horiz-adv-x="337" d="M25 125q8 74 73 139q21 21 39 33q12 7 22 2t13 -16q19 11 45 0q38 -15 66 -50q32 -41 32 -77q8 -53 -43 -101q-65 -58 -147 -49q-52 3 -76 37q-31 27 -24 82zM39 410q2 5 5 18.5t5 17.5q11 41 43 41q26 0 62 -24q24 -21 49 -29q11 -4 14 10q2 1 6 13q3 10 13 11.5 t17.5 -5.5t4.5 -19q-7 -20 -18 -34q-16 -16 -47 -13q-6 2 -62 31q-23 12 -25 12l-14 4q-6 -15 -6 -36q-2 -14 -13.5 -18.5t-22.5 1.5t-11 19zM70 119q-3 -28 12 -51q13 -22 47 -29q26 -2 59 9.5t58 33.5q32 32 26 72q-3 26 -24 51q-13 26 -43 37q-6 4 -15 4q0 -3 -4 -7.5 t-10.5 -7.5t-15.5 2q-12 11 -13 19q-7 -7 -15 -16t-17.5 -20t-14.5 -17q-25 -41 -30 -80z" />
<glyph unicode="&#xf6;" horiz-adv-x="337" d="M25 125q8 74 73 139q21 21 39 33q12 7 22 2t13 -16q19 11 45 0q38 -15 66 -50q32 -41 32 -77q8 -53 -43 -101q-65 -58 -147 -49q-52 3 -76 37q-31 27 -24 82zM45 424q0 16 14 20q11 11 25 11q15 0 25 -17q9 -17 -7 -39q-9 -18 -30 -18q-34 0 -27 43zM70 119 q-3 -28 12 -51q13 -22 47 -29q26 -2 59 9.5t58 33.5q32 32 26 72q-3 26 -24 51q-13 26 -43 37q-6 4 -15 4q0 -3 -4 -7.5t-10.5 -7.5t-15.5 2q-12 11 -13 19q-7 -7 -15 -16t-17.5 -20t-14.5 -17q-25 -41 -30 -80zM197 424q0 16 14 20q11 11 25 11t24 -17q9 -18 -6 -39 q-9 -18 -31 -18q-33 0 -26 43z" />
<glyph unicode="&#xf7;" horiz-adv-x="577" d="M80 313q3 17 24 21q42 10 179 10h186q17 0 18 -18.5t-18 -18.5q-75 -4 -186 -6l-183 -10q-20 6 -20 22zM252 160q0 16 14 20q10 10 25 10q14 0 24 -16q9 -18 -6 -39q-9 -18 -30 -18q-34 0 -27 43zM252 498q0 16 14 20q10 10 25 10q14 0 24 -16q9 -18 -6 -39 q-9 -18 -30 -18q-34 0 -27 43z" />
<glyph unicode="&#xf8;" horiz-adv-x="337" d="M2 -55q2 6 6 12.5t7.5 11.5t11 13.5t11.5 13t14 15t14 14.5q-16 16 -17 18q-31 27 -24 82q8 74 73 139q21 21 39 33q12 7 22 2t13 -16q19 11 45 0q30 -12 57 -39l5 4l96 96q7 7 15.5 3t11.5 -12t-3 -16q-30 -33 -43 -47.5t-49 -54.5l-8 -8q16 -26 16 -53q8 -53 -43 -101 q-65 -58 -147 -49q-13 0 -19 2l-69 -86q-12 -10 -25.5 -2t-9.5 25zM70 119q-3 -28 12 -51q5 -11 10 -13q75 81 152 158q-14 16 -39 29q-6 4 -15 4q0 -3 -4 -7.5t-10.5 -7.5t-15.5 2q-12 11 -13 19q-7 -7 -15 -16t-17.5 -20t-14.5 -17q-25 -41 -30 -80zM137 39q60 0 109 43 q32 32 26 72q0 1 -2 8.5t-4 11.5q-102 -110 -129 -135z" />
<glyph unicode="&#xf9;" horiz-adv-x="561" d="M33 143q0 59 10 172q1 15 12 19.5t21.5 -2t9.5 -19.5q-1 -23 -5.5 -81.5t-4.5 -84.5q7 -69 24 -84q18 -18 41 -18q57 0 138 68q20 17 53 55q0 38 14 78q4 14 18 15.5t23 -9.5q15 -29 -12 -78q-6 -39 12 -74q25 -49 113 -61q77 -8 182 10q-88 -37 -184 -37q-76 0 -127 39 q-31 39 -37 66q-14 -17 -31 -31q-92 -79 -160 -84q-44 0 -73 29q-14 14 -22.5 35t-10 33.5t-4.5 43.5zM130 537q13 17 32 6q139 -99 153 -111q7 -9 2 -17t-16 -3q-11 2 -77.5 39.5t-88.5 58.5q-17 10 -5 27z" />
<glyph unicode="&#xfa;" horiz-adv-x="561" d="M33 143q0 59 10 172q1 15 12 19.5t21.5 -2t9.5 -19.5q-1 -23 -5.5 -81.5t-4.5 -84.5q7 -69 24 -84q18 -18 41 -18q57 0 138 68q20 17 53 55q0 38 14 78q4 14 18 15.5t23 -9.5q15 -29 -12 -78q-6 -39 12 -74q25 -49 113 -61q77 -8 182 10q-88 -37 -184 -37q-76 0 -127 39 q-31 39 -37 66q-14 -17 -31 -31q-92 -79 -160 -84q-44 0 -73 29q-14 14 -22.5 35t-10 33.5t-4.5 43.5zM124.5 415q-6.5 9 2.5 17q68 51 80 57q70 49 86 56q17 8 26 -10t-8 -27v-2q-5 -4 -82 -47q-82 -47 -86 -49q-12 -4 -18.5 5z" />
<glyph unicode="&#xfb;" horiz-adv-x="561" d="M33 143q0 59 10 172q1 15 12 19.5t21.5 -2t9.5 -19.5q-1 -23 -5.5 -81.5t-4.5 -84.5q7 -69 24 -84q18 -18 41 -18q57 0 138 68q20 17 53 55q0 38 14 78q4 14 18 15.5t23 -9.5q15 -29 -12 -78q-6 -39 12 -74q25 -49 113 -61q77 -8 182 10q-88 -37 -184 -37q-76 0 -127 39 q-31 39 -37 66q-14 -17 -31 -31q-92 -79 -160 -84q-44 0 -73 29q-14 14 -22.5 35t-10 33.5t-4.5 43.5zM138.5 430q-2.5 8 4.5 16q4 6 16.5 24t16.5 24q6 8 15.5 25.5t13.5 23.5q6 11 19 12t18 -12q8 -18 32 -54q30 -42 37 -49q12 -6 3.5 -17t-17.5 -3q-46 33 -72 74 q-37 -54 -57 -72q-8 -7 -17.5 -3.5t-12 11.5z" />
<glyph unicode="&#xfc;" horiz-adv-x="561" d="M33 143q0 59 10 172q1 15 12 19.5t21.5 -2t9.5 -19.5q-1 -23 -5.5 -81.5t-4.5 -84.5q7 -69 24 -84q18 -18 41 -18q57 0 138 68q20 17 53 55q0 38 14 78q4 14 18 15.5t23 -9.5q15 -29 -12 -78q-6 -39 12 -74q25 -49 113 -61q77 -8 182 10q-88 -37 -184 -37q-76 0 -127 39 q-31 39 -37 66q-14 -17 -31 -31q-92 -79 -160 -84q-44 0 -73 29q-14 14 -22.5 35t-10 33.5t-4.5 43.5zM117 461q0 17 14 20q11 11 25 11t24 -17q9 -18 -6 -39q-9 -18 -31 -18q-33 0 -26 43zM266 461q0 16 15 20q11 11 24 11q15 0 25 -17q9 -18 -6 -39q-9 -18 -31 -18 q-34 0 -27 43z" />
<glyph unicode="&#xfd;" horiz-adv-x="442" d="M39 143q0 24 5.5 67t6.5 60q3 13 15 16.5t22.5 -3t9.5 -19.5q-10 -58 -16 -123q0 -66 16 -84q12 -12 21 -12q21 0 53 12q49 20 100 68q0 30 11 80q11 56 32 84q27 33 37 37q29 14 43 -7q11 -22 11 -40q0 -37 -23 -89q-28 -48 -64 -84q0 -42 9 -88q79 31 209 31 q-114 -15 -205 -49q10 -53 30 -117q9 -33 39 -116q34 -104 43 -166q8 -88 -30 -133q-34 -43 -101 -46q-92 -9 -157 37q-77 52 -93 150q-11 83 29 172q28 75 94 141q44 44 99 78q-1 9 -5 34.5t-4 39.5q-36 -23 -90 -49q-39 -19 -69 -17q-32 0 -49 23q-29 31 -29 112z M104 -385q19 -81 76 -123q59 -34 123 -31q56 7 78 35q29 39 18 101q-7 57 -41 153q-5 19 -19 58.5t-20 62.5q-20 55 -28 104q-46 -34 -82 -73q-62 -73 -80 -133q-34 -75 -25 -154zM135 413q-7 9 2 17q68 51 80 57q70 49 86 56q17 8 26.5 -10t-7.5 -27v-2q-5 -4 -82 -47 q-82 -47 -86 -49q-12 -4 -19 5zM322 178q36 42 36 92q-26 -38 -36 -92z" />
<glyph unicode="&#xfe;" horiz-adv-x="399" d="M0 -31q24 6 86 27v274q-9 6 -9 18t9 19v144q0 15 11 21t21.5 0t10.5 -21v-123q25 8 51 12q87 20 135 -12q17 -9 30.5 -30.5t16.5 -45.5q2 -43 -24 -105q-31 -57 -88 -100.5t-121 -64.5q0 -277 -4 -361q-1 -13 -12 -17.5t-22 1.5t-11 20q6 240 6 346q-42 -9 -86 -2z M129 14q123 61 168 152q23 51 18 80q-2 30 -24 43q-36 20 -101 6q-18 -3 -61 -16v-265z" />
<glyph unicode="&#xff;" horiz-adv-x="442" d="M39 143q0 24 5.5 67t6.5 60q3 13 15 16.5t22.5 -3t9.5 -19.5q-10 -58 -16 -123q0 -66 16 -84q12 -12 21 -12q21 0 53 12q49 20 100 68q0 30 11 80q11 56 32 84q27 33 37 37q29 14 43 -7q11 -22 11 -40q0 -37 -23 -89q-28 -48 -64 -84q0 -42 9 -88q79 31 209 31 q-114 -15 -205 -49q10 -53 30 -117q9 -33 39 -116q34 -104 43 -166q8 -88 -30 -133q-34 -43 -101 -46q-92 -9 -157 37q-77 52 -93 150q-11 83 29 172q28 75 94 141q44 44 99 78q-1 9 -5 34.5t-4 39.5q-36 -23 -90 -49q-39 -19 -69 -17q-32 0 -49 23q-29 31 -29 112z M104 -385q19 -81 76 -123q59 -34 123 -31q56 7 78 35q29 39 18 101q-7 57 -41 153q-5 19 -19 58.5t-20 62.5q-20 55 -28 104q-46 -34 -82 -73q-62 -73 -80 -133q-34 -75 -25 -154zM111 455q0 17 14 20q10 10 25 10q14 0 24 -16q9 -18 -6 -39q-9 -18 -31 -18q-33 0 -26 43z M260 455q0 17 14 20q10 10 25 10t25 -16q9 -17 -7 -39q-9 -18 -30 -18q-34 0 -27 43zM322 178q36 42 36 92q-26 -38 -36 -92z" />
<glyph unicode="&#x152;" horiz-adv-x="1927" d="M39 252q-30 169 47 334q34 77 90 145t125 111q39 25 82.5 41.5t94 21t87.5 -17.5q147 59 285 22q42 -11 86 -37q186 29 287 39q368 48 620 43q20 0 20 -21.5t-20 -21.5q-283 0 -614 -43q-60 -7 -242 -34q94 -85 121 -224q15 -93 0 -186q74 12 111 20q108 21 399 86 q14 3 22.5 -6.5t5.5 -21.5t-18 -15q-75 -17 -212.5 -46t-186.5 -40q-35 -8 -133 -26q-15 -53 -39 -96l-6 -13q3 -94 14 -172q1 -12 2.5 -23t2 -17t1.5 -11l1.5 -7.5t0.5 -4.5t-0.5 -3l-1.5 -3q119 0 311 36q209 43 377 93q71 17 127 36q13 3 21 -6.5t6 -21.5t-15 -15 q-25 -9 -72.5 -21.5t-53.5 -14.5q-207 -59 -383 -93q-246 -51 -394 -30q-106 15 -123 75q-5 8 -2 17q-89 -63 -174 -92q-96 -38 -198.5 -47.5t-200.5 12.5q-106 27 -172.5 105.5t-85.5 193.5zM88 260q36 -206 221 -258q167 -44 373 29q99 38 187.5 104t136.5 148 q0 12 -1 36.5t-1 38.5q-6 -1 -90.5 -16.5t-94.5 -15.5q-20 0 -20 22.5t20 22.5q19 -1 185 30q-1 63 0.5 124t3.5 91l2 29q1 11 8.5 16.5t16.5 4t14 -8.5q-36 107 -127 166q-260 -50 -283 -73q-11 -8 -20.5 -5.5t-14.5 11.5q-2 0 -2 2v8q-12 57 -31 76q-50 -16 -92 -41 q-155 -82 -231 -215q-68 -122 -68 -242q0 -109 70 -170q-73 52 -84 170q-6 125 57 258q39 72 100.5 132.5t133.5 101.5q11 7 53 26q-81 5 -184 -57q-125 -86 -197 -240q-64 -144 -41 -305zM598 850q19 -28 12 -66q31 23 78 33q55 17 166 39q-12 4 -16 6q-107 31 -240 -12z M891 94q14 0 20 -14q10 -25 35 -35q18 -8 82 -18q-17 167 -18 182q-54 -68 -119 -115zM1047 412q2 0 6 1t6 1q21 92 6 188q-6 24 -12 45v-6q-6 -94 -6 -229z" />
<glyph unicode="&#x153;" horiz-adv-x="653" d="M33 76q-17 46 6 110q26 50 59 86q16 18 43 35q9 6 18.5 1.5t12.5 -13.5q35 11 74 -16q43 -31 61 -74q30 38 74 65q47 30 92 39q82 21 131 -12q21 -10 29 -39q7 -36 -19 -74q-37 -42 -116 -53q-96 -10 -176 6q-15 -37 -15 -55t10 -26t35 -17q52 -12 111 -12q126 0 276 22 q-159 -46 -276 -49q-64 -7 -119 2q-33 9 -51 21.5t-23 37.5q-43 -34 -90 -43q-49 -10 -90 4.5t-57 53.5zM82 76q26 -36 90 -25q52 19 74 41q23 23 30 58q-81 24 -114 65q-19 28 -15 43q-31 -31 -43 -49q-57 -80 -22 -133zM186 248q0 -15 23 -33q21 -18 61 -31q-17 34 -34 45 q-13 16 -31 25q-19 5 -19 -6zM344 172q70 -16 148 -6q28 5 52.5 18.5t33.5 30.5q12 9 12 27q0 15 -12 18q-12 10 -54 10q-66 -6 -118 -41q-36 -20 -62 -57z" />
<glyph unicode="&#x178;" horiz-adv-x="964" d="M-160 -264q5 34 33 65q12 16 53 43q-34 -30 -47 -49q-22 -33 -22 -61q0 -33 18 -60q41 -61 160 -118q130 -60 262 -84q164 -32 270 -17q77 12 113 45q35 32 43 113q6 79 -23 272q-22 163 -28 250q-84 -65 -160 -94q-90 -29 -152 0q-61 24 -108 102q-68 115 -72 351 q0 92 17 280q1 14 12 19t21.5 -1t9.5 -20q-14 -211 -13 -278q0 -221 64 -328q36 -66 86 -88q50 -23 123 -2q68 22 168 106q-7 113 -4 195q4 137 10 211q12 98 24 141q24 95 66 137q24 24 49 19q24 -3 45 -27q9 -9 21 -33q40 -68 55 -174q11 -90 2 -145q-11 -67 -51 -137 q-59 -104 -166 -197q5 -79 33 -281q27 -187 20 -282q-11 -98 -57 -144q-46 -41 -142 -57q-119 -13 -286 21q-139 28 -267 94q-122 66 -163 139q-20 38 -17 74zM375 911q0 17 14 21q10 10 25 10q14 0 24 -16q9 -18 -6 -39q-10 -19 -31 -19q-33 0 -26 43zM524 911q0 17 15 21 q10 10 24 10q15 0 25 -16q9 -18 -6 -39q-10 -19 -31 -19q-34 0 -27 43zM715 227q82 79 131 164q37 63 45 121q8 61 -2 133q-16 98 -51 158q-5 12 -17 24q-7 10 -12 11t-12 -7q-30 -30 -52 -114q-14 -52 -22 -133q-8 -96 -8 -209q-3 -78 0 -148z" />
<glyph unicode="&#x2c6;" horiz-adv-x="260" d="M38.5 668q-2.5 8 4.5 16q4 6 16.5 23.5t16.5 23.5q6 8 15 25t13 24q6 11 19 12t18 -12q5 -10 33 -53q30 -42 37 -49q13 -6 3 -18q-8 -10 -17 -3q-46 33 -72 74q-37 -54 -57 -72q-8 -7 -17.5 -3t-12 12z" />
<glyph unicode="&#x2dc;" horiz-adv-x="294" d="M39 672q2 5 5 19t5 18q11 41 43 41q24 0 62 -25q24 -21 49 -29q11 -4 14 11q2 1 6 12q3 10 13 11.5t17.5 -5t4.5 -18.5q-7 -21 -18 -35q-16 -16 -47 -13q-6 2 -62 31q-23 12 -25 12l-14 5q-6 -15 -6 -37q-2 -14 -13.5 -18.5t-22.5 1.5t-11 19z" />
<glyph unicode="&#x2000;" horiz-adv-x="682" />
<glyph unicode="&#x2001;" horiz-adv-x="1365" />
<glyph unicode="&#x2002;" horiz-adv-x="682" />
<glyph unicode="&#x2003;" horiz-adv-x="1365" />
<glyph unicode="&#x2004;" horiz-adv-x="455" />
<glyph unicode="&#x2005;" horiz-adv-x="341" />
<glyph unicode="&#x2006;" horiz-adv-x="227" />
<glyph unicode="&#x2007;" horiz-adv-x="227" />
<glyph unicode="&#x2008;" horiz-adv-x="170" />
<glyph unicode="&#x2009;" horiz-adv-x="273" />
<glyph unicode="&#x200a;" horiz-adv-x="75" />
<glyph unicode="&#x2010;" horiz-adv-x="577" d="M80 313q3 17 24 21q42 10 179 10h186q17 0 18 -18.5t-18 -18.5q-75 -4 -186 -6l-183 -10q-20 6 -20 22z" />
<glyph unicode="&#x2011;" horiz-adv-x="577" d="M80 313q3 17 24 21q42 10 179 10h186q17 0 18 -18.5t-18 -18.5q-75 -4 -186 -6l-183 -10q-20 6 -20 22z" />
<glyph unicode="&#x2012;" horiz-adv-x="577" d="M80 313q3 17 24 21q42 10 179 10h186q17 0 18 -18.5t-18 -18.5q-75 -4 -186 -6l-183 -10q-20 6 -20 22z" />
<glyph unicode="&#x2013;" horiz-adv-x="880" d="M88 315.5q-5 9.5 0 18.5q5 19 41 24q75 11 307 11h346q16 0 17 -14q0 -14 -13 -15q-58 -3 -174.5 -6t-175.5 -6q-269 -9 -305 -15q-3 -14 -25 -10q-13 3 -18 12.5z" />
<glyph unicode="&#x2014;" horiz-adv-x="1105" d="M88 289q-20 20 12 39q32 15 207 18q129 4 486 4l221 -4q10 0 10 -13t-10 -14q-115 0 -221 -4q-192 -3 -486 -12q-126 0 -182 -12q-5 -11 -16.5 -13t-20.5 11z" />
<glyph unicode="&#x2018;" horiz-adv-x="258" d="M61 696q8 55 58 109q36 36 67 51q12 6 21.5 -2t9 -19t-11.5 -18q-32 -16 -51 -41q-30 -30 -48.5 -67t-1.5 -58q7 -6 39 -22q12 -1 10.5 -13t-12.5 -12q-39 0 -65 23q-24 31 -15 69z" />
<glyph unicode="&#x2019;" horiz-adv-x="233" d="M39.5 815.5q-4.5 10.5 1.5 21.5t20 11q19 0 39 -10q47 -23 56 -64q18 -55 -2 -117q-16 -40 -41 -65q-9 -6 -18.5 1t-2.5 17q2 5 8.5 17t10.5 22.5t6 20.5q15 52 2 88q-8 23 -33 41q-1 0 -12 3t-17 3q-13 0 -17.5 10.5z" />
<glyph unicode="&#x201c;" horiz-adv-x="401" d="M76 725q19 40 48.5 75t61.5 48q12 6 21.5 -1.5t9 -18t-11.5 -17.5q-26 -13 -51.5 -42.5t-40.5 -59.5q-16 -36 -9 -62q7 -21 43 -33q9 -8 6 -18t-12 -10q-40 0 -61 30q-31 36 -4 109zM205 682q15 58 61 111q36 36 68 49q12 6 21.5 -2t9 -20.5t-12.5 -18.5q-16 -5 -55 -39 q-28 -32 -45 -67t0 -56q9 -13 39 -23q12 -4 10.5 -15t-12.5 -11q-42 0 -66 24q-22 22 -18 68z" />
<glyph unicode="&#x201d;" horiz-adv-x="368" d="M33 822q5 12 18 14q52 0 80 -25q25 -18 35.5 -49.5t5.5 -65.5q-8 -69 -43 -104q-7 -9 -17.5 -3t-7.5 15t9 24t8.5 23.5t5.5 22t4 26.5q8 56 -25 76q-22 19 -51 12q-15 0 -21 11t-1 23zM179 815.5q-5 10.5 2 21.5t22 11q19 0 39 -10q42 -20 55 -64q18 -55 -2 -117 q-20 -41 -41 -65q-9 -6 -19 1t-6 17q22 33 29 60q16 53 0 88q-9 26 -35 41q-18 6 -24 6q-15 0 -20 10.5z" />
<glyph unicode="&#x2022;" horiz-adv-x="382" d="M111 313q-10 42 3 89t48 55q22 5 49 -6t47 -43q11 -44 18 -58q5 -33 -8.5 -56.5t-40.5 -29.5q-14 -4 -36 -6t-47 12.5t-33 42.5z" />
<glyph unicode="&#x2026;" horiz-adv-x="786" d="M98 49q0 17 15 21q10 10 24 10q15 0 25 -17q9 -17 -6 -38q-10 -19 -31 -19q-34 0 -27 43zM362 49q0 17 15 21q10 10 24 10q15 0 25 -17q9 -17 -6 -38q-10 -19 -31 -19q-34 0 -27 43zM629 49q0 17 14 21q10 10 25 10q14 0 24 -17q9 -17 -6 -38q-10 -19 -31 -19 q-33 0 -26 43z" />
<glyph unicode="&#x202f;" horiz-adv-x="273" />
<glyph unicode="&#x2039;" horiz-adv-x="309" d="M47.5 228q0.5 13 9.5 18q18 10 25 18q37 29 65 68q4 6 23 30.5t31 42t14 25.5q4 13 16 15t21.5 -6t5.5 -21q-2 -11 -13 -29t-20.5 -30.5t-26.5 -33t-18 -22.5q-31 -41 -74 -76q48 -48 66 -73q43 -63 55 -115q4 -15 -11 -20.5t-23 8.5q-13 37 -58 98q-32 45 -59 68 q-10 10 -19 16q-10 6 -9.5 19z" />
<glyph unicode="&#x203a;" horiz-adv-x="370" d="M100 45q6 30 80 115q26 39 72 76q-48 48 -66 73q-43 63 -55 115q-4 15 11.5 20.5t23.5 -8.5q13 -39 57 -98q30 -42 60 -68q12 -12 18 -16q10 -9 9.5 -20.5t-9.5 -16.5q-17 -11 -25 -18q-30 -24 -65 -68q-4 -6 -23 -30.5t-31 -42t-14 -25.5q-4 -13 -16 -15t-21.5 6 t-5.5 21z" />
<glyph unicode="&#x205f;" horiz-adv-x="341" />
<glyph unicode="&#x20ac;" horiz-adv-x="540" d="M22 335.5q0 11.5 11 20.5q54 30 129 45q46 114 121 189q46 56 92 80q37 12 61 8q22 -4 33 -25q18 -18 18 -43q8 -34 0 -82q-3 -14 -15 -17.5t-21.5 3.5t-6.5 21q5 25 5 69q-10 24 -19 29t-37 -4q-42 -20 -80 -68q-56 -60 -102 -149q4 0 27.5 3t37.5 3q55 0 82 -4 q16 0 17.5 -15.5t-11.5 -17.5h-6q-12 1 -25.5 1t-29.5 -0.5t-24 -0.5q-10 -1 -41 -6t-45 -6q-14 -30 -25 -74q17 1 50.5 4t51.5 4q45 0 68 -2q12 -2 15.5 -11t-1 -17t-14.5 -7q-35 0 -68 -2q-51 0 -110 -16q-6 -44 2 -82q16 -69 78 -105q58 -31 131 -16q57 15 86 55 q11 21 18 31q5 12 16.5 8.5t8.5 -16.5q-1 -5 -4 -11.5t-8 -14t-7 -11.5q-31 -54 -98 -74q-84 -25 -162 15q-78 46 -96 133q-10 30 -6 76q-21 -9 -31 -15q-13 -8 -24 -1.5t-11.5 18t10.5 20.5q40 20 62 25q5 33 18 73q-44 -14 -88 -37q-12 -8 -22.5 -1.5t-10.5 18z" />
<glyph unicode="&#x2122;" horiz-adv-x="1703" d="M-248.5 941q4.5 38 29.5 69q43 64 129 84q95 26 201 -11q87 -26 168 -100q56 -53 92 -115q29 3 61 7t69 9.5t58 8.5q161 26 191 31q62 9 187.5 27.5t188.5 27.5q232 32 381 43q-130 -31 -377 -70q-82 -18 -165 -30q0 -26 -11 -48q-3 6 -9 17.5t-9 17.5q-12 -19 -14 -41 q7 5 20 -8q12 -12 12 -65q4 -45 4 -160q39 -58 142 -86q84 -18 186 -8q-18 78 -18 166q7 167 102 247q59 55 113 50q53 -3 110 -52q61 -54 78 -135q20 -93 -18 -153q-39 -63 -121 -105q-74 -42 -191 -59q20 -61 43 -101q11 -28 23 -30q19 9 29 -9t-9 -28q-11 -13 -32 -6 q-24 8 -41 32q-42 85 -56 136q-107 -12 -208 6q-93 23 -136 61q-3 -95 -18 -186q-3 -14 -15 -18t-21.5 3.5t-6.5 22.5q11 67 16 117q1 12 2.5 32.5t2.5 38t1 33.5q-53 76 -53 184q0 58 25 121q-44 -6 -161 -24.5t-161 -24.5q-53 -10 -151 -22q-2 -14 -2 -50q48 -116 51 -247 q3 -55 2.5 -82.5t-2.5 -59.5t-2 -43q0 -34 -23 -34q-8 0 -16 10t-10 20q-24 51 -35 240l-8 213l-13 26q-89 -12 -176 -18q-160 -13 -241 -2q-49 2 -97 17t-73 46q-22 29 -17.5 67zM-195 899q32 -40 140 -45q61 -9 235 -4q141 11 154 12q-19 34 -76 96q-88 70 -160 93 q-91 28 -176 6q-68 -19 -106 -72t-11 -86zM418 645q4 -109 14 -178q0 109 -14 178zM915 836q-8 -45 3 -111q0 109 -3 111zM1315 707q-7 -73 18 -164q102 17 180 55q69 30 105 84q36 48 16 129q-18 77 -67 113q-43 37 -86 37q-41 0 -80 -39q-86 -75 -86 -215z" />
<glyph unicode="&#x25fc;" horiz-adv-x="378" d="M0 0v379h379v-379h-379z" />
<glyph unicode="&#xfb01;" horiz-adv-x="604" d="M14 -152q4 100 31 275q-9 21 -6 49q9 30 24 39q12 64 29 121q22 90 49 137q23 35 49 12q11 -9 7 -24t-19 -15q-26 -48 -43 -123q-5 -15 -14.5 -51.5t-14.5 -52.5q65 -15 111 -61q42 -37 80 -115q70 -3 152 4q-76 -21 -140 -29q45 -88 60 -153q34 -116 2 -246 q-22 -85 -86 -143q-63 -60 -129 -43q-43 11 -74 57q-37 48 -51 117q-21 90 -17 245zM57 -154q-4 -139 19 -233q9 -50 41 -102q20 -30 51 -39q48 -17 92 24q49 44 78 129q31 115 -4 230q-15 76 -62 159q-59 -3 -106 11q-43 11 -84 43q-19 -115 -25 -222zM88 123 q39 -43 90 -60q38 -12 80 -18q-26 45 -65 84q-47 44 -93 51q-3 -27 -12 -57zM442 229q0 21 20 26q19 4 24 -12q1 -3 1 -7q-5 -122 7 -173q10 -20 22 -26q10 -10 74 -4q30 6 63 6q-14 -9 -61 -27q-68 -20 -98 -12q-12 3 -20.5 11t-12.5 16t-10 24q-9 42 -9 178zM502.5 442.5 q-0.5 6.5 0 10t1.5 7.5v3q1 9 11 13.5t20 2.5q21 -7 18 -28l-6 -13q-2 -6 3 -13.5t-1 -12.5q-9 -15 -25 -6q-10 8 -20 24q-1 6 -1.5 12.5z" />
<glyph unicode="&#xfb02;" horiz-adv-x="559" d="M14 -152q4 100 31 275q-9 21 -6 49q9 30 24 39q12 64 29 121q22 90 49 137q23 35 49 12q11 -9 7 -24t-19 -15q-26 -48 -43 -123q-5 -15 -14.5 -51.5t-14.5 -52.5q65 -15 111 -61q42 -37 80 -115q81 -3 143 2q0 1 -3.5 9t-4.5 13q-18 100 -8 265q0 181 20 311q4 20 26 16 t22 -26q-11 -46 -17 -142.5t-6 -164.5q-6 -190 6 -252q5 -19 9.5 -24t25.5 -9q45 -7 70 0q5 0 102 8q-103 -43 -147 -45q-43 -7 -72 8q-15 9 -23 31q-68 -17 -131 -25q45 -88 60 -153q34 -116 2 -246q-22 -85 -86 -143q-63 -60 -129 -43q-43 11 -74 57q-37 48 -51 117 q-21 90 -17 245zM57 -154q-4 -139 19 -233q9 -50 41 -102q20 -30 51 -39q48 -17 92 24q49 44 78 129q31 115 -4 230q-15 76 -62 159q-59 -3 -106 11q-43 11 -84 43q-19 -115 -25 -222zM88 123q39 -43 90 -60q38 -12 80 -18q-26 45 -65 84q-47 44 -93 51q-3 -27 -12 -57z" />
</font>
</defs>
</svg>
